<svg width="110" height="110" viewBox="0 0 110 110" fill="none" xmlns="http://www.w3.org/2000/svg">
<g filter="url(#filter0_d_99_3266)">
<rect x="25" y="25" width="59.52" height="59.52" rx="29.76" fill="white" fill-opacity="0.8" shape-rendering="crispEdges"/>
<path d="M49.6493 49.5441L49.6461 49.5467L49.643 49.5498L49.6493 49.5441ZM64.0496 49.2743C63.949 49.1772 63.8373 49.0924 63.7169 49.0214C63.5465 48.921 63.3572 48.8568 63.161 48.8325C62.9647 48.8082 62.7655 48.8244 62.5758 48.8802C62.3861 48.9359 62.2098 49.03 62.0578 49.1566C61.9059 49.2832 61.7815 49.4396 61.6924 49.6161C61.1941 50.598 60.5068 51.4718 59.67 52.1874C59.7979 51.4663 59.8625 50.7355 59.8628 50.0032C59.8655 47.7755 59.2778 45.5869 58.1596 43.6601C57.0414 41.7334 55.4325 40.1374 53.4969 39.0346C53.2837 38.9137 53.0432 38.849 52.7982 38.8465C52.5531 38.844 52.3114 38.9038 52.0957 39.0203C51.8801 39.1368 51.6976 39.3062 51.5653 39.5126C51.4331 39.719 51.3554 39.9555 51.3396 40.2001C51.2587 41.5718 50.9001 42.9128 50.2856 44.1418C49.6711 45.3708 48.8134 46.4623 47.7647 47.3501L47.4313 47.6213C46.3346 48.3593 45.3638 49.2689 44.5563 50.3155C43.301 51.8968 42.4315 53.7489 42.0166 55.7248C41.6017 57.7007 41.6529 59.7461 42.1661 61.6988C42.6793 63.6515 43.6404 65.4578 44.9732 66.9743C46.306 68.4909 47.9738 69.6762 49.8443 70.436C50.0639 70.5257 50.3023 70.5601 50.5383 70.5359C50.7743 70.5118 51.0008 70.4299 51.1977 70.2976C51.3946 70.1652 51.5559 69.9865 51.6674 69.777C51.7789 69.5676 51.8372 69.334 51.837 69.0967C51.836 68.9432 51.8117 68.7908 51.765 68.6446C51.4413 67.428 51.3481 66.1616 51.4902 64.9107C52.8591 67.4926 55.0564 69.5391 57.7289 70.7214C58.0552 70.8673 58.4239 70.8869 58.7638 70.7765C60.8753 70.095 62.7775 68.8849 64.2896 67.2611C65.8017 65.6374 66.8735 63.654 67.4031 61.4994C67.9328 59.3448 67.9027 57.0906 67.3158 54.9509C66.7288 52.8111 65.6045 50.8571 64.0496 49.2743ZM58.4007 67.8365C57.1397 67.1974 56.0272 66.3001 55.1358 65.2028C54.2443 64.1056 53.5938 62.833 53.2265 61.4678C53.1143 61.0081 53.0275 60.5426 52.9665 60.0734C52.9252 59.7746 52.7915 59.4962 52.5842 59.2771C52.3769 59.058 52.1062 58.9091 51.8102 58.8514C51.719 58.8334 51.6262 58.8244 51.5332 58.8245C51.279 58.8244 51.0292 58.8914 50.8091 59.0186C50.5889 59.1459 50.4062 59.3289 50.2794 59.5493C49.0791 61.6197 48.4754 63.9819 48.5354 66.3743C47.4796 65.5535 46.5973 64.5313 45.9396 63.367C45.2818 62.2027 44.8617 60.9194 44.7035 59.5915C44.5454 58.2636 44.6523 56.9175 45.0182 55.6313C45.3841 54.345 46.0017 53.1442 46.8351 52.0984C47.4679 51.2765 48.2313 50.5639 49.0948 49.9892C49.1322 49.965 49.168 49.9386 49.2022 49.91C49.2022 49.91 49.6314 49.5549 49.646 49.5468C51.7071 47.8035 53.173 45.4607 53.8396 42.8448C55.4158 44.302 56.4668 46.2388 56.8295 48.3545C57.1921 50.4702 56.846 52.6464 55.845 54.5453C55.7127 54.7987 55.6585 55.0856 55.6891 55.3698C55.7196 55.6539 55.8337 55.9227 56.0169 56.1421C56.2 56.3615 56.4441 56.5218 56.7182 56.6027C56.9923 56.6836 57.2843 56.6815 57.5572 56.5967C59.7732 55.902 61.7232 54.5452 63.1447 52.7088C63.999 53.9707 64.5576 55.4091 64.7787 56.9169C64.9998 58.4247 64.8779 59.963 64.4219 61.417C63.9659 62.8711 63.1876 64.2036 62.1451 65.3151C61.1025 66.4266 59.8226 67.2885 58.4007 67.8366L58.4007 67.8365Z" fill="#E47646"/>
</g>
<defs>
<filter id="filter0_d_99_3266" x="0.200001" y="0.200001" width="109.12" height="109.12" filterUnits="userSpaceOnUse" color-interpolation-filters="sRGB">
<feFlood flood-opacity="0" result="BackgroundImageFix"/>
<feColorMatrix in="SourceAlpha" type="matrix" values="0 0 0 0 0 0 0 0 0 0 0 0 0 0 0 0 0 0 127 0" result="hardAlpha"/>
<feOffset/>
<feGaussianBlur stdDeviation="12.4"/>
<feComposite in2="hardAlpha" operator="out"/>
<feColorMatrix type="matrix" values="0 0 0 0 0.723357 0 0 0 0 0.723357 0 0 0 0 0.723357 0 0 0 0.28 0"/>
<feBlend mode="normal" in2="BackgroundImageFix" result="effect1_dropShadow_99_3266"/>
<feBlend mode="normal" in="SourceGraphic" in2="effect1_dropShadow_99_3266" result="shape"/>
</filter>
</defs>
</svg>
