<?xml version="1.0" encoding="utf-8"?>
<!-- Generator: Adobe Illustrator 27.5.0, SVG Export Plug-In . SVG Version: 6.00 Build 0)  -->
<svg version="1.1" id="Layer_1" xmlns="http://www.w3.org/2000/svg" xmlns:xlink="http://www.w3.org/1999/xlink" x="0px" y="0px"
	 viewBox="0 0 2000 2000" style="enable-background:new 0 0 2000 2000;" xml:space="preserve">
<g>
	<g>
		<g>
			
				<linearGradient id="SVGID_1_" gradientUnits="userSpaceOnUse" x1="4812.9443" y1="-9.094947e-13" x2="4812.9443" y2="2000" gradientTransform="matrix(-1 0 0 1 5812.9443 0)">
				<stop  offset="0" style="stop-color:#FDFDFD"/>
				<stop  offset="0.2266" style="stop-color:#F2FAFD"/>
				<stop  offset="0.6212" style="stop-color:#D5F4FE"/>
				<stop  offset="1" style="stop-color:#B4ECFF"/>
			</linearGradient>
			<polygon style="fill:url(#SVGID_1_);" points="0,2000 2000,2000 2000,0 0,0 			"/>
			<g style="opacity:0.45;">
				<path style="opacity:0.5;fill:#ABE9FF;" d="M1862.327,932.695L1862.327,932.695c0-101.808-88.518-184.339-197.71-184.339
					h-41.242c19.29-15.569,31.513-38.55,31.513-64.205v0c0-46.894-40.774-84.908-91.067-84.908h-137.263
					c13.883-11.141,22.707-27.61,22.707-46.028c0-33.553-29.174-60.753-65.161-60.753h-344.665c-35.987,0-65.161,27.2-65.161,60.753
					c0,33.554,29.174,60.754,65.161,60.754h129.053c24.03,15.287,39.81,41.013,39.81,70.182v0c0,25.655-12.221,48.635-31.51,64.205
					H964.548c-109.192,0-197.71,82.531-197.71,184.339l0,0c0,101.808,88.518,184.339,197.71,184.339H683.372
					c-50.294,0-91.067,38.015-91.067,84.91c0,46.893,40.773,84.908,91.067,84.908H568.806c-125.171,0-229.077,84.611-249.7,195.821
					h-40.117c-78.047,0-141.317,58.991-141.317,131.759v13.347c0,72.769,63.269,131.76,141.317,131.76h289.817h948.49h91.546
					c139.995,0,253.485-105.815,253.485-236.344v-0.001c0-130.529-113.49-236.342-253.485-236.342h-443.772
					c50.296,0,91.068-38.015,91.068-84.908c0-46.894-40.772-84.91-91.068-84.91h499.547
					C1773.81,1117.034,1862.327,1034.503,1862.327,932.695z"/>
				<ellipse style="fill:#ABE9FF;" cx="854.765" cy="553.215" rx="59.197" ry="60.754"/>
			</g>
			<ellipse style="opacity:0.15;fill:#231F20;" cx="1000" cy="1762.221" rx="857.838" ry="40.65"/>
			<g>
				<g>
					<path style="fill:#66E8C4;" d="M1783.917,1696.339c-2.688-1.961-8.14,0.388-25.855-6.99
						c-25.84-10.761-35.931-66.372-35.931-66.372c39.319-4.924,36.832,51.732,52.048,61.422c6.867,4.373,10.097,8.607,11.582,11.94
						H1783.917z"/>
					<path style="fill:#3FD2C5;" d="M1734.329,1639.541c8.084,16.48,17.625,40.786,33.732,48.538
						c4.493,2.163,7.781,4.61,10.232,7.019c-3.881-0.476-10.01-1.493-20.23-5.749c-25.84-10.761-35.931-66.371-35.931-66.371
						S1726.245,1623.061,1734.329,1639.541z"/>
				</g>
				<g>
					<path style="fill:#35BFE6;" d="M1800.502,1696.339h-4.259c-2.77-5.889-3.66-16.956,5.601-37.281
						c17.138-37.612,25.786-86.392,13.844-100.738c0,0,40.896,29.15,31.598,59.471
						C1838.558,1646.249,1794.62,1665.205,1800.502,1696.339z"/>
					<path style="fill:#0A88D2;" d="M1798.768,1696.339h-2.528c-2.771-5.887-3.658-16.954,5.603-37.281
						c17.138-37.612,25.786-86.392,13.844-100.738c0,0,26.994,30.017,16.751,58.764
						C1822.327,1645.465,1791.169,1660.24,1798.768,1696.339z"/>
				</g>
				<g>
					<path style="fill:#49D3D5;" d="M1840.887,1680.441c-15.564,6.341-22.222,10.559-26.562,15.898h-5.464
						c4.085-12.349,6.521-25.556,16.107-35.543c10.885-11.34,52.837-30.005,54.276-32.171
						C1880.684,1626.46,1861.909,1671.876,1840.887,1680.441z"/>
					<path style="fill:#0FA1B8;" d="M1813.663,1692.849c-0.325,0.992-0.799,2.19-1.364,3.49h-3.438
						c4.085-12.349,6.521-25.556,16.108-35.543c10.885-11.34,52.836-30.005,54.276-32.171c0,0-20.361,25.537-43.007,37.207
						C1820.023,1674.187,1815.732,1686.54,1813.663,1692.849z"/>
				</g>
				<g>
					<path style="fill:#66E8C7;" d="M1788.693,1678.507c0.525,7.448,2.205,13.392,3.993,17.832h-2.977
						c-10.217-13.19-25.93-38.789-22.987-68.68c4.3-43.683,8.977-98.445,8.977-98.445s57.5,43.598,29.207,91.953
						C1790.797,1645.278,1787.706,1664.505,1788.693,1678.507z"/>
					<g>
						<path style="fill:#3FD2C5;" d="M1785.777,1597.92c-5.83,36.2-5.905,76.732,3.386,93.884c-1.695-1.198-3.507-2.46-5.361-3.74
							c-9.36-14.265-19.494-35.893-17.081-60.405c4.3-43.683,8.977-98.445,8.977-98.445S1793.365,1550.807,1785.777,1597.92z"/>
					</g>
				</g>
				<path style="fill:#CADBF9;" d="M1754.891,1693.687h65.446c5.802,0,10.202,5.23,9.21,10.946l-8.364,48.164
					c-1.3,6.84-7.279,11.789-14.241,11.789h-38.656c-6.962,0-12.941-4.949-14.241-11.789l-8.364-48.164
					C1744.689,1698.917,1749.089,1693.687,1754.891,1693.687z"/>
				<path style="fill:#A1B7EB;" d="M1745.557,1703.355c-0.188-5.194,3.969-9.668,9.334-9.668h65.446
					c5.365,0,9.523,4.474,9.334,9.668H1745.557z"/>
				<path style="fill:#A1B7EB;" d="M1754.891,1693.687h18.199c-5.802,0-10.202,5.23-9.209,10.946l8.364,48.164
					c1.3,6.84,7.279,11.789,14.241,11.789h-18.199c-6.962,0-12.941-4.949-14.241-11.789l-8.364-48.164
					C1744.689,1698.917,1749.089,1693.687,1754.891,1693.687z"/>
			</g>
			<g>
				<g>
					<path style="fill:#66E8C4;" d="M217.431,1696.339c-2.688-1.961-8.14,0.388-25.855-6.99
						c-25.84-10.761-35.931-66.372-35.931-66.372c39.319-4.924,36.832,51.732,52.048,61.422c6.867,4.373,10.097,8.607,11.582,11.94
						H217.431z"/>
					<path style="fill:#3FD2C5;" d="M167.842,1639.541c8.084,16.48,17.625,40.786,33.732,48.538
						c4.493,2.163,7.781,4.61,10.232,7.019c-3.881-0.476-10.01-1.493-20.231-5.749c-25.84-10.761-35.931-66.371-35.931-66.371
						S159.758,1623.061,167.842,1639.541z"/>
				</g>
				<g>
					<path style="fill:#35BFE6;" d="M234.015,1696.339h-4.259c-2.77-5.889-3.66-16.956,5.601-37.281
						c17.138-37.612,25.786-86.392,13.844-100.738c0,0,40.897,29.15,31.598,59.471
						C272.071,1646.249,228.133,1665.205,234.015,1696.339z"/>
					<path style="fill:#0A88D2;" d="M232.282,1696.339h-2.528c-2.771-5.887-3.658-16.954,5.603-37.281
						c17.138-37.612,25.786-86.392,13.844-100.738c0,0,26.994,30.017,16.751,58.764
						C255.84,1645.465,224.682,1660.24,232.282,1696.339z"/>
				</g>
				<g>
					<path style="fill:#49D3D5;" d="M274.4,1680.441c-15.564,6.341-22.223,10.559-26.562,15.898h-5.464
						c4.085-12.349,6.521-25.556,16.107-35.543c10.885-11.34,52.837-30.005,54.276-32.171
						C314.198,1626.46,295.423,1671.876,274.4,1680.441z"/>
					<path style="fill:#0FA1B8;" d="M247.176,1692.849c-0.325,0.992-0.799,2.19-1.364,3.49h-3.439
						c4.085-12.349,6.521-25.556,16.108-35.543c10.885-11.34,52.836-30.005,54.276-32.171c0,0-20.361,25.537-43.007,37.207
						C253.536,1674.187,249.245,1686.54,247.176,1692.849z"/>
				</g>
				<g>
					<path style="fill:#66E8C7;" d="M222.206,1678.507c0.525,7.448,2.205,13.392,3.993,17.832h-2.977
						c-10.217-13.19-25.93-38.789-22.987-68.68c4.3-43.683,8.977-98.445,8.977-98.445s57.5,43.598,29.207,91.953
						C224.311,1645.278,221.22,1664.505,222.206,1678.507z"/>
					<g>
						<path style="fill:#3FD2C5;" d="M219.291,1597.92c-5.83,36.2-5.905,76.732,3.386,93.884c-1.695-1.198-3.507-2.46-5.361-3.74
							c-9.36-14.265-19.494-35.893-17.081-60.405c4.3-43.683,8.977-98.445,8.977-98.445S226.878,1550.807,219.291,1597.92z"/>
					</g>
				</g>
				<path style="fill:#CADBF9;" d="M188.404,1693.687h65.446c5.802,0,10.202,5.23,9.21,10.946l-8.364,48.164
					c-1.3,6.84-7.279,11.789-14.241,11.789h-38.656c-6.962,0-12.941-4.949-14.241-11.789l-8.364-48.164
					C178.202,1698.917,182.602,1693.687,188.404,1693.687z"/>
				<path style="fill:#A1B7EB;" d="M179.07,1703.355c-0.189-5.194,3.969-9.668,9.334-9.668h65.446c5.365,0,9.522,4.474,9.334,9.668
					H179.07z"/>
				<path style="fill:#A1B7EB;" d="M188.404,1693.687h18.199c-5.802,0-10.202,5.23-9.21,10.946l8.364,48.164
					c1.3,6.84,7.279,11.789,14.241,11.789h-18.199c-6.962,0-12.941-4.949-14.241-11.789l-8.364-48.164
					C178.202,1698.917,182.602,1693.687,188.404,1693.687z"/>
			</g>
		</g>
		<g>
			<path style="fill:#29478C;stroke:#29478C;stroke-width:1.2347;stroke-miterlimit:10;" d="M708.794,217.862
				c-2.935,1.468-8.805,2.935-16.326,2.935c-17.428,0-30.547-11.007-30.547-31.277c0-19.354,13.119-32.469,32.287-32.469
				c7.706,0,12.567,1.65,14.676,2.751l-1.926,6.513c-3.025-1.468-7.338-2.568-12.474-2.568c-14.49,0-24.122,9.264-24.122,25.498
				c0,15.136,8.713,24.858,23.757,24.858c4.861,0,9.815-1.008,13.026-2.568L708.794,217.862z"/>
			<path style="fill:#29478C;stroke:#29478C;stroke-width:1.2347;stroke-miterlimit:10;" d="M769.695,188.328
				c0,21.28-12.933,32.562-28.707,32.562c-16.326,0-27.791-12.659-27.791-31.37c0-19.628,12.199-32.469,28.707-32.469
				C758.781,157.05,769.695,169.983,769.695,188.328z M721.727,189.337c0,13.208,7.152,25.04,19.719,25.04
				c12.657,0,19.812-11.649,19.812-25.683c0-12.29-6.422-25.133-19.719-25.133C728.331,163.561,721.727,175.762,721.727,189.337z"/>
			<path style="fill:#29478C;stroke:#29478C;stroke-width:1.2347;stroke-miterlimit:10;" d="M778.955,210.159
				c3.576,2.201,8.805,4.034,14.311,4.034c8.161,0,12.933-4.31,12.933-10.547c0-5.779-3.304-9.081-11.651-12.292
				c-10.087-3.578-16.326-8.805-16.326-17.52c0-9.63,7.979-16.784,19.995-16.784c6.329,0,10.917,1.468,13.666,3.026l-2.201,6.513
				c-2.015-1.101-6.143-2.935-11.741-2.935c-8.437,0-11.648,5.044-11.648,9.264c0,5.779,3.762,8.623,12.292,11.923
				c10.456,4.038,15.775,9.081,15.775,18.162c0,9.539-7.062,17.794-21.645,17.794c-5.963,0-12.474-1.742-15.778-3.943
				L778.955,210.159z"/>
			<path style="fill:#29478C;stroke:#29478C;stroke-width:1.2347;stroke-miterlimit:10;" d="M837.018,164.846h-18.806v-6.787h45.771
				v6.787h-18.896v55.034h-8.068V164.846z"/>
			<path style="fill:#29478C;stroke:#29478C;stroke-width:1.2347;stroke-miterlimit:10;" d="M890.305,158.885
				c4.034-0.825,9.811-1.285,15.317-1.285c8.53,0,14.035,1.559,17.887,5.045c3.118,2.753,4.861,6.971,4.861,11.741
				c0,8.163-5.137,13.575-11.648,15.776v0.276c4.768,1.65,7.61,6.053,9.078,12.475c2.019,8.621,3.486,14.585,4.771,16.968h-8.254
				c-1.009-1.743-2.387-7.062-4.127-14.767c-1.836-8.532-5.14-11.741-12.385-12.016h-7.521v26.783h-7.979V158.885z M898.284,187.043
				h8.165c8.53,0,13.938-4.677,13.938-11.741c0-7.979-5.777-11.465-14.214-11.556c-3.855,0-6.604,0.367-7.889,0.734V187.043z"/>
			<path style="fill:#29478C;stroke:#29478C;stroke-width:1.2347;stroke-miterlimit:10;" d="M971.659,190.896h-24.032v22.289h26.782
				v6.695h-34.764V158.06h33.389v6.695h-25.407v19.537h24.032V190.896z"/>
			<path style="fill:#29478C;stroke:#29478C;stroke-width:1.2347;stroke-miterlimit:10;" d="M984.775,158.885
				c4.861-0.734,10.638-1.285,16.967-1.285c11.465,0,19.63,2.661,25.042,7.705c5.502,5.045,8.713,12.199,8.713,22.198
				c0,10.089-3.118,18.345-8.899,24.031c-5.777,5.779-15.317,8.898-27.333,8.898c-5.684,0-10.456-0.276-14.49-0.734V158.885z
				 M992.753,213.552c2.019,0.367,4.954,0.458,8.072,0.458c17.06,0,26.323-9.539,26.323-26.234
				c0.093-14.583-8.161-23.846-25.038-23.846c-4.127,0-7.248,0.365-9.357,0.825V213.552z"/>
			<path style="fill:#29478C;stroke:#29478C;stroke-width:1.2347;stroke-miterlimit:10;" d="M1053.837,158.06v36.597
				c0,13.851,6.146,19.721,14.4,19.721c9.174,0,15.044-6.055,15.044-19.721V158.06h8.068v36.047
				c0,18.987-9.997,26.783-23.388,26.783c-12.657,0-22.196-7.247-22.196-26.416V158.06H1053.837z"/>
			<path style="fill:#29478C;stroke:#29478C;stroke-width:1.2347;stroke-miterlimit:10;" d="M1148.403,217.862
				c-2.935,1.468-8.805,2.935-16.326,2.935c-17.428,0-30.544-11.007-30.544-31.277c0-19.354,13.115-32.469,32.287-32.469
				c7.703,0,12.564,1.65,14.676,2.751l-1.929,6.513c-3.025-1.468-7.338-2.568-12.474-2.568c-14.49,0-24.122,9.264-24.122,25.498
				c0,15.136,8.712,24.858,23.757,24.858c4.861,0,9.815-1.008,13.026-2.568L1148.403,217.862z"/>
			<path style="fill:#29478C;stroke:#29478C;stroke-width:1.2347;stroke-miterlimit:10;" d="M1172.708,164.846h-18.806v-6.787
				h45.771v6.787h-18.896v55.034h-8.068V164.846z"/>
			<path style="fill:#29478C;stroke:#29478C;stroke-width:1.2347;stroke-miterlimit:10;" d="M1214.53,158.06v61.821h-7.979V158.06
				H1214.53z"/>
			<path style="fill:#29478C;stroke:#29478C;stroke-width:1.2347;stroke-miterlimit:10;" d="M1281.302,188.328
				c0,21.28-12.933,32.562-28.707,32.562c-16.326,0-27.791-12.659-27.791-31.37c0-19.628,12.199-32.469,28.707-32.469
				C1270.388,157.05,1281.302,169.983,1281.302,188.328z M1233.333,189.337c0,13.208,7.152,25.04,19.719,25.04
				c12.657,0,19.812-11.649,19.812-25.683c0-12.29-6.421-25.133-19.719-25.133C1239.937,163.561,1233.333,175.762,1233.333,189.337z
				"/>
			<path style="fill:#29478C;stroke:#29478C;stroke-width:1.2347;stroke-miterlimit:10;" d="M1291.664,219.881V158.06h8.716
				l19.812,31.277c4.585,7.245,8.161,13.758,11.096,20.088l0.186-0.093c-0.734-8.254-0.916-15.777-0.916-25.407V158.06h7.521v61.821
				h-8.072l-19.63-31.37c-4.31-6.878-8.44-13.942-11.558-20.637l-0.276,0.091c0.458,7.798,0.644,15.227,0.644,25.5v26.416H1291.664z
				"/>
		</g>
	</g>
	<g>
		<g>
			<path style="fill:#871A36;" d="M534.817,540.846c113.182,96.263,271.491,232.885,477.982,415.296l162.464-160.245
				l372.207,341.814l74.528-76.921l54.818,262.96l-282.365-28.094l74.15-76.536l-290.446-266.72l-160.945,158.75l-41.292-36.484
				C841.567,955.948,559.976,714.35,389,568.323L534.817,540.846z"/>
			<polygon style="fill:#871A36;" points="1660.393,1355.602 1676.816,1323.749 1638.731,1309.922 			"/>
			<polygon style="fill:#871A36;" points="1378.027,1327.508 1394.451,1295.655 1429.962,1288.844 			"/>
			<path style="fill:#FD3A6C;" d="M491.883,548.936c115.12,98.244,282.239,242.725,504.492,439.058l162.464-160.245l372.207,341.814
				l74.528-76.921l54.818,262.959l-282.365-28.094l74.15-76.536l-290.446-266.72l-160.945,158.75l-41.292-36.484
				C818.891,982.277,515.519,720.775,347.076,576.223L491.883,548.936z"/>
		</g>
		<g>
			<path style="fill:#8E89C4;" d="M1403.208,1417.033c0,209.647-46.008,350.32-372.863,350.32
				c-298.099,0-384.365-140.673-384.365-350.32c0-209.646,169.512-379.599,378.615-379.599
				C1233.696,1037.435,1403.208,1207.387,1403.208,1417.033z"/>
			<path style="opacity:0.2;fill:#231F20;" d="M1231.296,1099.06c53.118,65.349,85.007,148.735,85.007,239.61
				c0,209.646-46.009,350.32-372.863,350.32c-105.59,0-184.493-17.725-242.509-49.838
				c54.852,80.748,156.409,128.201,329.414,128.201c326.854,0,372.863-140.673,372.863-350.32
				C1403.208,1283.878,1334.77,1166.815,1231.296,1099.06z"/>
			<path style="fill:#8E89C4;" d="M891.005,1015.316c0,0-23.76-50.99-39.6-94.563c-15.84-43.574-7.92-93.637,46.639-92.71
				c54.56,0.927,80.96-32.448,98.56-49.136c17.6-16.688,53.68-12.979,73.919,13.906c20.24,26.886,55.44,33.376,95.919,35.23
				c40.48,1.854,49.28,83.438,25.52,111.251c-23.76,27.813-39.883,76.021-39.883,76.021H891.005z"/>
			<path style="opacity:0.2;fill:#231F20;" d="M870.682,969.314c10.919,25.815,20.323,46.002,20.323,46.002h261.075
				c0,0,16.124-48.208,39.884-76.021c22.764-26.647,15.618-102.607-20.62-110.559C1141.394,960.426,932.128,969.523,870.682,969.314
				z"/>
			<path style="fill:#FBA700;" d="M1160.707,1066.505H877.4c-7.173,0-12.987-5.815-12.987-12.987v-32.798
				c0-7.173,5.815-12.987,12.987-12.987h283.307c7.173,0,12.987,5.815,12.987,12.987v32.798
				C1173.695,1060.691,1167.88,1066.505,1160.707,1066.505z"/>
			<rect x="1091.901" y="1007.733" style="fill:#FFD415;" width="27.478" height="58.772"/>
			<path style="opacity:0.2;fill:#231F20;" d="M1144.938,1439.689c-1.329-44.824-28.393-73.405-84.761-92.724
				c-41.19-14.523-59.265-23.014-59.866-43.302c-0.489-16.523,14.08-31.073,45.006-31.878c30.891-0.803,53.654,7.584,66.459,13.385
				l14.221-58.457c-14.972-6.317-34.695-11.861-59.81-13.491v-34.793h-53.845v38.247c-54.342,11.804-85.317,49.226-83.961,94.991
				c1.369,46.246,36.405,74.619,89.424,91.66c38.348,12.693,53.672,23.639,54.258,43.448c0.614,20.769-16.332,34.9-49.127,35.753
				c-30.431,0.791-60.241-8.355-79.716-17.751l-12.768,59.843c16.738,8.72,48.657,16.651,81.89,17.058v36.169h53.845v-42.449
				C1120.995,1520.788,1146.206,1482.514,1144.938,1439.689z"/>
			<g>
				<g>
					<g>
						<path style="fill:#FBFEFF;" d="M932.333,1474.24c18.452,9.396,46.695,18.542,75.528,17.75
							c31.073-0.852,47.129-14.983,46.546-35.753c-0.556-19.809-15.073-30.755-51.408-43.448
							c-50.233-17.042-83.427-45.414-84.725-91.66c-1.523-54.278,39.91-96.967,110.438-98.903
							c33.746-0.927,58.817,5.943,76.795,13.948l-13.474,58.458c-12.132-5.801-33.701-14.188-62.967-13.385
							c-29.302,0.804-43.104,15.354-42.641,31.877c0.57,20.289,17.693,28.779,56.719,43.302c53.407,19.32,79.05,47.9,80.308,92.724
							c1.496,53.336-35.82,99.7-117.909,101.953c-34.18,0.938-68.155-7.589-85.306-17.021L932.333,1474.24z"/>
					</g>
				</g>
				<g>
					<rect x="997.823" y="1513.241" style="fill:#FBFEFF;" width="51.016" height="74.069"/>
				</g>
				<g>
					<rect x="997.823" y="1187.89" style="fill:#FBFEFF;" width="51.016" height="68.881"/>
				</g>
			</g>
		</g>
		<g>
			<g>
				<path style="fill:#FBBD91;" d="M479.821,1591.873c0.605,0.507,5.095-0.531,5.878-0.714c1.313,0.978,10.002,4.026,12.285,4.318
					c2.374,0.304,14.848,0.08,18.934-1.328c4.081-1.419,10.992-10.466,7.631-10.119c-2.627,0.269-8.296,5.021-8.296,5.021
					s-5.322-1.098-7.742-1.652c-2.148-0.49-6.564,1.893-6.564,1.893s0.485-0.324,1.251-0.76h0.003l0,0
					c0.594-0.336,1.357-0.734,2.208-1.11c0.011-0.003,0.02-0.005,0.032-0.014c0.201-0.086,0.401-0.169,0.608-0.252
					c0.014-0.005,0.032-0.011,0.048-0.02c0.212-0.083,0.43-0.161,0.646-0.241c0.011,0,0.023-0.006,0.037-0.008
					c0.21-0.074,0.424-0.141,0.642-0.204c0.02-0.009,0.037-0.014,0.057-0.017c0.224-0.069,0.45-0.126,0.68-0.175
					c2.503-0.571,4.883-0.757,5.916-1.503c0.241-0.166,0.404-0.37,0.487-0.614c0.198-0.593,0.235-1.095,0.023-1.577
					c-0.252-0.568-0.863-1.11-2.007-1.729c-0.063-0.037-0.132-0.066-0.204-0.092c-0.017-0.003-0.037-0.011-0.054-0.015
					c-0.057-0.023-0.112-0.037-0.172-0.054c-0.028-0.006-0.052-0.009-0.077-0.017c-0.057-0.011-0.115-0.023-0.172-0.032
					c-0.032-0.003-0.06-0.009-0.089-0.009c-0.063-0.008-0.126-0.017-0.186-0.02c-0.032-0.003-0.066-0.003-0.092-0.006
					c-0.072-0.005-0.144-0.005-0.221-0.005c-0.023-0.003-0.049-0.003-0.072,0c-0.095,0-0.186,0-0.286,0.003
					c-0.006,0-0.014,0.003-0.026,0.003c-2.529,0.103-6.699,1.394-10.111,0.33h-0.003v0.003c-0.591-0.184-1.156-0.436-1.692-0.774
					c-4.456-2.862-12.319,0.47-12.319,0.47v0.012c-1.087-0.315-5.489-1.563-5.964-1.276
					C480.291,1579.918,479.156,1591.322,479.821,1591.873z"/>
				<path style="fill:#FBBD91;" d="M521.767,1583.76c0,0,1.311-0.829-1.136-1.179c-2.446-0.355-5.849,4.637-11.656,3.495
					c-5.798-1.147-7.1-0.932-8.336,0.556c-1.239,1.488,0.143,4.043,0.874,3.946c0.725-0.092,9.956-0.628,13.873-0.958
					C515.387,1589.622,520.207,1586.645,521.767,1583.76z"/>
			</g>
			<path style="fill:#4183BF;" d="M761.32,1766.132l-346.872,1.221c-6.762,0.022-12.262-5.3-12.285-11.887l-1.748-497.209
				c-0.022-6.586,5.44-11.948,12.203-11.97l340.752-1.199c13.183-0.047,23.907,10.33,23.952,23.173l1.688,480.513
				C779.045,1758.325,771.123,1766.096,761.32,1766.132z"/>
			<path style="fill:#92BFF7;" d="M756.371,1763.173l-342.973,1.204c-6.716,0.023-12.175-5.348-12.198-11.997l-1.718-489.076
				c-0.023-6.646,5.4-12.054,12.11-12.08l342.976-1.202c6.713-0.026,12.172,5.345,12.198,11.991l1.715,489.079
				C768.507,1757.742,763.081,1763.147,756.371,1763.173z"/>
			<path style="fill:#B9D8F9;" d="M660.3,1763.509l-246.902,0.869c-6.716,0.023-12.176-5.4-12.199-12.112l-0.981-279.269
				l246.905-0.869c6.707-0.026,12.17,5.399,12.19,12.107L660.3,1763.509z"/>
			<path style="fill:#5F9BDD;" d="M766.755,1260.169c-0.026-8.356-6.828-15.106-15.181-15.074l-337.023,1.184
				c-8.353,0.032-15.1,6.828-15.074,15.181l0.465,133.139l367.284-1.288L766.755,1260.169z"/>
			<path style="fill:#2D3A4C;" d="M489.863,1548.234l-54.91,0.195c-2.718,0.009-4.935-2.191-4.943-4.915l-0.144-40.699
				c-0.009-2.724,2.188-4.935,4.912-4.95l54.905-0.189c2.727-0.012,4.935,2.188,4.947,4.909l0.143,40.705
				C494.784,1546.012,492.582,1548.226,489.863,1548.234z"/>
			<path style="fill:#2D3A4C;" d="M560.874,1547.985l-54.905,0.192c-2.724,0.012-4.938-2.188-4.946-4.909l-0.144-40.702
				c-0.011-2.724,2.185-4.938,4.912-4.947l54.902-0.195c2.724-0.009,4.938,2.194,4.949,4.912l0.143,40.701
				C565.795,1545.763,563.593,1547.979,560.874,1547.985z"/>
			<path style="fill:#2D3A4C;" d="M631.886,1547.738l-54.908,0.189c-2.721,0.014-4.935-2.188-4.944-4.909l-0.143-40.704
				c-0.011-2.719,2.191-4.932,4.912-4.944l54.904-0.195c2.724-0.006,4.938,2.191,4.947,4.912l0.143,40.704
				C636.806,1545.513,634.61,1547.727,631.886,1547.738z"/>
			<path style="fill:#2D3A4C;" d="M490.072,1608.169l-54.907,0.192c-2.719,0.009-4.938-2.188-4.947-4.909l-0.141-40.705
				c-0.011-2.721,2.185-4.938,4.909-4.946l54.905-0.192c2.724-0.011,4.941,2.188,4.95,4.912l0.143,40.699
				C494.993,1605.943,492.793,1608.16,490.072,1608.169z"/>
			<path style="fill:#2D3A4C;" d="M561.084,1607.92l-54.907,0.192c-2.721,0.012-4.938-2.194-4.946-4.909l-0.141-40.707
				c-0.008-2.716,2.191-4.932,4.912-4.944l54.905-0.192c2.724-0.009,4.938,2.188,4.947,4.912l0.143,40.705
				C566.007,1605.694,563.808,1607.908,561.084,1607.92z"/>
			<path style="fill:#2D3A4C;" d="M632.095,1607.667l-54.901,0.195c-2.721,0.009-4.938-2.188-4.949-4.912l-0.143-40.702
				c-0.009-2.721,2.191-4.932,4.915-4.946l54.905-0.195c2.721-0.009,4.935,2.194,4.943,4.915l0.147,40.702
				C637.019,1605.445,634.822,1607.661,632.095,1607.667z"/>
			<path style="fill:#2D3A4C;" d="M490.284,1668.1l-54.91,0.192c-2.721,0.009-4.935-2.188-4.946-4.906l-0.144-40.704
				c-0.008-2.724,2.191-4.938,4.912-4.95l54.91-0.189c2.721-0.009,4.935,2.188,4.941,4.909l0.149,40.699
				C495.202,1665.877,493.003,1668.089,490.284,1668.1z"/>
			<path style="fill:#2D3A4C;" d="M561.296,1667.85l-54.908,0.192c-2.721,0.009-4.938-2.188-4.949-4.909l-0.141-40.702
				c-0.009-2.727,2.19-4.941,4.909-4.949l54.911-0.189c2.721-0.011,4.935,2.185,4.947,4.906l0.141,40.707
				C566.214,1665.625,564.017,1667.839,561.296,1667.85z"/>
			<path style="fill:#2D3A4C;" d="M632.307,1667.598l-54.908,0.198c-2.718,0.009-4.932-2.19-4.943-4.915l-0.143-40.702
				c-0.012-2.724,2.188-4.935,4.912-4.944l54.905-0.195c2.724-0.009,4.938,2.191,4.946,4.912l0.144,40.704
				C637.228,1665.376,635.029,1667.593,632.307,1667.598z"/>
			<path style="fill:#2D3A4C;" d="M490.491,1728.031l-54.905,0.192c-2.724,0.011-4.938-2.188-4.944-4.912l-0.146-40.696
				c-0.008-2.727,2.191-4.941,4.912-4.949l54.907-0.195c2.721-0.006,4.935,2.191,4.944,4.915l0.143,40.699
				C495.412,1725.809,493.212,1728.023,490.491,1728.031z"/>
			<path style="fill:#2D3A4C;" d="M561.505,1727.782l-54.91,0.192c-2.716,0.011-4.932-2.188-4.941-4.907l-0.143-40.704
				c-0.008-2.724,2.188-4.935,4.909-4.947l54.907-0.192c2.721-0.011,4.938,2.188,4.949,4.909l0.141,40.705
				C566.426,1725.557,564.227,1727.773,561.505,1727.782z"/>
			<path style="fill:#2D3A4C;" d="M632.52,1727.53l-54.908,0.198c-2.724,0.009-4.935-2.191-4.946-4.912l-0.144-40.702
				c-0.008-2.724,2.191-4.938,4.912-4.947l54.907-0.195c2.724-0.008,4.935,2.194,4.946,4.912l0.141,40.705
				C637.44,1725.31,635.241,1727.521,632.52,1727.53z"/>
			<path style="fill:#2D3A4C;" d="M724.47,1720.96l-36.326,0.129c-5.104,0.014-9.262-4.109-9.279-9.216l-0.296-83.758
				c-0.017-5.11,4.112-9.265,9.216-9.279l36.326-0.132c5.107-0.014,9.262,4.112,9.279,9.219l0.298,83.757
				C733.706,1716.788,729.577,1720.943,724.47,1720.96z"/>
			<path style="fill:#29478C;" d="M723.338,1366.195l-279.704,0.984c-7.243,0.026-13.134-7.021-13.166-15.745l-0.204-57.834
				c-0.031-8.718,5.815-15.807,13.052-15.833l279.706-0.984c7.244-0.022,13.138,7.021,13.163,15.741l0.204,57.834
				C736.424,1359.083,730.575,1366.169,723.338,1366.195z"/>
			<path style="fill:#2D3A4C;" d="M738.885,1574.341c0.043,11.456-13.472,20.784-30.178,20.844
				c-16.709,0.061-30.284-9.176-30.324-20.626c-0.04-11.453,13.471-20.784,30.178-20.841
				C725.273,1553.654,738.845,1562.893,738.885,1574.341z"/>
			<path style="fill:#2D3A4C;" d="M738.638,1504.187c0.043,11.453-13.472,20.784-30.181,20.841
				c-16.703,0.057-30.281-9.176-30.321-20.627c-0.043-11.45,13.469-20.786,30.178-20.844
				C725.02,1483.5,738.598,1492.734,738.638,1504.187z"/>
			<path style="fill:#2D3A4C;" d="M738.395,1435.733c0.043,11.453-13.466,20.784-30.175,20.844
				c-16.706,0.058-30.284-9.179-30.324-20.631c-0.043-11.45,13.471-20.784,30.181-20.841
				C724.782,1415.044,738.36,1424.283,738.395,1435.733z"/>
			<path style="fill:#2D3A4C;" d="M653.607,1436.031c0.04,11.453-13.466,20.784-30.178,20.839
				c-16.706,0.063-30.284-9.176-30.327-20.629c-0.037-11.447,13.474-20.778,30.181-20.841
				C639.992,1415.342,653.57,1424.581,653.607,1436.031z"/>
			<path style="fill:#2D3A4C;" d="M570.521,1436.324c0.046,11.45-13.469,20.781-30.178,20.841
				c-16.706,0.057-30.284-9.179-30.321-20.629c-0.043-11.45,13.469-20.784,30.175-20.838
				C556.906,1415.637,570.486,1424.871,570.521,1436.324z"/>
			<path style="fill:#D34A42;" d="M491.701,1436.602c0.038,11.447-13.477,20.781-30.178,20.841
				c-16.712,0.055-30.284-9.176-30.33-20.632c-0.04-11.453,13.472-20.781,30.181-20.841
				C478.08,1415.912,491.658,1425.149,491.701,1436.602z"/>
			<g>
				<path style="fill:#F4F5F5;" d="M459.163,1633.36h-0.098l-6.331,3.04l-1.299-5.821l8.78-4.123l6.443-0.02l0.115,33.229
					l-7.513,0.026L459.163,1633.36z"/>
			</g>
			<g>
				<path style="fill:#F4F5F5;" d="M521.205,1658.62l-0.02-4.703l4.284-3.903c7.238-6.515,10.753-10.26,10.839-14.146
					c-0.009-2.71-1.655-4.852-5.491-4.84c-2.859,0.009-5.357,1.451-7.091,2.787l-2.22-5.563c2.498-1.901,6.38-3.452,10.879-3.467
					c7.513-0.026,11.668,4.356,11.691,10.386c0.02,5.577-4.006,10.039-8.792,14.349l-3.06,2.567v0.103l12.523-0.046l0.026,6.389
					L521.205,1658.62z"/>
			</g>
			<g>
				<g>
					<path style="fill:#F4F5F5;" d="M593.983,1651.6c1.382,0.711,4.553,2.031,7.728,2.019c4.034-0.017,6.076-1.961,6.068-4.47
						c-0.015-3.269-3.286-4.743-6.713-4.734l-3.172,0.017l-0.02-5.574l3.019-0.012c2.607-0.06,5.921-1.044,5.913-3.854
						c-0.005-1.993-1.646-3.475-4.921-3.458c-2.71,0.005-5.566,1.193-6.945,2.016l-1.603-5.618c1.987-1.285,5.97-2.526,10.268-2.543
						c7.106-0.026,11.055,3.696,11.069,8.247c0.014,3.527-1.967,6.294-6.056,7.74v0.1c3.992,0.7,7.223,3.711,7.237,8.055
						c0.02,5.878-5.127,10.191-13.561,10.223c-4.295,0.011-7.931-1.098-9.881-2.317L593.983,1651.6z"/>
				</g>
			</g>
			<g>
				<path style="fill:#F4F5F5;" d="M612.688,1572.078c-0.869-0.052-1.792,0.005-3.017,0.112c-6.899,0.585-9.956,4.124-10.813,8.012
					h0.155c1.632-1.695,3.928-2.672,7.048-2.681c5.575-0.023,10.289,3.897,10.315,10.802c0.023,6.595-5.024,12.029-12.23,12.058
					c-8.846,0.029-13.214-6.55-13.239-14.476c-0.026-6.237,2.257-11.458,5.827-14.793c3.312-3.028,7.602-4.683,12.818-4.955
					c1.428-0.106,2.348-0.112,3.117-0.061L612.688,1572.078z M608.504,1588.755c-0.011-3.068-1.657-5.718-4.981-5.706
					c-2.096,0.009-3.831,1.291-4.591,2.982c-0.204,0.407-0.301,1.021-0.301,1.944c0.166,3.524,1.864,6.69,5.394,6.678
					C606.784,1594.643,608.515,1592.131,608.504,1588.755z"/>
			</g>
			<g>
				<path style="fill:#F4F5F5;" d="M705.263,1493.646l2.982,4.697c0.823,1.322,1.546,2.546,2.263,3.823h0.155
					c0.708-1.385,1.422-2.664,2.133-3.943l2.747-4.611l6.848-0.026l-8.293,11.995l8.534,12.901l-7.106,0.026l-3.086-4.949
					c-0.82-1.322-1.546-2.652-2.263-4.029h-0.106c-0.709,1.433-1.419,2.664-2.231,4.049l-2.848,4.967l-6.954,0.023l8.597-12.706
					l-8.376-12.19L705.263,1493.646z"/>
			</g>
			<g>
				<path style="fill:#F4F5F5;" d="M697.879,1452.035l9.876-29.688l3.518-0.011l-9.878,29.687L697.879,1452.035z"/>
			</g>
			<g>
				<path style="fill:#F4F5F5;" d="M621.096,1431.526c0.02,5.603-3.24,8.439-6.882,8.451c-3.722,0.014-6.762-2.839-6.819-7.955
					c-0.02-5.03,2.87-8.353,6.968-8.368C618.572,1423.641,621.078,1426.74,621.096,1431.526z M611.24,1431.847
					c-0.031,3.065,1.078,5.314,3.085,5.308c2.002-0.006,2.98-2.136,2.968-5.371c-0.011-2.942-0.837-5.314-3.005-5.308
					C612.24,1426.485,611.228,1428.862,611.24,1431.847z M614.334,1451.146l15.324-27.542l2.862-0.012l-15.321,27.543
					L614.334,1451.146z M639.459,1442.509c0.02,5.56-3.2,8.437-6.882,8.448c-3.685,0.012-6.762-2.842-6.776-7.992
					c-0.017-4.992,2.873-8.356,6.922-8.37C636.935,1434.58,639.445,1437.717,639.459,1442.509z M629.603,1442.83
					c-0.029,3.025,1.081,5.313,3.088,5.302c2.045-0.006,2.977-2.136,2.965-5.368c-0.012-2.985-0.834-5.314-3.005-5.305
					C630.607,1437.462,629.592,1439.842,629.603,1442.83z"/>
			</g>
			<g>
				<path style="fill:#F4F5F5;" d="M521.406,1429.467c0.794-0.169,2.251-0.295,3.659-0.301c1.861-0.006,3.011,0.218,3.952,0.866
					c0.86,0.51,1.436,1.408,1.442,2.572c0.003,1.27-0.791,2.435-2.282,2.997l0.003,0.04c1.451,0.361,2.785,1.503,2.79,3.404
					c0.003,1.227-0.522,2.191-1.319,2.85c-0.981,0.863-2.592,1.294-5.107,1.305c-1.391,0.006-2.458-0.095-3.088-0.172
					L521.406,1429.467z M523.921,1434.899l1.287-0.003c1.741-0.009,2.718-0.828,2.713-1.996c-0.003-1.29-0.987-1.878-2.581-1.87
					c-0.737,0.003-1.167,0.04-1.434,0.103L523.921,1434.899z M523.943,1441.239c0.33,0.04,0.754,0.054,1.328,0.054
					c1.617-0.003,3.045-0.619,3.04-2.32c-0.006-1.594-1.399-2.245-3.134-2.24l-1.25,0.003L523.943,1441.239z"/>
				<path style="fill:#F4F5F5;" d="M538.797,1443.008l-0.169-1.104h-0.06c-0.611,0.777-1.652,1.333-2.942,1.339
					c-2.001,0.006-3.137-1.442-3.14-2.953c-0.008-2.518,2.22-3.794,5.899-3.788v-0.164c0-0.654-0.269-1.735-2.03-1.729
					c-0.981,0.003-2.004,0.316-2.678,0.745l-0.496-1.634c0.734-0.453,2.021-0.886,3.599-0.895c3.189-0.011,4.118,2.013,4.126,4.184
					l0.009,3.596c0.003,0.9,0.052,1.781,0.152,2.391L538.797,1443.008z M538.453,1438.139c-1.781-0.035-3.475,0.361-3.473,1.876
					c0.003,0.983,0.637,1.425,1.437,1.425c1.003-0.003,1.738-0.66,1.959-1.376c0.06-0.186,0.08-0.387,0.08-0.553L538.453,1438.139z"
					/>
				<path style="fill:#F4F5F5;" d="M550.901,1442.655c-0.53,0.252-1.571,0.519-2.819,0.521c-3.111,0.015-5.141-1.961-5.153-5.052
					c-0.011-2.988,2.03-5.328,5.526-5.339c0.921,0,1.861,0.2,2.437,0.465l-0.444,1.881c-0.41-0.183-1.004-0.381-1.904-0.381
					c-1.921,0.009-3.065,1.419-3.036,3.243c0.003,2.048,1.339,3.206,3.06,3.2c0.878-0.003,1.488-0.192,1.981-0.393L550.901,1442.655
					z"/>
				<path style="fill:#F4F5F5;" d="M555.26,1437.364h0.043c0.244-0.39,0.527-0.82,0.791-1.167l2.403-3.22l3.031-0.015l-3.667,4.086
					l4.232,5.876l-3.089,0.009l-2.882-4.387l-0.854,1.006l0.011,3.396l-2.515,0.008l-0.052-14.518l2.515-0.009L555.26,1437.364z"/>
			</g>
			<g>
				<path style="fill:#F4F5F5;" d="M710.485,1659.443l0.037,11.146l10.684-0.037l0.017,4.806l-10.685,0.04l0.037,11.246
					l-5.007,0.017l-0.043-11.246l-10.684,0.04l-0.017-4.809l10.687-0.04l-0.04-11.143L710.485,1659.443z"/>
			</g>
			<g>
				<path style="fill:#F4F5F5;" d="M712.905,1572.924l0.02,5.159l-13.397,0.052l-0.017-5.167L712.905,1572.924z"/>
			</g>
			<g>
				<path style="fill:#F4F5F5;" d="M542.651,1573.188l-12.887,0.049l-0.697,5.113c0.717-0.103,1.328-0.103,2.148-0.112
					c3.169-0.008,6.389,0.697,8.749,2.375c2.512,1.68,4.055,4.439,4.069,8.322c0.02,6.182-5.276,11.677-14.223,11.705
					c-4.04,0.017-7.418-0.892-9.262-1.858l1.359-5.836c1.485,0.714,4.508,1.623,7.521,1.615c3.22-0.014,6.641-1.56,6.63-5.087
					c-0.011-3.424-2.727-5.511-9.377-5.491c-1.838,0.009-3.114,0.115-4.499,0.327l2.139-17.443l18.304-0.063L542.651,1573.188z"/>
			</g>
			<g>
				<path style="fill:#F4F5F5;" d="M461.3,1598.611l-0.029-7.926l-14.722,0.052l-0.02-5.061l12.505-20.291l9.512-0.029l0.069,19.474
					l3.989-0.011l0.017,5.827l-3.989,0.018l0.026,7.923L461.3,1598.611z M461.254,1584.859l-0.029-7.361
					c-0.006-1.996,0.089-4.04,0.235-6.191l-0.204,0.006c-1.067,2.151-1.93,4.092-3.045,6.194l-4.425,7.275v0.104L461.254,1584.859z"
					/>
			</g>
			<g>
				<path style="fill:#F4F5F5;" d="M473.885,1701.094c0.037,10.277-4.08,17.345-12.565,17.38
					c-8.591,0.026-12.402-7.676-12.486-17.088c-0.034-9.609,4.026-17.24,12.617-17.271
					C470.347,1684.083,473.851,1691.995,473.885,1701.094z M456.654,1701.36c-0.023,7.616,1.829,11.241,4.849,11.229
					c3.014-0.009,4.64-3.8,4.614-11.364c-0.029-7.361-1.626-11.244-4.749-11.232C458.507,1690.005,456.577,1693.641,456.654,1701.36
					z"/>
			</g>
			<g>
				<path style="fill:#F4F5F5;" d="M528.847,1701.885c-0.009-2.762,1.878-4.76,4.585-4.769c2.71-0.012,4.557,1.924,4.565,4.734
					c0.011,2.713-1.824,4.711-4.582,4.723C530.757,1706.582,528.859,1704.595,528.847,1701.885z"/>
			</g>
			<g>
				<path style="fill:#F4F5F5;" d="M591.775,1699.482l-0.017-4.754l26.381-0.092l0.018,4.754L591.775,1699.482z M591.812,1710.063
					l-0.017-4.754l26.381-0.092l0.017,4.757L591.812,1710.063z"/>
			</g>
			<g>
				<path style="fill:#F4F5F5;" d="M595.233,1535.853c0.972,0.1,1.841,0.098,3.375-0.012c2.352-0.16,4.752-0.834,6.535-2.067
					c2.142-1.491,3.57-3.641,4.172-6.151l-0.155-0.049c-1.48,1.54-3.619,2.415-6.636,2.426c-5.623,0.02-10.392-3.903-10.418-10.343
					c-0.023-6.492,5.176-11.983,12.488-12.003c8.533-0.031,12.597,6.495,12.626,14.266c0.023,6.902-2.156,11.972-5.778,15.309
					c-3.16,2.874-7.499,4.473-12.66,4.694c-1.328,0.106-2.655,0.06-3.533,0.014L595.233,1535.853z M599.879,1519.169
					c0.008,2.865,1.554,5.31,4.72,5.302c2.099-0.009,3.579-1.035,4.29-2.213c0.253-0.462,0.407-0.972,0.401-1.947
					c-0.011-3.527-1.353-6.997-4.88-6.985C601.751,1513.337,599.815,1515.694,599.879,1519.169z"/>
			</g>
			<g>
				<path style="fill:#F4F5F5;" d="M521.24,1532.193c-0.014-3.989,2.28-6.756,5.901-8.353l0.003-0.155
					c-3.229-1.623-4.823-4.327-4.835-7.24c-0.017-5.626,5.033-9.377,11.676-9.4c7.771-0.026,11.009,4.462,11.023,8.502
					c0.009,2.859-1.514,5.677-4.78,7.326v0.152c3.226,1.216,6.099,3.966,6.117,8.261c0.017,6.03-5.03,10.091-12.749,10.116
					C525.157,1541.433,521.256,1536.693,521.24,1532.193z M538.419,1531.878c-0.011-2.916-2.162-4.648-5.233-5.451
					c-2.552,0.722-4.029,2.566-4.023,4.972c-0.043,2.4,1.806,4.645,4.72,4.634C536.647,1536.025,538.428,1534.23,538.419,1531.878z
					 M529.622,1516.161c0.008,2.251,2.059,3.673,4.72,4.482c1.786-0.519,3.363-2.159,3.355-4.253c0-2.047-1.184-4.089-4.049-4.078
					C530.989,1512.325,529.613,1514.065,529.622,1516.161z"/>
			</g>
			<g>
				<path style="fill:#F4F5F5;" d="M472.486,1506.965l0.017,4.915l-13.601,28.368l-8.233,0.029l13.609-26.786l-0.003-0.103
					l-15.232,0.054l-0.023-6.392L472.486,1506.965z"/>
			</g>
			<g>
				<g>
					<g>
						<path style="fill:#F4F5F5;" d="M457.228,1429.312c0.012,3.662-2.561,5.308-5.095,5.314c-2.819,0.011-4.998-1.921-5.01-5.113
							c-0.011-3.271,2.131-5.284,5.136-5.293C455.226,1424.208,457.222,1426.284,457.228,1429.312z M449.723,1429.441
							c0.006,1.922,0.952,3.372,2.486,3.367c1.431-0.006,2.429-1.42,2.42-3.424c-0.009-1.554-0.706-3.329-2.423-3.326
							C450.426,1426.063,449.715,1427.787,449.723,1429.441z"/>
						<path style="fill:#F4F5F5;" d="M459.289,1427.386c-0.006-1.147-0.031-2.111-0.095-2.968l2.208-0.008l0.129,1.497l0.06-0.006
							c0.424-0.777,1.505-1.721,3.166-1.726c1.738-0.006,3.541,1.113,3.553,4.264l0.02,5.907l-2.515,0.012l-0.02-5.626
							c-0.006-1.431-0.542-2.515-1.913-2.509c-1.001,0.003-1.692,0.72-1.958,1.48c-0.083,0.226-0.103,0.533-0.097,0.817l0.02,5.852
							l-2.541,0.006L459.289,1427.386z"/>
					</g>
				</g>
				<g>
					<g>
						<path style="fill:#F4F5F5;" d="M465.461,1450.747c-0.534,0.25-1.572,0.517-2.822,0.522c-3.108,0.011-5.145-1.961-5.15-5.055
							c-0.012-2.985,2.027-5.322,5.526-5.337c0.918,0,1.864,0.198,2.432,0.462l-0.439,1.884c-0.41-0.181-1.006-0.382-1.906-0.382
							c-1.922,0.006-3.063,1.425-3.034,3.243c0.003,2.045,1.339,3.206,3.057,3.2c0.878-0.005,1.491-0.189,1.984-0.396
							L465.461,1450.747z"/>
						<path style="fill:#F4F5F5;" d="M468.901,1446.77c0.069,1.798,1.485,2.572,3.077,2.566c1.167-0.006,2.007-0.172,2.762-0.459
							l0.373,1.735c-0.858,0.347-2.042,0.622-3.473,0.625c-3.232,0.014-5.144-1.967-5.153-5.013
							c-0.006-2.761,1.657-5.365,4.846-5.376c3.235-0.011,4.307,2.647,4.316,4.832c0.003,0.47-0.037,0.84-0.077,1.064
							L468.901,1446.77z M473.274,1444.995c0.014-0.921-0.399-2.431-2.076-2.426c-1.554,0.005-2.202,1.419-2.303,2.44
							L473.274,1444.995z"/>
					</g>
				</g>
				
					<rect x="448.779" y="1436.959" transform="matrix(1 -0.0035 0.0035 1 -5.0304 1.6241)" style="fill:#F4F5F5;" width="25.457" height="2.28"/>
			</g>
		</g>
		<g>
			<g>
				<g>
					<g>
						<path style="fill:#FFAF5D;" d="M1397.456,1754.131c0-9.422,0-16.877,0-26.353c28.078,4.252,61.848,7.515,100.097,7.484
							c37.781-0.031,71.17-3.27,98.996-7.484c0,9.52,0,16.916,0,26.399c0.079,0.209,0.121,0.421,0.121,0.632
							c0,7.083-44.526,12.544-99.55,12.544c-55.024,0-99.669-5.416-99.669-12.499
							C1397.452,1754.626,1397.444,1754.396,1397.456,1754.131z"/>
						<path style="fill:#EB8511;" d="M1397.456,1751.684c0-9.422,0-16.877,0-26.353c28.078,4.252,61.848,7.515,100.097,7.484
							c37.781-0.031,71.17-3.27,98.996-7.484c0,9.521,0,16.916,0,26.399c0.079,0.21,0.121,0.42,0.121,0.632
							c0,7.083-44.526,12.544-99.55,12.544c-55.024,0-99.669-5.416-99.669-12.499
							C1397.452,1752.179,1397.444,1751.948,1397.456,1751.684z"/>
						<path style="fill:#FFB017;" d="M1572.56,1760.612v-31.927c2.512-0.342,4.99-0.696,7.431-1.061v31.76
							C1577.712,1759.814,1575.231,1760.224,1572.56,1760.612z"/>
						<path style="fill:#FFB017;" d="M1551.651,1762.899v-31.767c1.747-0.172,3.484-0.349,5.203-0.534v31.847
							C1555.162,1762.604,1553.425,1762.754,1551.651,1762.899z"/>
						<path style="fill:#FFB017;" d="M1421.374,1760.603c-1.825-0.266-3.561-0.542-5.203-0.827V1728.6h5.203V1760.603z"/>
						<path style="fill:#FFB017;" d="M1565.555,1761.53v-31.936c0.839-0.103,1.673-0.209,2.505-0.315v31.944
							C1567.239,1761.327,1566.406,1761.429,1565.555,1761.53z"/>
						<path style="fill:#FDCE14;" d="M1397.256,1725.38c0-7.083,44.841-12.538,99.865-12.538c55.024,0,99.629,5.741,99.629,12.824
							s-44.605,12.824-99.629,12.824C1442.097,1738.491,1397.256,1732.463,1397.256,1725.38z"/>
						<path style="fill:#FE920C;" d="M1409.701,1724.431c0-4.988,39.229-9.032,87.62-9.032c48.391,0,87.619,4.044,87.619,9.032
							c0,4.988-39.229,9.033-87.619,9.033C1448.93,1733.464,1409.701,1729.42,1409.701,1724.431z"/>
						<path style="fill:#FEB05B;" d="M1469.619,1724.605c0.378-1.313,6.368-1.835,11.784-2.057c0.281-1.088,0.277-1.807,1.059-2.813
							c-10.458,0.168-21.054,1.666-25.124,3.586l-8.384-0.007l-1.865,2.11l8.684,0.007c1.271,1.846,10.23,2.832,23.695,2.833
							c11.652,0.001,21.047-0.684,27.553-3.903c4.086-2.022,7.399-2.632,14.514-2.762c6.4-0.116,10.136,0.363,9.679,1.809
							c-0.458,1.449-4.637,2.374-13.471,2.696c-0.455,1.044-0.729,1.567-1.654,2.608c12.222-0.184,22.255-1.235,26.755-3.209
							l8.571,0.008l1.865-2.11l-7.936-0.007c0.973-3.399-8.903-4.074-24.802-3.995c-12.348,0.061-22.644,0.93-29.57,4.222
							c-3.842,1.826-6.414,2.285-12.464,2.336C1472.336,1726.006,1469.361,1725.499,1469.619,1724.605z"/>
					</g>
					<g>
						<path style="fill:#FFAF5D;" d="M1415.82,1724.768c0-9.421,0-16.877,0-26.353c28.078,4.252,61.848,7.515,100.097,7.484
							c37.781-0.031,71.17-3.27,98.996-7.484c0,9.521,0,16.916,0,26.399c0.079,0.209,0.121,0.421,0.121,0.632
							c0,7.083-44.527,12.544-99.55,12.544c-55.024,0-99.669-5.416-99.669-12.499
							C1415.815,1725.262,1415.807,1725.032,1415.82,1724.768z"/>
						<path style="fill:#EB8511;" d="M1415.82,1722.321c0-9.421,0-16.877,0-26.353c28.078,4.252,61.848,7.515,100.097,7.484
							c37.781-0.031,71.17-3.27,98.996-7.484c0,9.521,0,16.916,0,26.399c0.079,0.209,0.121,0.42,0.121,0.632
							c0,7.083-44.527,12.544-99.55,12.544c-55.024,0-99.669-5.416-99.669-12.499
							C1415.815,1722.815,1415.807,1722.585,1415.82,1722.321z"/>
						<path style="fill:#FFB017;" d="M1590.923,1731.249v-31.927c2.512-0.342,4.99-0.696,7.432-1.062v31.76
							C1596.076,1730.45,1593.595,1730.86,1590.923,1731.249z"/>
						<path style="fill:#FFB017;" d="M1570.014,1733.536v-31.767c1.747-0.172,3.484-0.349,5.203-0.534v31.847
							C1573.525,1733.24,1571.789,1733.391,1570.014,1733.536z"/>
						<path style="fill:#FFB017;" d="M1439.738,1731.24c-1.825-0.266-3.561-0.542-5.203-0.827v-31.177h5.203V1731.24z"/>
						<path style="fill:#FFB017;" d="M1583.919,1732.166v-31.936c0.839-0.103,1.674-0.209,2.506-0.316v31.944
							C1585.603,1731.963,1584.769,1732.066,1583.919,1732.166z"/>
						<path style="fill:#FFAF5D;" d="M1415.619,1696.017c0-7.083,44.841-12.538,99.865-12.538c55.023,0,99.629,5.742,99.629,12.824
							c0,7.083-44.605,12.824-99.629,12.824C1460.46,1709.128,1415.619,1703.1,1415.619,1696.017z"/>
						<path style="fill:#FE920C;" d="M1428.065,1695.068c0-4.988,39.229-9.032,87.619-9.032c48.391,0,87.619,4.044,87.619,9.032
							c0,4.988-39.228,9.033-87.619,9.033C1467.293,1704.101,1428.065,1700.056,1428.065,1695.068z"/>
						<path style="fill:#FEB05B;" d="M1487.983,1695.241c0.378-1.314,6.367-1.835,11.783-2.057c0.281-1.088,0.277-1.807,1.059-2.813
							c-10.458,0.168-21.054,1.666-25.124,3.586l-8.384-0.007l-1.865,2.11l8.684,0.007c1.271,1.845,10.23,2.831,23.695,2.833
							c11.652,0.001,21.047-0.684,27.553-3.903c4.085-2.022,7.399-2.632,14.514-2.762c6.4-0.116,10.136,0.363,9.679,1.809
							c-0.458,1.449-4.637,2.374-13.471,2.696c-0.456,1.044-0.729,1.567-1.654,2.608c12.222-0.184,22.255-1.235,26.755-3.209
							l8.571,0.008l1.864-2.11l-7.936-0.007c0.973-3.399-8.903-4.074-24.802-3.995c-12.348,0.061-22.643,0.93-29.57,4.222
							c-3.843,1.826-6.414,2.285-12.464,2.336C1490.7,1696.643,1487.725,1696.135,1487.983,1695.241z"/>
					</g>
					<g>
						<path style="fill:#FFAF5D;" d="M1392.562,1695.405c0-9.422,0-16.877,0-26.354c28.078,4.252,61.849,7.515,100.097,7.484
							c37.781-0.031,71.17-3.27,98.996-7.484c0,9.521,0,16.916,0,26.399c0.079,0.209,0.121,0.421,0.121,0.632
							c0,7.083-44.527,12.544-99.55,12.544c-55.024,0-99.669-5.416-99.669-12.499
							C1392.558,1695.899,1392.55,1695.669,1392.562,1695.405z"/>
						<path style="fill:#EB8511;" d="M1392.562,1692.958c0-9.421,0-16.877,0-26.353c28.078,4.252,61.849,7.515,100.097,7.484
							c37.781-0.031,71.17-3.27,98.996-7.484c0,9.52,0,16.916,0,26.399c0.079,0.209,0.121,0.42,0.121,0.632
							c0,7.083-44.527,12.544-99.55,12.544c-55.024,0-99.669-5.416-99.669-12.499
							C1392.558,1693.452,1392.55,1693.222,1392.562,1692.958z"/>
						<path style="fill:#FFB017;" d="M1567.666,1701.886v-31.927c2.512-0.342,4.99-0.696,7.431-1.061v31.76
							C1572.818,1701.088,1570.337,1701.497,1567.666,1701.886z"/>
						<path style="fill:#FFB017;" d="M1546.757,1704.172v-31.767c1.747-0.172,3.484-0.349,5.204-0.534v31.847
							C1550.268,1703.877,1548.531,1704.028,1546.757,1704.172z"/>
						<path style="fill:#FFB017;" d="M1416.48,1701.877c-1.825-0.266-3.561-0.542-5.203-0.827v-31.176h5.203V1701.877z"/>
						<path style="fill:#FFB017;" d="M1560.661,1702.803v-31.935c0.839-0.103,1.673-0.209,2.506-0.316v31.944
							C1562.345,1702.6,1561.512,1702.702,1560.661,1702.803z"/>
						<path style="fill:#FFAF5D;" d="M1392.362,1666.654c0-7.083,44.841-12.538,99.865-12.538c55.024,0,99.629,5.742,99.629,12.824
							c0,7.083-44.605,12.824-99.629,12.824C1437.203,1679.765,1392.362,1673.737,1392.362,1666.654z"/>
						<path style="fill:#FE920C;" d="M1404.807,1665.705c0-4.988,39.229-9.032,87.619-9.032c48.391,0,87.619,4.044,87.619,9.032
							c0,4.989-39.229,9.032-87.619,9.032C1444.036,1674.737,1404.807,1670.693,1404.807,1665.705z"/>
						<path style="fill:#FEB05B;" d="M1464.726,1665.878c0.378-1.313,6.367-1.835,11.784-2.057c0.281-1.088,0.277-1.807,1.059-2.813
							c-10.458,0.168-21.054,1.666-25.124,3.586l-8.384-0.007l-1.865,2.11l8.684,0.007c1.271,1.845,10.23,2.832,23.695,2.833
							c11.652,0.001,21.048-0.684,27.553-3.903c4.086-2.022,7.399-2.632,14.515-2.762c6.4-0.116,10.135,0.363,9.679,1.809
							c-0.458,1.449-4.637,2.374-13.471,2.696c-0.455,1.044-0.728,1.567-1.654,2.608c12.222-0.183,22.255-1.235,26.755-3.209
							l8.572,0.008l1.864-2.11l-7.936-0.007c0.973-3.399-8.903-4.074-24.802-3.995c-12.348,0.061-22.644,0.93-29.571,4.222
							c-3.842,1.826-6.414,2.285-12.464,2.336C1467.443,1667.28,1464.467,1666.772,1464.726,1665.878z"/>
					</g>
				</g>
				<g>
					<g>
						<path style="fill:#FFAF5D;" d="M1212.63,1754.131c0-9.422,0-16.877,0-26.353c28.078,4.252,61.848,7.515,100.097,7.484
							c37.781-0.031,71.17-3.27,98.996-7.484c0,9.52,0,16.916,0,26.399c0.079,0.209,0.121,0.421,0.121,0.632
							c0,7.083-44.527,12.544-99.55,12.544c-55.024,0-99.669-5.416-99.669-12.499
							C1212.626,1754.626,1212.618,1754.396,1212.63,1754.131z"/>
						<path style="fill:#EB8511;" d="M1212.63,1751.684c0-9.422,0-16.877,0-26.353c28.078,4.252,61.848,7.515,100.097,7.484
							c37.781-0.031,71.17-3.27,98.996-7.484c0,9.521,0,16.916,0,26.399c0.079,0.21,0.121,0.42,0.121,0.632
							c0,7.083-44.527,12.544-99.55,12.544c-55.024,0-99.669-5.416-99.669-12.499
							C1212.626,1752.179,1212.618,1751.948,1212.63,1751.684z"/>
						<path style="fill:#FFB017;" d="M1387.734,1760.612v-31.927c2.512-0.342,4.99-0.696,7.431-1.061v31.76
							C1392.886,1759.814,1390.405,1760.224,1387.734,1760.612z"/>
						<path style="fill:#FFB017;" d="M1366.824,1762.899v-31.767c1.747-0.172,3.484-0.349,5.204-0.534v31.847
							C1370.335,1762.604,1368.599,1762.754,1366.824,1762.899z"/>
						<path style="fill:#FFB017;" d="M1236.548,1760.603c-1.825-0.266-3.561-0.542-5.203-0.827V1728.6h5.203V1760.603z"/>
						<path style="fill:#FFB017;" d="M1380.729,1761.53v-31.936c0.839-0.103,1.673-0.209,2.505-0.315v31.944
							C1382.413,1761.327,1381.58,1761.429,1380.729,1761.53z"/>
						<path style="fill:#FDCE14;" d="M1212.43,1725.38c0-7.083,44.84-12.538,99.865-12.538c55.024,0,99.629,5.741,99.629,12.824
							s-44.605,12.824-99.629,12.824C1257.27,1738.491,1212.43,1732.463,1212.43,1725.38z"/>
						<path style="fill:#FE920C;" d="M1224.875,1724.431c0-4.988,39.229-9.032,87.619-9.032c48.391,0,87.619,4.044,87.619,9.032
							c0,4.988-39.229,9.033-87.619,9.033C1264.103,1733.464,1224.875,1729.42,1224.875,1724.431z"/>
						<path style="fill:#FEB05B;" d="M1284.793,1724.605c0.378-1.313,6.368-1.835,11.784-2.057c0.281-1.088,0.277-1.807,1.059-2.813
							c-10.458,0.168-21.054,1.666-25.124,3.586l-8.384-0.007l-1.864,2.11l8.684,0.007c1.271,1.846,10.23,2.832,23.695,2.833
							c11.652,0.001,21.048-0.684,27.553-3.903c4.086-2.022,7.399-2.632,14.515-2.762c6.4-0.116,10.136,0.363,9.679,1.809
							c-0.458,1.449-4.637,2.374-13.471,2.696c-0.455,1.044-0.729,1.567-1.654,2.608c12.222-0.184,22.255-1.235,26.755-3.209
							l8.572,0.008l1.864-2.11l-7.936-0.007c0.973-3.399-8.903-4.074-24.802-3.995c-12.348,0.061-22.644,0.93-29.571,4.222
							c-3.842,1.826-6.414,2.285-12.464,2.336C1287.51,1726.006,1284.535,1725.499,1284.793,1724.605z"/>
					</g>
					<g>
						<path style="fill:#FFAF5D;" d="M1230.994,1724.768c0-9.421,0-16.877,0-26.353c28.078,4.252,61.848,7.515,100.097,7.484
							c37.781-0.031,71.17-3.27,98.996-7.484c0,9.521,0,16.916,0,26.399c0.079,0.209,0.121,0.421,0.121,0.632
							c0,7.083-44.526,12.544-99.55,12.544c-55.024,0-99.669-5.416-99.669-12.499
							C1230.989,1725.262,1230.981,1725.032,1230.994,1724.768z"/>
						<path style="fill:#EB8511;" d="M1230.994,1722.321c0-9.421,0-16.877,0-26.353c28.078,4.252,61.848,7.515,100.097,7.484
							c37.781-0.031,71.17-3.27,98.996-7.484c0,9.521,0,16.916,0,26.399c0.079,0.209,0.121,0.42,0.121,0.632
							c0,7.083-44.526,12.544-99.55,12.544c-55.024,0-99.669-5.416-99.669-12.499
							C1230.989,1722.815,1230.981,1722.585,1230.994,1722.321z"/>
						<path style="fill:#FFB017;" d="M1406.097,1731.249v-31.927c2.512-0.342,4.99-0.696,7.432-1.062v31.76
							C1411.25,1730.45,1408.769,1730.86,1406.097,1731.249z"/>
						<path style="fill:#FFB017;" d="M1385.188,1733.536v-31.767c1.747-0.172,3.484-0.349,5.203-0.534v31.847
							C1388.699,1733.24,1386.962,1733.391,1385.188,1733.536z"/>
						<path style="fill:#FFB017;" d="M1254.911,1731.24c-1.825-0.266-3.56-0.542-5.203-0.827v-31.177h5.203V1731.24z"/>
						<path style="fill:#FFB017;" d="M1399.093,1732.166v-31.936c0.839-0.103,1.673-0.209,2.506-0.316v31.944
							C1400.776,1731.963,1399.943,1732.066,1399.093,1732.166z"/>
						<path style="fill:#FFAF5D;" d="M1230.793,1696.017c0-7.083,44.841-12.538,99.865-12.538c55.024,0,99.629,5.742,99.629,12.824
							c0,7.083-44.605,12.824-99.629,12.824C1275.634,1709.128,1230.793,1703.1,1230.793,1696.017z"/>
						<path style="fill:#FE920C;" d="M1243.238,1695.068c0-4.988,39.229-9.032,87.619-9.032c48.391,0,87.619,4.044,87.619,9.032
							c0,4.988-39.229,9.033-87.619,9.033C1282.467,1704.101,1243.238,1700.056,1243.238,1695.068z"/>
						<path style="fill:#FEB05B;" d="M1303.157,1695.241c0.378-1.314,6.367-1.835,11.784-2.057c0.281-1.088,0.277-1.807,1.059-2.813
							c-10.458,0.168-21.054,1.666-25.124,3.586l-8.384-0.007l-1.865,2.11l8.684,0.007c1.271,1.845,10.23,2.831,23.695,2.833
							c11.652,0.001,21.048-0.684,27.553-3.903c4.086-2.022,7.399-2.632,14.514-2.762c6.4-0.116,10.136,0.363,9.679,1.809
							c-0.458,1.449-4.637,2.374-13.471,2.696c-0.455,1.044-0.728,1.567-1.654,2.608c12.222-0.184,22.255-1.235,26.755-3.209
							l8.571,0.008l1.865-2.11l-7.937-0.007c0.973-3.399-8.903-4.074-24.802-3.995c-12.348,0.061-22.644,0.93-29.57,4.222
							c-3.842,1.826-6.414,2.285-12.464,2.336C1305.874,1696.643,1302.898,1696.135,1303.157,1695.241z"/>
					</g>
					<g>
						<path style="fill:#FFAF5D;" d="M1207.736,1695.405c0-9.422,0-16.877,0-26.354c28.078,4.252,61.849,7.515,100.097,7.484
							c37.781-0.031,71.17-3.27,98.996-7.484c0,9.521,0,16.916,0,26.399c0.079,0.209,0.121,0.421,0.121,0.632
							c0,7.083-44.526,12.544-99.55,12.544s-99.669-5.416-99.669-12.499C1207.732,1695.899,1207.724,1695.669,1207.736,1695.405z"/>
						<path style="fill:#EB8511;" d="M1207.736,1692.958c0-9.421,0-16.877,0-26.353c28.078,4.252,61.849,7.515,100.097,7.484
							c37.781-0.031,71.17-3.27,98.996-7.484c0,9.52,0,16.916,0,26.399c0.079,0.209,0.121,0.42,0.121,0.632
							c0,7.083-44.526,12.544-99.55,12.544s-99.669-5.416-99.669-12.499C1207.732,1693.452,1207.724,1693.222,1207.736,1692.958z"/>
						<path style="fill:#FFB017;" d="M1382.84,1701.886v-31.927c2.512-0.342,4.99-0.696,7.431-1.061v31.76
							C1387.993,1701.088,1385.511,1701.497,1382.84,1701.886z"/>
						<path style="fill:#FFB017;" d="M1361.931,1704.172v-31.767c1.747-0.172,3.484-0.349,5.203-0.534v31.847
							C1365.442,1703.877,1363.705,1704.028,1361.931,1704.172z"/>
						<path style="fill:#FFB017;" d="M1231.654,1701.877c-1.825-0.266-3.561-0.542-5.203-0.827v-31.176h5.203V1701.877z"/>
						<path style="fill:#FFB017;" d="M1375.835,1702.803v-31.935c0.839-0.103,1.673-0.209,2.505-0.316v31.944
							C1377.519,1702.6,1376.686,1702.702,1375.835,1702.803z"/>
						<path style="fill:#FFAF5D;" d="M1207.536,1666.654c0-7.083,44.841-12.538,99.865-12.538s99.629,5.742,99.629,12.824
							c0,7.083-44.605,12.824-99.629,12.824S1207.536,1673.737,1207.536,1666.654z"/>
						<path style="fill:#FE920C;" d="M1219.981,1665.705c0-4.988,39.229-9.032,87.619-9.032c48.391,0,87.619,4.044,87.619,9.032
							c0,4.989-39.229,9.032-87.619,9.032C1259.21,1674.737,1219.981,1670.693,1219.981,1665.705z"/>
						<path style="fill:#FEB05B;" d="M1279.899,1665.878c0.378-1.313,6.368-1.835,11.784-2.057c0.281-1.088,0.277-1.807,1.059-2.813
							c-10.458,0.168-21.054,1.666-25.124,3.586l-8.384-0.007l-1.865,2.11l8.684,0.007c1.271,1.845,10.23,2.832,23.695,2.833
							c11.652,0.001,21.048-0.684,27.553-3.903c4.086-2.022,7.399-2.632,14.514-2.762c6.4-0.116,10.136,0.363,9.68,1.809
							c-0.458,1.449-4.637,2.374-13.471,2.696c-0.455,1.044-0.729,1.567-1.654,2.608c12.222-0.183,22.255-1.235,26.755-3.209
							l8.572,0.008l1.864-2.11l-7.937-0.007c0.973-3.399-8.903-4.074-24.802-3.995c-12.348,0.061-22.644,0.93-29.57,4.222
							c-3.842,1.826-6.414,2.285-12.464,2.336C1282.616,1667.28,1279.641,1666.772,1279.899,1665.878z"/>
					</g>
					<g>
						<path style="fill:#FFAF5D;" d="M1180.191,1666.042c0-9.422,0-16.877,0-26.354c28.078,4.252,61.849,7.515,100.097,7.484
							c37.781-0.031,71.17-3.27,98.996-7.484c0,9.521,0,16.916,0,26.399c0.079,0.209,0.121,0.421,0.121,0.632
							c0,7.083-44.526,12.544-99.55,12.544c-55.024,0-99.669-5.416-99.669-12.499
							C1180.187,1666.536,1180.178,1666.306,1180.191,1666.042z"/>
						<path style="fill:#EB8511;" d="M1180.191,1663.594c0-9.422,0-16.877,0-26.353c28.078,4.252,61.849,7.515,100.097,7.484
							c37.781-0.031,71.17-3.27,98.996-7.484c0,9.52,0,16.916,0,26.399c0.079,0.209,0.121,0.42,0.121,0.632
							c0,7.083-44.526,12.544-99.55,12.544c-55.024,0-99.669-5.416-99.669-12.499
							C1180.187,1664.089,1180.178,1663.859,1180.191,1663.594z"/>
						<path style="fill:#FFB017;" d="M1355.294,1672.523v-31.927c2.512-0.341,4.99-0.695,7.431-1.061v31.76
							C1360.447,1671.724,1357.966,1672.134,1355.294,1672.523z"/>
						<path style="fill:#FFB017;" d="M1334.385,1674.809v-31.767c1.748-0.172,3.484-0.349,5.203-0.534v31.847
							C1337.896,1674.514,1336.16,1674.665,1334.385,1674.809z"/>
						<path style="fill:#FFB017;" d="M1204.109,1672.513c-1.824-0.266-3.56-0.542-5.203-0.827v-31.177h5.203V1672.513z"/>
						<path style="fill:#FFB017;" d="M1348.29,1673.44v-31.936c0.839-0.103,1.673-0.209,2.506-0.316v31.944
							C1349.974,1673.237,1349.141,1673.339,1348.29,1673.44z"/>
						<path style="fill:#FDCE14;" d="M1179.99,1637.291c0-7.083,44.841-12.538,99.865-12.538c55.023,0,99.629,5.742,99.629,12.825
							c0,7.083-44.605,12.824-99.629,12.824C1224.831,1650.401,1179.99,1644.373,1179.99,1637.291z"/>
						<path style="fill:#FE920C;" d="M1192.436,1636.342c0-4.988,39.229-9.032,87.619-9.032c48.391,0,87.619,4.044,87.619,9.032
							c0,4.989-39.228,9.033-87.619,9.033C1231.664,1645.374,1192.436,1641.33,1192.436,1636.342z"/>
						<path style="fill:#FEB05B;" d="M1252.354,1636.515c0.378-1.313,6.368-1.835,11.784-2.057c0.281-1.087,0.277-1.807,1.059-2.812
							c-10.459,0.168-21.054,1.666-25.124,3.586l-8.384-0.007l-1.865,2.11l8.684,0.007c1.271,1.845,10.23,2.832,23.696,2.833
							c11.652,0.001,21.047-0.684,27.553-3.903c4.086-2.021,7.399-2.632,14.515-2.762c6.4-0.116,10.136,0.363,9.679,1.809
							c-0.458,1.449-4.637,2.375-13.471,2.696c-0.455,1.043-0.729,1.566-1.654,2.608c12.222-0.183,22.255-1.235,26.755-3.209
							l8.572,0.008l1.864-2.11l-7.936-0.007c0.973-3.399-8.903-4.074-24.802-3.995c-12.348,0.061-22.644,0.93-29.57,4.222
							c-3.842,1.826-6.414,2.285-12.464,2.336C1255.071,1637.917,1252.096,1637.409,1252.354,1636.515z"/>
					</g>
					<g>
						<path style="fill:#FFAF5D;" d="M1207.736,1636.678c0-9.422,0-16.877,0-26.354c28.078,4.252,61.849,7.515,100.097,7.484
							c37.781-0.031,71.17-3.27,98.996-7.484c0,9.521,0,16.916,0,26.399c0.079,0.21,0.121,0.421,0.121,0.632
							c0,7.083-44.526,12.544-99.55,12.544s-99.669-5.416-99.669-12.499C1207.732,1637.173,1207.724,1636.943,1207.736,1636.678z"/>
						<path style="fill:#EB8511;" d="M1207.736,1634.231c0-9.422,0-16.877,0-26.353c28.078,4.252,61.849,7.515,100.097,7.484
							c37.781-0.031,71.17-3.27,98.996-7.484c0,9.52,0,16.916,0,26.399c0.079,0.209,0.121,0.421,0.121,0.632
							c0,7.083-44.526,12.544-99.55,12.544s-99.669-5.416-99.669-12.499C1207.732,1634.726,1207.724,1634.496,1207.736,1634.231z"/>
						<path style="fill:#FFB017;" d="M1382.84,1643.16v-31.927c2.512-0.342,4.99-0.696,7.431-1.061v31.76
							C1387.993,1642.361,1385.511,1642.771,1382.84,1643.16z"/>
						<path style="fill:#FFB017;" d="M1361.931,1645.446v-31.767c1.747-0.172,3.484-0.349,5.203-0.534v31.847
							C1365.442,1645.151,1363.705,1645.302,1361.931,1645.446z"/>
						<path style="fill:#FFB017;" d="M1231.654,1643.15c-1.825-0.266-3.561-0.542-5.203-0.826v-31.177h5.203V1643.15z"/>
						<path style="fill:#FFB017;" d="M1375.835,1644.077v-31.936c0.839-0.103,1.673-0.209,2.505-0.315v31.944
							C1377.519,1643.874,1376.686,1643.976,1375.835,1644.077z"/>
						<path style="fill:#FDCE14;" d="M1207.536,1607.928c0-7.083,44.841-12.538,99.865-12.538s99.629,5.741,99.629,12.824
							c0,7.083-44.605,12.824-99.629,12.824S1207.536,1615.01,1207.536,1607.928z"/>
						<path style="fill:#FE920C;" d="M1219.981,1606.979c0-4.988,39.229-9.032,87.619-9.032c48.391,0,87.619,4.044,87.619,9.032
							c0,4.989-39.229,9.032-87.619,9.032C1259.21,1616.011,1219.981,1611.967,1219.981,1606.979z"/>
						<path style="fill:#FEB05B;" d="M1279.899,1607.152c0.378-1.313,6.368-1.835,11.784-2.057c0.281-1.087,0.277-1.807,1.059-2.812
							c-10.458,0.168-21.054,1.666-25.124,3.586l-8.384-0.007l-1.865,2.11l8.684,0.007c1.271,1.845,10.23,2.831,23.695,2.833
							c11.652,0.001,21.048-0.684,27.553-3.903c4.086-2.022,7.399-2.632,14.514-2.762c6.4-0.116,10.136,0.362,9.68,1.809
							c-0.458,1.449-4.637,2.374-13.471,2.696c-0.455,1.044-0.729,1.566-1.654,2.608c12.222-0.184,22.255-1.235,26.755-3.209
							l8.572,0.008l1.864-2.11l-7.937-0.007c0.973-3.399-8.903-4.074-24.802-3.995c-12.348,0.061-22.644,0.93-29.57,4.222
							c-3.842,1.826-6.414,2.285-12.464,2.336C1282.616,1608.554,1279.641,1608.046,1279.899,1607.152z"/>
					</g>
					<g>
						<path style="fill:#FFAF5D;" d="M1217.524,1607.315c0-9.422,0-16.877,0-26.353c28.078,4.252,61.848,7.515,100.097,7.484
							c37.781-0.031,71.17-3.27,98.996-7.484c0,9.521,0,16.916,0,26.399c0.079,0.21,0.121,0.42,0.121,0.632
							c0,7.083-44.527,12.544-99.55,12.544c-55.024,0-99.668-5.416-99.668-12.499
							C1217.52,1607.81,1217.512,1607.58,1217.524,1607.315z"/>
						<path style="fill:#EB8511;" d="M1217.524,1604.868c0-9.422,0-16.877,0-26.354c28.078,4.252,61.848,7.515,100.097,7.484
							c37.781-0.031,71.17-3.27,98.996-7.484c0,9.521,0,16.916,0,26.399c0.079,0.209,0.121,0.421,0.121,0.632
							c0,7.083-44.527,12.544-99.55,12.544c-55.024,0-99.668-5.416-99.668-12.499
							C1217.52,1605.363,1217.512,1605.133,1217.524,1604.868z"/>
						<path style="fill:#FFB017;" d="M1392.627,1613.796v-31.927c2.512-0.342,4.99-0.696,7.432-1.061v31.761
							C1397.78,1612.998,1395.299,1613.408,1392.627,1613.796z"/>
						<path style="fill:#FFB017;" d="M1371.719,1616.083v-31.767c1.747-0.172,3.484-0.349,5.203-0.534v31.847
							C1375.229,1615.788,1373.493,1615.938,1371.719,1616.083z"/>
						<path style="fill:#FFB017;" d="M1241.442,1613.787c-1.825-0.266-3.561-0.542-5.203-0.826v-31.177h5.203V1613.787z"/>
						<path style="fill:#FFB017;" d="M1385.623,1614.714v-31.936c0.839-0.103,1.674-0.209,2.506-0.316v31.944
							C1387.307,1614.511,1386.474,1614.613,1385.623,1614.714z"/>
						<path style="fill:#FDCE14;" d="M1217.324,1578.564c0-7.083,44.841-12.538,99.865-12.538c55.023,0,99.629,5.742,99.629,12.824
							c0,7.083-44.605,12.824-99.629,12.824C1262.164,1591.675,1217.324,1585.647,1217.324,1578.564z"/>
						<path style="fill:#FE920C;" d="M1229.769,1577.615c0-4.988,39.229-9.032,87.619-9.032c48.391,0,87.619,4.044,87.619,9.032
							c0,4.989-39.229,9.033-87.619,9.033C1268.997,1586.648,1229.769,1582.604,1229.769,1577.615z"/>
						<path style="fill:#FEB05B;" d="M1289.687,1577.789c0.378-1.313,6.367-1.835,11.784-2.057c0.281-1.087,0.277-1.807,1.059-2.812
							c-10.458,0.168-21.054,1.666-25.124,3.586l-8.384-0.007l-1.865,2.11l8.684,0.007c1.271,1.846,10.23,2.832,23.695,2.833
							c11.652,0.001,21.047-0.684,27.553-3.903c4.086-2.021,7.399-2.632,14.514-2.762c6.4-0.116,10.136,0.363,9.679,1.809
							c-0.458,1.449-4.637,2.374-13.471,2.696c-0.455,1.044-0.728,1.567-1.654,2.608c12.222-0.184,22.255-1.235,26.755-3.209
							l8.572,0.008l1.864-2.11l-7.936-0.007c0.973-3.398-8.903-4.074-24.802-3.995c-12.348,0.061-22.644,0.93-29.57,4.222
							c-3.842,1.826-6.414,2.285-12.464,2.336C1292.404,1579.191,1289.429,1578.682,1289.687,1577.789z"/>
					</g>
				</g>
				<g>
					<circle style="fill:#FDCE14;" cx="1469.706" cy="1573.352" r="95.86"/>
					
						<ellipse transform="matrix(0.7071 -0.7071 0.7071 0.7071 -686.1802 1500.8781)" style="fill:#FFEB67;" cx="1468.63" cy="1578.732" rx="73.9" ry="73.9"/>
					
						<ellipse transform="matrix(0.2298 -0.9732 0.9732 0.2298 -399.2267 2642.2593)" style="fill:#FFA500;" cx="1469.706" cy="1573.352" rx="73.9" ry="73.9"/>
					<path style="fill:#EB860D;" d="M1469.706,1509.135c39.186,0,71.229,30.504,73.725,69.058c0.104-1.602,0.175-3.213,0.175-4.842
						c0-40.814-33.087-73.901-73.901-73.901c-40.814,0-73.9,33.086-73.9,73.901c0,1.629,0.071,3.24,0.175,4.842
						C1398.477,1539.639,1430.52,1509.135,1469.706,1509.135z"/>
					<path style="fill:#EB860D;" d="M1477.969,1567.273c-8.872-3.783-11.673-5.915-11.627-9.928c0.05-4.358,3.202-6.93,8.698-6.855
						c6.241,0.085,12.449,2.961,15.695,5.099l4.221-18.257c-1.082-0.654-2.351-1.287-3.769-1.874l1.939-5.968l-13.606-3.99
						l-2.206,6.793c-0.924-0.068-1.859-0.112-2.808-0.124c-17.98-0.249-29.704,11.624-29.886,27.495
						c-0.263,10.114,5.423,19.784,20.362,25.922c8.432,3.429,10.636,5.554,10.587,9.913c-0.05,4.361-2.904,7.113-9.742,7.019
						c-6.683-0.092-15.261-3.699-19.387-6.72l-4.229,18.954c2.016,1.317,4.444,2.494,7.178,3.464l-2.039,6.271l13.607,3.99
						l2.455-7.554c0.73,0.038,1.462,0.069,2.205,0.08c20.803,0.285,31.633-11.253,31.814-27.122
						C1497.426,1581.321,1491.727,1573.045,1477.969,1567.273z"/>
					<path style="fill:#FFEF04;" d="M1476.344,1568.899c-8.872-3.783-11.673-5.915-11.627-9.929c0.05-4.358,3.202-6.93,8.698-6.855
						c6.242,0.085,12.449,2.961,15.695,5.099l4.222-18.257c-1.082-0.654-2.351-1.287-3.769-1.874l1.939-5.968l-13.605-3.99
						l-2.206,6.793c-0.924-0.068-1.859-0.113-2.808-0.124c-17.98-0.249-29.704,11.624-29.886,27.495
						c-0.263,10.114,5.423,19.784,20.362,25.921c8.432,3.429,10.636,5.554,10.587,9.913c-0.05,4.361-2.904,7.113-9.742,7.019
						c-6.683-0.092-15.261-3.698-19.387-6.72l-4.229,18.954c2.016,1.317,4.444,2.494,7.178,3.464l-2.039,6.271l13.608,3.99
						l2.454-7.554c0.73,0.038,1.463,0.069,2.205,0.08c20.804,0.285,31.633-11.253,31.814-27.122
						C1495.801,1582.946,1490.102,1574.67,1476.344,1568.899z"/>
				</g>
				<g>
					<g>
						<path style="fill:#FFAF5D;" d="M1049.494,1754.131c0-9.422,0-16.877,0-26.353c28.078,4.252,61.849,7.515,100.097,7.484
							c37.78-0.031,71.17-3.27,98.996-7.484c0,9.52,0,16.916,0,26.399c0.079,0.209,0.121,0.421,0.121,0.632
							c0,7.083-44.526,12.544-99.55,12.544c-55.024,0-99.669-5.416-99.669-12.499
							C1049.49,1754.626,1049.482,1754.396,1049.494,1754.131z"/>
						<path style="fill:#EB8511;" d="M1049.494,1751.684c0-9.422,0-16.877,0-26.353c28.078,4.252,61.849,7.515,100.097,7.484
							c37.78-0.031,71.17-3.27,98.996-7.484c0,9.521,0,16.916,0,26.399c0.079,0.21,0.121,0.42,0.121,0.632
							c0,7.083-44.526,12.544-99.55,12.544c-55.024,0-99.669-5.416-99.669-12.499
							C1049.49,1752.179,1049.482,1751.948,1049.494,1751.684z"/>
						<path style="fill:#FFB017;" d="M1224.598,1760.612v-31.927c2.512-0.342,4.99-0.696,7.431-1.061v31.76
							C1229.75,1759.814,1227.269,1760.224,1224.598,1760.612z"/>
						<path style="fill:#FFB017;" d="M1203.689,1762.899v-31.767c1.747-0.172,3.484-0.349,5.203-0.534v31.847
							C1207.2,1762.604,1205.463,1762.754,1203.689,1762.899z"/>
						<path style="fill:#FFB017;" d="M1073.412,1760.603c-1.825-0.266-3.56-0.542-5.203-0.827V1728.6h5.203V1760.603z"/>
						<path style="fill:#FFB017;" d="M1217.593,1761.53v-31.936c0.839-0.103,1.673-0.209,2.505-0.315v31.944
							C1219.277,1761.327,1218.444,1761.429,1217.593,1761.53z"/>
						<path style="fill:#FDCE14;" d="M1049.294,1725.38c0-7.083,44.84-12.538,99.865-12.538c55.024,0,99.629,5.741,99.629,12.824
							s-44.605,12.824-99.629,12.824C1094.134,1738.491,1049.294,1732.463,1049.294,1725.38z"/>
						<path style="fill:#FE920C;" d="M1061.739,1724.431c0-4.988,39.229-9.032,87.619-9.032c48.391,0,87.619,4.044,87.619,9.032
							c0,4.988-39.229,9.033-87.619,9.033C1100.968,1733.464,1061.739,1729.42,1061.739,1724.431z"/>
						<path style="fill:#FEB05B;" d="M1121.657,1724.605c0.378-1.313,6.368-1.835,11.784-2.057c0.281-1.088,0.277-1.807,1.059-2.813
							c-10.458,0.168-21.054,1.666-25.124,3.586l-8.384-0.007l-1.865,2.11l8.684,0.007c1.271,1.846,10.23,2.832,23.695,2.833
							c11.652,0.001,21.047-0.684,27.553-3.903c4.086-2.022,7.399-2.632,14.515-2.762c6.4-0.116,10.136,0.363,9.679,1.809
							c-0.458,1.449-4.637,2.374-13.471,2.696c-0.455,1.044-0.729,1.567-1.654,2.608c12.222-0.184,22.255-1.235,26.755-3.209
							l8.572,0.008l1.864-2.11l-7.936-0.007c0.973-3.399-8.903-4.074-24.802-3.995c-12.348,0.061-22.644,0.93-29.571,4.222
							c-3.842,1.826-6.414,2.285-12.464,2.336C1124.374,1726.006,1121.399,1725.499,1121.657,1724.605z"/>
					</g>
					<g>
						<path style="fill:#FFAF5D;" d="M1067.858,1724.768c0-9.421,0-16.877,0-26.353c28.078,4.252,61.848,7.515,100.097,7.484
							c37.781-0.031,71.17-3.27,98.996-7.484c0,9.521,0,16.916,0,26.399c0.079,0.209,0.121,0.421,0.121,0.632
							c0,7.083-44.527,12.544-99.55,12.544c-55.024,0-99.669-5.416-99.669-12.499
							C1067.853,1725.262,1067.845,1725.032,1067.858,1724.768z"/>
						<path style="fill:#EB8511;" d="M1067.858,1722.321c0-9.421,0-16.877,0-26.353c28.078,4.252,61.848,7.515,100.097,7.484
							c37.781-0.031,71.17-3.27,98.996-7.484c0,9.521,0,16.916,0,26.399c0.079,0.209,0.121,0.42,0.121,0.632
							c0,7.083-44.527,12.544-99.55,12.544c-55.024,0-99.669-5.416-99.669-12.499
							C1067.853,1722.815,1067.845,1722.585,1067.858,1722.321z"/>
						<path style="fill:#FFB017;" d="M1242.961,1731.249v-31.927c2.512-0.342,4.99-0.696,7.432-1.062v31.76
							C1248.114,1730.45,1245.632,1730.86,1242.961,1731.249z"/>
						<path style="fill:#FFB017;" d="M1222.052,1733.536v-31.767c1.747-0.172,3.484-0.349,5.203-0.534v31.847
							C1225.563,1733.24,1223.826,1733.391,1222.052,1733.536z"/>
						<path style="fill:#FFB017;" d="M1091.776,1731.24c-1.825-0.266-3.561-0.542-5.203-0.827v-31.177h5.203V1731.24z"/>
						<path style="fill:#FFB017;" d="M1235.957,1732.166v-31.936c0.839-0.103,1.674-0.209,2.506-0.316v31.944
							C1237.641,1731.963,1236.807,1732.066,1235.957,1732.166z"/>
						<path style="fill:#FFAF5D;" d="M1067.657,1696.017c0-7.083,44.841-12.538,99.865-12.538c55.024,0,99.629,5.742,99.629,12.824
							c0,7.083-44.605,12.824-99.629,12.824C1112.498,1709.128,1067.657,1703.1,1067.657,1696.017z"/>
						<path style="fill:#FE920C;" d="M1080.103,1695.068c0-4.988,39.229-9.032,87.619-9.032s87.619,4.044,87.619,9.032
							c0,4.988-39.228,9.033-87.619,9.033S1080.103,1700.056,1080.103,1695.068z"/>
						<path style="fill:#FEB05B;" d="M1140.021,1695.241c0.378-1.314,6.368-1.835,11.784-2.057c0.281-1.088,0.277-1.807,1.059-2.813
							c-10.458,0.168-21.054,1.666-25.124,3.586l-8.384-0.007l-1.864,2.11l8.684,0.007c1.271,1.845,10.23,2.831,23.695,2.833
							c11.652,0.001,21.047-0.684,27.553-3.903c4.086-2.022,7.399-2.632,14.515-2.762c6.4-0.116,10.135,0.363,9.679,1.809
							c-0.458,1.449-4.637,2.374-13.471,2.696c-0.456,1.044-0.729,1.567-1.654,2.608c12.222-0.184,22.255-1.235,26.755-3.209
							l8.572,0.008l1.864-2.11l-7.936-0.007c0.973-3.399-8.903-4.074-24.802-3.995c-12.348,0.061-22.644,0.93-29.57,4.222
							c-3.842,1.826-6.414,2.285-12.464,2.336C1142.738,1696.643,1139.762,1696.135,1140.021,1695.241z"/>
					</g>
				</g>
			</g>
			<path style="fill:#FFFFFF;" d="M1527.103,1511.527c0,0-2.537,6.647-3.632,7.168c-1.095,0.522-2.321,1.98-7.697,0.891
				c0,0,8.638,2.376,5.96,14.225c0,0,1.613-11.39,11.985-9.308C1533.72,1524.503,1524.225,1522.32,1527.103,1511.527z"/>
			<path style="fill:#FFFFFF;" d="M1296.049,1638.517c0,0-2.163,5.666-3.096,6.11c-0.933,0.445-1.979,1.688-6.562,0.76
				c0,0,7.363,2.025,5.081,12.125c0,0,1.375-9.709,10.217-7.934C1301.689,1649.578,1293.595,1647.718,1296.049,1638.517z"/>
			<path style="fill:#FFFFFF;" d="M1272.574,1649.186c0,0-1.806,4.73-2.585,5.101c-0.779,0.371-1.652,1.409-5.478,0.634
				c0,0,6.147,1.69,4.242,10.123c0,0,1.148-8.106,8.529-6.624C1277.282,1658.42,1270.525,1656.867,1272.574,1649.186z"/>
		</g>
	</g>
	<g>
		<g>
			<g>
				<polygon style="fill:#A9CEEA;" points="1475.085,831.541 1475.085,768.551 1389.289,768.551 1389.289,831.541 1351.278,831.541 
					1432.73,915.166 1513.097,831.541 				"/>
			</g>
			<g>
				<g>
					<path style="fill:#A9CEEA;" d="M1394.359,751.536L1394.359,751.536c-1.875,0-3.396-1.52-3.396-3.396V645.243
						c0-1.875,1.52-3.396,3.396-3.396l0,0c1.876,0,3.396,1.52,3.396,3.396v102.898
						C1397.755,750.016,1396.234,751.536,1394.359,751.536z"/>
					<path style="fill:#A9CEEA;" d="M1456.806,748.278L1456.806,748.278c-1.875,0-3.396-1.52-3.396-3.396V641.984
						c0-1.875,1.52-3.396,3.396-3.396h0c1.875,0,3.396,1.52,3.396,3.396v102.898
						C1460.202,746.758,1458.681,748.278,1456.806,748.278z"/>
					<path style="fill:#A9CEEA;" d="M1409.016,760.587L1409.016,760.587c-1.875,0-3.396-1.52-3.396-3.396v-64.977
						c0-1.875,1.52-3.396,3.396-3.396l0,0c1.875,0,3.396,1.52,3.396,3.396v64.977
						C1412.412,759.066,1410.892,760.587,1409.016,760.587z"/>
					<path style="fill:#A9CEEA;" d="M1470.015,731.535L1470.015,731.535c-1.875,0-3.396-1.52-3.396-3.396v-64.977
						c0-1.875,1.52-3.396,3.396-3.396l0,0c1.875,0,3.396,1.52,3.396,3.396v64.977
						C1473.411,730.015,1471.891,731.535,1470.015,731.535z"/>
					<path style="fill:#A9CEEA;" d="M1423.678,728.006L1423.678,728.006c-1.875,0-3.396-1.52-3.396-3.396v-64.977
						c0-1.875,1.52-3.396,3.396-3.396l0,0c1.875,0,3.396,1.52,3.396,3.396v64.977
						C1427.074,726.485,1425.553,728.006,1423.678,728.006z"/>
					<path style="fill:#A9CEEA;" d="M1423.678,753.166L1423.678,753.166c-1.875,0-3.396-1.52-3.396-3.396v-11.4
						c0-1.875,1.52-3.396,3.396-3.396l0,0c1.875,0,3.396,1.52,3.396,3.396v11.4C1427.074,751.645,1425.553,753.166,1423.678,753.166
						z"/>
					<path style="fill:#A9CEEA;" d="M1438.068,704.656L1438.068,704.656c-1.875,0-3.396-1.52-3.396-3.396v-64.977
						c0-1.875,1.52-3.396,3.396-3.396l0,0c1.876,0,3.396,1.52,3.396,3.396v64.977
						C1441.464,703.136,1439.943,704.656,1438.068,704.656z"/>
					<path style="fill:#A9CEEA;" d="M1438.068,729.816L1438.068,729.816c-1.875,0-3.396-1.52-3.396-3.396v-11.4
						c0-1.875,1.52-3.396,3.396-3.396l0,0c1.876,0,3.396,1.52,3.396,3.396v11.4C1441.464,728.295,1439.943,729.816,1438.068,729.816
						z"/>
					<path style="fill:#A9CEEA;" d="M1438.068,760.496L1438.068,760.496c-1.875,0-3.396-1.52-3.396-3.396v-17.644
						c0-1.875,1.52-3.396,3.396-3.396l0,0c1.876,0,3.396,1.52,3.396,3.396v17.644
						C1441.464,758.976,1439.943,760.496,1438.068,760.496z"/>
				</g>
			</g>
		</g>
	</g>
	<g>
		<g>
			<g>
				<polygon style="fill:#A9CEEA;" points="436.648,1016.529 436.648,978.272 384.54,978.272 384.54,1016.529 361.454,1016.529 
					410.924,1067.318 459.735,1016.529 				"/>
			</g>
			<g>
				<g>
					<path style="fill:#A9CEEA;" d="M387.619,967.938L387.619,967.938c-1.139,0-2.063-0.923-2.063-2.062v-62.495
						c0-1.139,0.923-2.062,2.063-2.062l0,0c1.139,0,2.062,0.923,2.062,2.062v62.495
						C389.682,967.015,388.758,967.938,387.619,967.938z"/>
					<path style="fill:#A9CEEA;" d="M425.547,965.96L425.547,965.96c-1.139,0-2.062-0.923-2.062-2.062v-62.495
						c0-1.139,0.923-2.062,2.062-2.062l0,0c1.139,0,2.062,0.923,2.062,2.062v62.495C427.609,965.036,426.685,965.96,425.547,965.96z
						"/>
					<path style="fill:#A9CEEA;" d="M396.522,973.435L396.522,973.435c-1.139,0-2.062-0.923-2.062-2.062v-39.464
						c0-1.139,0.923-2.062,2.062-2.062l0,0c1.139,0,2.062,0.923,2.062,2.062v39.464
						C398.584,972.512,397.661,973.435,396.522,973.435z"/>
					<path style="fill:#A9CEEA;" d="M433.569,955.791L433.569,955.791c-1.139,0-2.062-0.923-2.062-2.062v-39.464
						c0-1.139,0.923-2.062,2.062-2.062l0,0c1.139,0,2.062,0.923,2.062,2.062v39.464
						C435.632,954.867,434.708,955.791,433.569,955.791z"/>
					<path style="fill:#A9CEEA;" d="M405.426,953.647L405.426,953.647c-1.139,0-2.062-0.923-2.062-2.062v-39.464
						c0-1.139,0.923-2.062,2.062-2.062l0,0c1.139,0,2.062,0.923,2.062,2.062v39.464
						C407.489,952.724,406.565,953.647,405.426,953.647z"/>
					<path style="fill:#A9CEEA;" d="M405.426,968.928L405.426,968.928c-1.139,0-2.062-0.923-2.062-2.062v-6.924
						c0-1.139,0.923-2.062,2.062-2.062l0,0c1.139,0,2.062,0.923,2.062,2.062v6.924C407.489,968.004,406.565,968.928,405.426,968.928
						z"/>
					<path style="fill:#A9CEEA;" d="M414.166,939.466L414.166,939.466c-1.139,0-2.062-0.923-2.062-2.062v-39.464
						c0-1.139,0.923-2.062,2.062-2.062l0,0c1.139,0,2.062,0.923,2.062,2.062v39.464
						C416.228,938.542,415.305,939.466,414.166,939.466z"/>
					<path style="fill:#A9CEEA;" d="M414.166,954.746L414.166,954.746c-1.139,0-2.062-0.923-2.062-2.063v-6.924
						c0-1.139,0.923-2.062,2.062-2.062l0,0c1.139,0,2.062,0.923,2.062,2.062v6.924C416.228,953.823,415.305,954.746,414.166,954.746
						z"/>
					<path style="fill:#A9CEEA;" d="M414.166,973.38L414.166,973.38c-1.139,0-2.062-0.923-2.062-2.062v-10.716
						c0-1.139,0.923-2.062,2.062-2.062l0,0c1.139,0,2.062,0.923,2.062,2.062v10.716C416.228,972.457,415.305,973.38,414.166,973.38z
						"/>
				</g>
			</g>
		</g>
	</g>
</g>
</svg>
