<svg width="110" height="110" viewBox="0 0 110 110" fill="none" xmlns="http://www.w3.org/2000/svg">
<g filter="url(#filter0_d_99_3263)">
<rect x="25.3335" y="25" width="59.52" height="59.52" rx="29.76" fill="white" fill-opacity="0.8" shape-rendering="crispEdges"/>
<path d="M64.8589 49.4747L66.2694 48.0797C66.5613 47.7878 66.7252 47.3919 66.7252 46.9792C66.7252 46.5664 66.5613 46.1705 66.2694 45.8787C65.9775 45.5868 65.5817 45.4228 65.1689 45.4228C64.7561 45.4228 64.3603 45.5868 64.0684 45.8787L62.6734 47.2892C60.5011 45.6087 57.8325 44.697 55.0861 44.697C52.3398 44.697 49.6711 45.6087 47.4989 47.2892L46.0884 45.8632C45.7945 45.5713 45.3966 45.4081 44.9824 45.4096C44.5682 45.411 44.1715 45.577 43.8796 45.8709C43.5878 46.1648 43.4246 46.5627 43.4261 46.9769C43.4275 47.3911 43.5935 47.7878 43.8874 48.0797L45.3134 49.4902C43.6131 51.6564 42.6905 54.3313 42.6939 57.0852C42.6888 59.0621 43.1565 61.0115 44.0579 62.771C44.9593 64.5304 46.2684 66.0488 47.8758 67.1996C49.4833 68.3503 51.3426 69.1001 53.2987 69.3863C55.2548 69.6725 57.2509 69.4868 59.1207 68.8448C60.9905 68.2028 62.6797 67.1231 64.0473 65.6957C65.415 64.2682 66.4216 62.5345 66.9831 60.639C67.5447 58.7435 67.6448 56.7412 67.2753 54.7991C66.9058 52.8571 66.0773 51.0315 64.8589 49.4747ZM55.0939 66.3852C53.2545 66.3852 51.4565 65.8397 49.9271 64.8178C48.3977 63.7959 47.2057 62.3435 46.5018 60.6441C45.7979 58.9448 45.6137 57.0748 45.9726 55.2708C46.3314 53.4668 47.2172 51.8097 48.5178 50.5091C49.8184 49.2084 51.4755 48.3227 53.2796 47.9639C55.0836 47.605 56.9535 47.7892 58.6528 48.4931C60.3522 49.197 61.8047 50.389 62.8266 51.9184C63.8485 53.4477 64.3939 55.2458 64.3939 57.0852C64.3939 59.5517 63.4141 61.9172 61.67 63.6613C59.9259 65.4053 57.5604 66.3852 55.0939 66.3852ZM51.9939 43.1352H58.1939C58.605 43.1352 58.9992 42.9719 59.2899 42.6812C59.5806 42.3905 59.7439 41.9962 59.7439 41.5852C59.7439 41.1741 59.5806 40.7798 59.2899 40.4891C58.9992 40.1985 58.605 40.0352 58.1939 40.0352H51.9939C51.5828 40.0352 51.1886 40.1985 50.8979 40.4891C50.6072 40.7798 50.4439 41.1741 50.4439 41.5852C50.4439 41.9962 50.6072 42.3905 50.8979 42.6812C51.1886 42.9719 51.5828 43.1352 51.9939 43.1352ZM56.6439 52.4352C56.6439 52.0241 56.4806 51.6298 56.1899 51.3391C55.8992 51.0485 55.505 50.8852 55.0939 50.8852C54.6828 50.8852 54.2886 51.0485 53.9979 51.3391C53.7072 51.6298 53.5439 52.0241 53.5439 52.4352V55.3647C53.1929 55.6786 52.9455 56.0917 52.8345 56.5492C52.7234 57.0068 52.7539 57.4873 52.9219 57.9272C53.09 58.3671 53.3876 58.7456 53.7754 59.0126C54.1632 59.2796 54.623 59.4226 55.0939 59.4226C55.5648 59.4226 56.0245 59.2796 56.4124 59.0126C56.8002 58.7456 57.0978 58.3671 57.2658 57.9272C57.4339 57.4873 57.4644 57.0068 57.3533 56.5492C57.2422 56.0917 56.9949 55.6786 56.6439 55.3647V52.4352Z" fill="#E47646"/>
</g>
<defs>
<filter id="filter0_d_99_3263" x="0.533497" y="0.200001" width="109.12" height="109.12" filterUnits="userSpaceOnUse" color-interpolation-filters="sRGB">
<feFlood flood-opacity="0" result="BackgroundImageFix"/>
<feColorMatrix in="SourceAlpha" type="matrix" values="0 0 0 0 0 0 0 0 0 0 0 0 0 0 0 0 0 0 127 0" result="hardAlpha"/>
<feOffset/>
<feGaussianBlur stdDeviation="12.4"/>
<feComposite in2="hardAlpha" operator="out"/>
<feColorMatrix type="matrix" values="0 0 0 0 0.723357 0 0 0 0 0.723357 0 0 0 0 0.723357 0 0 0 0.28 0"/>
<feBlend mode="normal" in2="BackgroundImageFix" result="effect1_dropShadow_99_3263"/>
<feBlend mode="normal" in="SourceGraphic" in2="effect1_dropShadow_99_3263" result="shape"/>
</filter>
</defs>
</svg>
