<svg width="110" height="110" viewBox="0 0 110 110" fill="none" xmlns="http://www.w3.org/2000/svg">
<g filter="url(#filter0_d_99_3251)">
<rect x="25.3335" y="25" width="59.52" height="59.52" rx="29.76" fill="white" fill-opacity="0.8" shape-rendering="crispEdges"/>
<path d="M70.1436 60.3089L63.1376 53.3184C63.2842 52.6044 63.3569 51.8773 63.3546 51.1484C63.3541 49.1499 62.8497 47.1838 61.8882 45.4318C60.9267 43.6799 59.539 42.1985 57.8535 41.1248C56.168 40.051 54.2389 39.4195 52.2447 39.2887C50.2505 39.1578 48.2555 39.5317 46.4441 40.3759C46.2146 40.4808 46.0142 40.64 45.8602 40.8399C45.7062 41.0398 45.6034 41.2743 45.5606 41.5229C45.518 41.7684 45.5352 42.0206 45.6107 42.258C45.6863 42.4955 45.8179 42.7112 45.9946 42.8869L52.7371 49.6139L49.9471 52.4039L43.2201 45.6614C43.0429 45.4875 42.8265 45.3587 42.5891 45.2859C42.3517 45.2131 42.1003 45.1983 41.8561 45.2429C41.609 45.2841 41.3756 45.3846 41.1758 45.5358C40.976 45.687 40.8159 45.8843 40.7091 46.1109C39.8621 47.9283 39.4884 49.9304 39.623 51.931C39.7575 53.9315 40.3959 55.8656 41.4787 57.5531C42.5615 59.2407 44.0535 60.627 45.8159 61.5831C47.5784 62.5392 49.5541 63.034 51.5591 63.0214C52.288 63.0238 53.0151 62.951 53.7291 62.8044L60.7196 69.8104C60.8637 69.9557 61.0351 70.071 61.224 70.1497C61.4129 70.2284 61.6155 70.2689 61.8201 70.2689C62.0247 70.2689 62.2273 70.2284 62.4162 70.1497C62.6051 70.071 62.7765 69.9557 62.9206 69.8104C63.0659 69.6663 63.1812 69.4949 63.2599 69.306C63.3386 69.1171 63.3791 68.9145 63.3791 68.7099C63.3791 68.5053 63.3386 68.3027 63.2599 68.1138C63.1812 67.9249 63.0659 67.7535 62.9206 67.6094L55.3256 60.0144C55.1358 59.8259 54.9004 59.6897 54.6424 59.6191C54.3844 59.5484 54.1124 59.5458 53.8531 59.6114C53.1047 59.8118 52.3338 59.916 51.5591 59.9214C50.3998 59.9316 49.2499 59.7124 48.1757 59.2763C47.1014 58.8402 46.1241 58.1958 45.3 57.3803C44.4759 56.5649 43.8213 55.5944 43.3739 54.5249C42.9265 53.4553 42.6951 52.3078 42.6931 51.1484C42.6911 50.6292 42.7326 50.1107 42.8171 49.5984L48.8931 55.6899C49.0372 55.8352 49.2086 55.9505 49.3975 56.0292C49.5864 56.1079 49.789 56.1484 49.9936 56.1484C50.1982 56.1484 50.4008 56.1079 50.5897 56.0292C50.7786 55.9505 50.95 55.8352 51.0941 55.6899L56.0231 50.7144C56.3025 50.4254 56.4586 50.0391 56.4586 49.6372C56.4586 49.2352 56.3025 48.8489 56.0231 48.5599L49.9936 42.4839C50.506 42.4002 51.0244 42.3588 51.5436 42.3599C53.8718 42.364 56.1032 43.2918 57.748 44.9395C59.3928 46.5872 60.3166 48.8202 60.3166 51.1484C60.3112 51.9232 60.207 52.694 60.0066 53.4424C59.941 53.7018 59.9436 53.9737 60.0142 54.2317C60.0849 54.4898 60.2211 54.7251 60.4096 54.9149L68.0046 62.5099C68.2965 62.8018 68.6923 62.9658 69.1051 62.9658C69.5179 62.9658 69.9137 62.8018 70.2056 62.5099C70.4975 62.218 70.6614 61.8222 70.6614 61.4094C70.6614 60.9967 70.4975 60.6008 70.2056 60.3089H70.1436Z" fill="#E47646"/>
</g>
<defs>
<filter id="filter0_d_99_3251" x="0.533497" y="0.200001" width="109.12" height="109.12" filterUnits="userSpaceOnUse" color-interpolation-filters="sRGB">
<feFlood flood-opacity="0" result="BackgroundImageFix"/>
<feColorMatrix in="SourceAlpha" type="matrix" values="0 0 0 0 0 0 0 0 0 0 0 0 0 0 0 0 0 0 127 0" result="hardAlpha"/>
<feOffset/>
<feGaussianBlur stdDeviation="12.4"/>
<feComposite in2="hardAlpha" operator="out"/>
<feColorMatrix type="matrix" values="0 0 0 0 0.723357 0 0 0 0 0.723357 0 0 0 0 0.723357 0 0 0 0.28 0"/>
<feBlend mode="normal" in2="BackgroundImageFix" result="effect1_dropShadow_99_3251"/>
<feBlend mode="normal" in="SourceGraphic" in2="effect1_dropShadow_99_3251" result="shape"/>
</filter>
</defs>
</svg>
