<svg width="110" height="110" viewBox="0 0 110 110" fill="none" xmlns="http://www.w3.org/2000/svg">
<g filter="url(#filter0_d_99_3324)">
<rect x="25" y="25" width="59.8" height="59.8" rx="29.9" fill="white" fill-opacity="0.8" shape-rendering="crispEdges"/>
<path d="M68.4914 51.3271L65.7352 50.4083L67.0331 47.8125C67.1646 47.5408 67.2087 47.2349 67.159 46.9372C67.1094 46.6394 66.9686 46.3643 66.756 46.15L63.6497 43.0437C63.4343 42.828 63.1566 42.6853 62.8557 42.6356C62.5549 42.5859 62.2461 42.6317 61.9727 42.7667L59.3768 44.0646L58.4581 41.3083C58.361 41.021 58.1769 40.7711 57.9312 40.5934C57.6855 40.4156 57.3905 40.3189 57.0872 40.3167H52.7122C52.4065 40.3159 52.1083 40.4112 51.8597 40.5891C51.6111 40.7671 51.4247 41.0187 51.3268 41.3083L50.4081 44.0646L47.8122 42.7667C47.5405 42.6351 47.2347 42.5911 46.9369 42.6407C46.6391 42.6903 46.3641 42.8312 46.1497 43.0437L43.0435 46.15C42.8278 46.3655 42.685 46.6432 42.6353 46.944C42.5856 47.2448 42.6315 47.5536 42.7664 47.8271L44.0643 50.4229L41.3081 51.3417C41.0208 51.4387 40.7709 51.6229 40.5931 51.8686C40.4154 52.1143 40.3187 52.4093 40.3164 52.7125V57.0875C40.3156 57.3932 40.4109 57.6915 40.5889 57.9401C40.7668 58.1887 41.0184 58.3751 41.3081 58.4729L44.0643 59.3917L42.7664 61.9875C42.6348 62.2592 42.5908 62.565 42.6405 62.8628C42.6901 63.1606 42.8309 63.4356 43.0435 63.65L46.1497 66.7562C46.3652 66.9719 46.6429 67.1147 46.9437 67.1644C47.2446 67.2141 47.5534 67.1683 47.8268 67.0333L50.4227 65.7354L51.3414 68.4917C51.4392 68.7813 51.6256 69.0329 51.8742 69.2108C52.1229 69.3888 52.4211 69.4841 52.7268 69.4833H57.1018C57.4076 69.4841 57.7058 69.3888 57.9544 69.2108C58.203 69.0329 58.3894 68.7813 58.4872 68.4917L59.406 65.7354L62.0018 67.0333C62.2718 67.1616 62.5747 67.2038 62.8694 67.1542C63.1642 67.1047 63.4366 66.9657 63.6497 66.7562L66.756 63.65C66.9717 63.4345 67.1144 63.1568 67.1641 62.856C67.2138 62.5552 67.168 62.2463 67.0331 61.9729L65.7352 59.3771L68.4914 58.4583C68.7787 58.3613 69.0286 58.1771 69.2064 57.9314C69.3841 57.6857 69.4808 57.3907 69.4831 57.0875V52.7125C69.4839 52.4068 69.3885 52.1085 69.2106 51.8599C69.0326 51.6113 68.7811 51.4249 68.4914 51.3271ZM66.5664 56.0375L64.8164 56.6208C64.414 56.7514 64.0448 56.9679 63.7344 57.2553C63.424 57.5428 63.1799 57.8944 63.019 58.2856C62.858 58.6769 62.7841 59.0985 62.8024 59.5211C62.8207 59.9438 62.9306 60.3574 63.1247 60.7333L63.956 62.3958L62.3518 64L60.7331 63.125C60.3591 62.9387 59.9494 62.8349 59.5319 62.8206C59.1143 62.8064 58.6985 62.882 58.3127 63.0424C57.9269 63.2028 57.5801 63.4443 57.2957 63.7504C57.0113 64.0565 56.796 64.4201 56.6643 64.8167L56.081 66.5667H53.7622L53.1789 64.8167C53.0484 64.4142 52.8319 64.045 52.5444 63.7347C52.2569 63.4243 51.9054 63.1801 51.5141 63.0192C51.1229 62.8583 50.7013 62.7844 50.2786 62.8026C49.8559 62.8209 49.4423 62.9309 49.0664 63.125L47.4039 63.9562L45.7997 62.3521L46.6747 60.7333C46.8688 60.3574 46.9788 59.9438 46.9971 59.5211C47.0154 59.0985 46.9415 58.6769 46.7805 58.2856C46.6196 57.8944 46.3755 57.5428 46.0651 57.2553C45.7547 56.9679 45.3855 56.7514 44.9831 56.6208L43.2331 56.0375V53.7625L44.9831 53.1792C45.3855 53.0486 45.7547 52.8321 46.0651 52.5446C46.3755 52.2572 46.6196 51.9056 46.7805 51.5144C46.9415 51.1231 47.0154 50.7015 46.9971 50.2789C46.9788 49.8562 46.8688 49.4426 46.6747 49.0667L45.8435 47.4479L47.4477 45.8437L49.0664 46.675C49.4423 46.8691 49.8559 46.9791 50.2786 46.9973C50.7013 47.0156 51.1229 46.9417 51.5141 46.7808C51.9054 46.6198 52.2569 46.3757 52.5444 46.0653C52.8319 45.7549 53.0484 45.3857 53.1789 44.9833L53.7622 43.2333H56.0372L56.6206 44.9833C56.7511 45.3857 56.9676 45.7549 57.2551 46.0653C57.5426 46.3757 57.8941 46.6198 58.2854 46.7808C58.6766 46.9417 59.0982 47.0156 59.5209 46.9973C59.9435 46.9791 60.3572 46.8691 60.7331 46.675L62.3956 45.8437L63.9997 47.4479L63.1247 49.0667C62.9384 49.4406 62.8346 49.8503 62.8204 50.2679C62.8061 50.6854 62.8818 51.1012 63.0422 51.487C63.2026 51.8728 63.444 52.2197 63.7501 52.5041C64.0562 52.7885 64.4199 53.0038 64.8164 53.1354L66.5664 53.7187V56.0375ZM54.8997 49.0667C53.746 49.0667 52.6182 49.4088 51.6589 50.0497C50.6996 50.6907 49.952 51.6018 49.5104 52.6677C49.0689 53.7336 48.9534 54.9065 49.1785 56.038C49.4036 57.1696 49.9591 58.209 50.775 59.0248C51.5908 59.8406 52.6302 60.3962 53.7617 60.6212C54.8933 60.8463 56.0662 60.7308 57.1321 60.2893C58.198 59.8478 59.109 59.1001 59.75 58.1408C60.391 57.1815 60.7331 56.0537 60.7331 54.9C60.7331 53.3529 60.1185 51.8692 59.0245 50.7752C57.9306 49.6812 56.4468 49.0667 54.8997 49.0667ZM54.8997 57.8167C54.3229 57.8167 53.759 57.6456 53.2793 57.3251C52.7997 57.0046 52.4258 56.5491 52.2051 56.0161C51.9843 55.4832 51.9266 54.8968 52.0391 54.331C52.1517 53.7652 52.4294 53.2455 52.8373 52.8376C53.2453 52.4297 53.765 52.1519 54.3307 52.0394C54.8965 51.9268 55.483 51.9846 56.0159 52.2053C56.5489 52.4261 57.0044 52.7999 57.3249 53.2796C57.6453 53.7592 57.8164 54.3231 57.8164 54.9C57.8164 55.6735 57.5091 56.4154 56.9621 56.9624C56.4152 57.5094 55.6733 57.8167 54.8997 57.8167Z" fill="#E47646"/>
</g>
<defs>
<filter id="filter0_d_99_3324" x="0.199999" y="0.199999" width="109.4" height="109.4" filterUnits="userSpaceOnUse" color-interpolation-filters="sRGB">
<feFlood flood-opacity="0" result="BackgroundImageFix"/>
<feColorMatrix in="SourceAlpha" type="matrix" values="0 0 0 0 0 0 0 0 0 0 0 0 0 0 0 0 0 0 127 0" result="hardAlpha"/>
<feOffset/>
<feGaussianBlur stdDeviation="12.4"/>
<feComposite in2="hardAlpha" operator="out"/>
<feColorMatrix type="matrix" values="0 0 0 0 0.723357 0 0 0 0 0.723357 0 0 0 0 0.723357 0 0 0 0.28 0"/>
<feBlend mode="normal" in2="BackgroundImageFix" result="effect1_dropShadow_99_3324"/>
<feBlend mode="normal" in="SourceGraphic" in2="effect1_dropShadow_99_3324" result="shape"/>
</filter>
</defs>
</svg>
