<svg width="110" height="110" viewBox="0 0 110 110" fill="none" xmlns="http://www.w3.org/2000/svg">
<g filter="url(#filter0_d_99_3276)">
<rect x="25" y="25" width="59.8" height="59.8" rx="29.9" fill="white" fill-opacity="0.8" shape-rendering="crispEdges"/>
<path d="M51.9831 56.3583C51.6946 56.3583 51.4127 56.4438 51.1729 56.6041C50.933 56.7643 50.7461 56.9921 50.6357 57.2586C50.5254 57.525 50.4965 57.8183 50.5528 58.1012C50.609 58.384 50.7479 58.6439 50.9519 58.8478C51.1558 59.0518 51.4157 59.1907 51.6986 59.247C51.9815 59.3032 52.2747 59.2744 52.5412 59.164C52.8076 59.0536 53.0354 58.8667 53.1956 58.6269C53.3559 58.387 53.4414 58.1051 53.4414 57.8167C53.4414 57.4299 53.2878 57.0589 53.0143 56.7855C52.7408 56.512 52.3698 56.3583 51.9831 56.3583ZM51.9831 50.525C51.6946 50.525 51.4127 50.6105 51.1729 50.7708C50.933 50.931 50.7461 51.1588 50.6357 51.4252C50.5254 51.6917 50.4965 51.9849 50.5528 52.2678C50.609 52.5507 50.7479 52.8106 50.9519 53.0145C51.1558 53.2185 51.4157 53.3574 51.6986 53.4136C51.9815 53.4699 52.2747 53.441 52.5412 53.3306C52.8076 53.2203 53.0354 53.0333 53.1956 52.7935C53.3559 52.5537 53.4414 52.2717 53.4414 51.9833C53.4414 51.5965 53.2878 51.2256 53.0143 50.9521C52.7408 50.6786 52.3698 50.525 51.9831 50.525ZM57.8164 50.525C57.528 50.525 57.246 50.6105 57.0062 50.7708C56.7664 50.931 56.5795 51.1588 56.4691 51.4252C56.3587 51.6917 56.3298 51.9849 56.3861 52.2678C56.4424 52.5507 56.5813 52.8106 56.7852 53.0145C56.9892 53.2185 57.249 53.3574 57.5319 53.4136C57.8148 53.4699 58.108 53.441 58.3745 53.3306C58.641 53.2203 58.8687 53.0333 59.029 52.7935C59.1892 52.5537 59.2747 52.2717 59.2747 51.9833C59.2747 51.5965 59.1211 51.2256 58.8476 50.9521C58.5741 50.6786 58.2032 50.525 57.8164 50.525ZM68.0247 56.3583C68.4115 56.3583 68.7824 56.2047 69.0559 55.9312C69.3294 55.6577 69.4831 55.2868 69.4831 54.9C69.4831 54.5132 69.3294 54.1423 69.0559 53.8688C68.7824 53.5953 68.4115 53.4416 68.0247 53.4416H65.1081V50.525H68.0247C68.4115 50.525 68.7824 50.3713 69.0559 50.0978C69.3294 49.8244 69.4831 49.4534 69.4831 49.0667C69.4831 48.6799 69.3294 48.3089 69.0559 48.0355C68.7824 47.762 68.4115 47.6083 68.0247 47.6083H64.8456C64.6278 46.9967 64.2767 46.4412 63.8176 45.9821C63.3585 45.5231 62.803 45.1719 62.1914 44.9541V41.775C62.1914 41.3882 62.0378 41.0173 61.7643 40.7438C61.4908 40.4703 61.1198 40.3167 60.7331 40.3167C60.3463 40.3167 59.9754 40.4703 59.7019 40.7438C59.4284 41.0173 59.2747 41.3882 59.2747 41.775V44.6917H56.3581V41.775C56.3581 41.3882 56.2044 41.0173 55.9309 40.7438C55.6574 40.4703 55.2865 40.3167 54.8997 40.3167C54.513 40.3167 54.142 40.4703 53.8685 40.7438C53.5951 41.0173 53.4414 41.3882 53.4414 41.775V44.6917H50.5247V41.775C50.5247 41.3882 50.3711 41.0173 50.0976 40.7438C49.8241 40.4703 49.4532 40.3167 49.0664 40.3167C48.6796 40.3167 48.3087 40.4703 48.0352 40.7438C47.7617 41.0173 47.6081 41.3882 47.6081 41.775V44.9541C46.9965 45.1719 46.441 45.5231 45.9819 45.9821C45.5228 46.4412 45.1717 46.9967 44.9539 47.6083H41.7747C41.388 47.6083 41.017 47.762 40.7435 48.0355C40.4701 48.3089 40.3164 48.6799 40.3164 49.0667C40.3164 49.4534 40.4701 49.8244 40.7435 50.0978C41.017 50.3713 41.388 50.525 41.7747 50.525H44.6914V53.4416H41.7747C41.388 53.4416 41.017 53.5953 40.7435 53.8688C40.4701 54.1423 40.3164 54.5132 40.3164 54.9C40.3164 55.2868 40.4701 55.6577 40.7435 55.9312C41.017 56.2047 41.388 56.3583 41.7747 56.3583H44.6914V59.275H41.7747C41.388 59.275 41.017 59.4286 40.7435 59.7021C40.4701 59.9756 40.3164 60.3465 40.3164 60.7333C40.3164 61.1201 40.4701 61.491 40.7435 61.7645C41.017 62.038 41.388 62.1916 41.7747 62.1916H44.9539C45.1717 62.8033 45.5228 63.3588 45.9819 63.8178C46.441 64.2769 46.9965 64.6281 47.6081 64.8458V68.025C47.6081 68.4118 47.7617 68.7827 48.0352 69.0562C48.3087 69.3297 48.6796 69.4833 49.0664 69.4833C49.4532 69.4833 49.8241 69.3297 50.0976 69.0562C50.3711 68.7827 50.5247 68.4118 50.5247 68.025V65.1083H53.4414V68.025C53.4414 68.4118 53.5951 68.7827 53.8685 69.0562C54.142 69.3297 54.513 69.4833 54.8997 69.4833C55.2865 69.4833 55.6574 69.3297 55.9309 69.0562C56.2044 68.7827 56.3581 68.4118 56.3581 68.025V65.1083H59.2747V68.025C59.2747 68.4118 59.4284 68.7827 59.7019 69.0562C59.9754 69.3297 60.3463 69.4833 60.7331 69.4833C61.1198 69.4833 61.4908 69.3297 61.7643 69.0562C62.0378 68.7827 62.1914 68.4118 62.1914 68.025V64.8458C62.803 64.6281 63.3585 64.2769 63.8176 63.8178C64.2767 63.3588 64.6278 62.8033 64.8456 62.1916H68.0247C68.4115 62.1916 68.7824 62.038 69.0559 61.7645C69.3294 61.491 69.4831 61.1201 69.4831 60.7333C69.4831 60.3465 69.3294 59.9756 69.0559 59.7021C68.7824 59.4286 68.4115 59.275 68.0247 59.275H65.1081V56.3583H68.0247ZM62.1914 60.7333C62.1914 61.1201 62.0378 61.491 61.7643 61.7645C61.4908 62.038 61.1198 62.1916 60.7331 62.1916H49.0664C48.6796 62.1916 48.3087 62.038 48.0352 61.7645C47.7617 61.491 47.6081 61.1201 47.6081 60.7333V49.0667C47.6081 48.6799 47.7617 48.3089 48.0352 48.0355C48.3087 47.762 48.6796 47.6083 49.0664 47.6083H60.7331C61.1198 47.6083 61.4908 47.762 61.7643 48.0355C62.0378 48.3089 62.1914 48.6799 62.1914 49.0667V60.7333ZM57.8164 56.3583C57.528 56.3583 57.246 56.4438 57.0062 56.6041C56.7664 56.7643 56.5795 56.9921 56.4691 57.2586C56.3587 57.525 56.3298 57.8183 56.3861 58.1012C56.4424 58.384 56.5813 58.6439 56.7852 58.8478C56.9892 59.0518 57.249 59.1907 57.5319 59.247C57.8148 59.3032 58.108 59.2744 58.3745 59.164C58.641 59.0536 58.8687 58.8667 59.029 58.6269C59.1892 58.387 59.2747 58.1051 59.2747 57.8167C59.2747 57.4299 59.1211 57.0589 58.8476 56.7855C58.5741 56.512 58.2032 56.3583 57.8164 56.3583Z" fill="#E47646"/>
</g>
<defs>
<filter id="filter0_d_99_3276" x="0.199999" y="0.199999" width="109.4" height="109.4" filterUnits="userSpaceOnUse" color-interpolation-filters="sRGB">
<feFlood flood-opacity="0" result="BackgroundImageFix"/>
<feColorMatrix in="SourceAlpha" type="matrix" values="0 0 0 0 0 0 0 0 0 0 0 0 0 0 0 0 0 0 127 0" result="hardAlpha"/>
<feOffset/>
<feGaussianBlur stdDeviation="12.4"/>
<feComposite in2="hardAlpha" operator="out"/>
<feColorMatrix type="matrix" values="0 0 0 0 0.723357 0 0 0 0 0.723357 0 0 0 0 0.723357 0 0 0 0.28 0"/>
<feBlend mode="normal" in2="BackgroundImageFix" result="effect1_dropShadow_99_3276"/>
<feBlend mode="normal" in="SourceGraphic" in2="effect1_dropShadow_99_3276" result="shape"/>
</filter>
</defs>
</svg>
