<svg width="76" height="75" viewBox="0 0 76 75" fill="none" xmlns="http://www.w3.org/2000/svg">
<g clip-path="url(#clip0_97_2682)">
<path fill-rule="evenodd" clip-rule="evenodd" d="M37.9999 74.8476C32.9542 74.8476 28.0609 73.8567 23.4572 71.9055C19.0212 70.0305 15.0121 67.3323 11.5822 63.9025C8.15234 60.4726 5.46942 56.4787 3.57917 52.0427C1.6432 47.4391 0.652344 42.5458 0.652344 37.5C0.652344 32.4543 1.6432 27.561 3.57917 22.9573C5.46942 18.5214 8.15234 14.5122 11.5822 11.0823C15.0121 7.65247 19.006 4.96954 23.4572 3.0793C28.0609 1.14332 32.9542 0.152466 37.9999 0.152466C43.0456 0.152466 47.9389 1.14332 52.5426 3.0793C56.9786 4.96954 60.9725 7.65247 64.4023 11.0823C67.8322 14.5122 70.5304 18.5061 72.4054 22.9573C74.3566 27.561 75.3475 32.4543 75.3475 37.5C75.3475 42.5458 74.3566 47.4391 72.4054 52.0427C70.5304 56.4787 67.8322 60.4726 64.4023 63.9025C60.9725 67.3323 56.9786 70.0305 52.5426 71.9055C47.9389 73.8567 43.0456 74.8476 37.9999 74.8476ZM37.9999 1.12808C17.9542 1.12808 1.62795 17.4543 1.62795 37.5C1.62795 57.5458 17.9542 73.8567 37.9999 73.8567C58.0456 73.8567 74.3566 57.5458 74.3566 37.5C74.3566 17.4543 58.0456 1.12808 37.9999 1.12808Z" fill="white"/>
<path d="M54 34H52.486L51.072 30.586L52.142 29.514C52.5169 29.1389 52.7276 28.6303 52.7276 28.1C52.7276 27.5697 52.5169 27.0611 52.142 26.686L49.314 23.858C48.9389 23.4831 48.4303 23.2724 47.9 23.2724C47.3697 23.2724 46.8611 23.4831 46.486 23.858L45.414 24.928L42 23.514V22C42 21.4696 41.7893 20.9609 41.4142 20.5858C41.0391 20.2107 40.5304 20 40 20H36C35.4696 20 34.9609 20.2107 34.5858 20.5858C34.2107 20.9609 34 21.4696 34 22V23.514L30.586 24.928L29.514 23.858C29.1389 23.4831 28.6303 23.2724 28.1 23.2724C27.5697 23.2724 27.0611 23.4831 26.686 23.858L23.858 26.686C23.4831 27.0611 23.2724 27.5697 23.2724 28.1C23.2724 28.6303 23.4831 29.1389 23.858 29.514L24.93 30.586L23.514 34H22C21.4696 34 20.9609 34.2107 20.5858 34.5858C20.2107 34.9609 20 35.4696 20 36V40C20 40.5304 20.2107 41.0391 20.5858 41.4142C20.9609 41.7893 21.4696 42 22 42H23.514C24.196 43.646 24.248 43.768 24.928 45.414L23.858 46.486C23.4831 46.8611 23.2724 47.3697 23.2724 47.9C23.2724 48.4303 23.4831 48.9389 23.858 49.314L26.686 52.142C27.0611 52.5169 27.5697 52.7276 28.1 52.7276C28.6303 52.7276 29.1389 52.5169 29.514 52.142L30.586 51.072L34 52.486V54C34 54.5304 34.2107 55.0391 34.5858 55.4142C34.9609 55.7893 35.4696 56 36 56H40C40.5304 56 41.0391 55.7893 41.4142 55.4142C41.7893 55.0391 42 54.5304 42 54V52.486L45.414 51.07L46.486 52.142C46.8611 52.5169 47.3697 52.7276 47.9 52.7276C48.4303 52.7276 48.9389 52.5169 49.314 52.142L52.142 49.314C52.5169 48.9389 52.7276 48.4303 52.7276 47.9C52.7276 47.3697 52.5169 46.8611 52.142 46.486L51.072 45.414L52.486 42H54C54.5304 42 55.0391 41.7893 55.4142 41.4142C55.7893 41.0391 56 40.5304 56 40V36C56 35.4696 55.7893 34.9609 55.4142 34.5858C55.0391 34.2107 54.5304 34 54 34ZM38 46C36.4177 46 34.871 45.5308 33.5554 44.6518C32.2398 43.7727 31.2145 42.5233 30.609 41.0615C30.0035 39.5997 29.845 37.9911 30.1537 36.4393C30.4624 34.8874 31.2243 33.462 32.3431 32.3431C33.462 31.2243 34.8874 30.4624 36.4393 30.1537C37.9911 29.845 39.5997 30.0035 41.0615 30.609C42.5233 31.2145 43.7727 32.2398 44.6518 33.5554C45.5308 34.871 46 36.4177 46 38C46 40.1217 45.1571 42.1566 43.6569 43.6569C42.1566 45.1571 40.1217 46 38 46Z" fill="white"/>
</g>
<defs>
<clipPath id="clip0_97_2682">
<rect width="75" height="75" fill="white" transform="translate(0.5)"/>
</clipPath>
</defs>
</svg>
