<svg width="112" height="111" viewBox="0 0 112 111" fill="none" xmlns="http://www.w3.org/2000/svg">
<g filter="url(#filter0_d_99_3260)">
<rect x="25.667" y="25" width="60.76" height="60.76" rx="30.38" fill="white" fill-opacity="0.8" shape-rendering="crispEdges"/>
<path d="M60.9754 52.8178L56.81 56.9832C56.5606 56.9169 56.3039 56.8816 56.0459 56.8783C55.2511 56.8783 54.4889 57.194 53.9269 57.756C53.3649 58.318 53.0492 59.0802 53.0492 59.875C53.0526 60.133 53.0878 60.3897 53.1541 60.6391L51.9854 61.8078C51.845 61.9471 51.7335 62.1128 51.6574 62.2954C51.5814 62.478 51.5422 62.6738 51.5422 62.8716C51.5422 63.0694 51.5814 63.2653 51.6574 63.4479C51.7335 63.6305 51.845 63.7962 51.9854 63.9355C52.1247 64.0759 52.2904 64.1874 52.473 64.2634C52.6556 64.3395 52.8514 64.3787 53.0492 64.3787C53.247 64.3787 53.4429 64.3395 53.6254 64.2634C53.808 64.1874 53.9737 64.0759 54.113 63.9355L55.2817 62.7668C55.5311 62.8331 55.7878 62.8683 56.0459 62.8716C56.8406 62.8716 57.6029 62.5559 58.1648 61.9939C58.7268 61.432 59.0425 60.6697 59.0425 59.875C59.0392 59.6169 59.004 59.3602 58.9377 59.1108L63.103 54.9455C63.3852 54.6633 63.5437 54.2807 63.5437 53.8816C63.5437 53.4826 63.3852 53.1 63.103 52.8178C62.8209 52.5357 62.4382 52.3772 62.0392 52.3772C61.6402 52.3772 61.2575 52.5357 60.9754 52.8178ZM56.0459 43.3933C54.0782 43.3933 52.1299 43.7809 50.312 44.5338C48.4941 45.2868 46.8424 46.3905 45.4511 47.7818C42.6411 50.5917 41.0625 54.4028 41.0625 58.3766C41.0552 61.3442 41.9372 64.2459 43.5947 66.7074C43.8173 67.0372 44.1617 67.2651 44.5523 67.341C44.9429 67.4169 45.3476 67.3345 45.6774 67.1119C46.0072 66.8894 46.2352 66.5449 46.311 66.1544C46.3869 65.7638 46.3045 65.3591 46.082 65.0292C44.8751 63.2246 44.181 61.126 44.0738 58.9576C43.9667 56.7892 44.4504 54.6324 45.4735 52.7175C46.4965 50.8026 48.0204 49.2015 49.8825 48.0852C51.7445 46.9688 53.8748 46.3792 56.0459 46.3792C58.2169 46.3792 60.3472 46.9688 62.2093 48.0852C64.0713 49.2015 65.5952 50.8026 66.6183 52.7175C67.6413 54.6324 68.1251 56.7892 68.0179 58.9576C67.9108 61.126 67.2167 63.2246 66.0098 65.0292C65.8994 65.1925 65.8222 65.3759 65.7828 65.569C65.7433 65.7621 65.7424 65.9611 65.78 66.1545C65.8175 66.348 65.8929 66.5321 66.0018 66.6964C66.1106 66.8607 66.2508 67.0019 66.4143 67.1119C66.6624 67.2786 66.9546 67.3673 67.2534 67.3666C67.4988 67.367 67.7406 67.3071 67.9575 67.1921C68.1743 67.0772 68.3596 66.9107 68.497 66.7074C70.1546 64.2459 71.0366 61.3442 71.0292 58.3766C71.0292 54.4028 69.4506 50.5917 66.6407 47.7818C63.8308 44.9719 60.0197 43.3933 56.0459 43.3933Z" fill="#E47646"/>
</g>
<defs>
<filter id="filter0_d_99_3260" x="0.867016" y="0.200024" width="110.36" height="110.36" filterUnits="userSpaceOnUse" color-interpolation-filters="sRGB">
<feFlood flood-opacity="0" result="BackgroundImageFix"/>
<feColorMatrix in="SourceAlpha" type="matrix" values="0 0 0 0 0 0 0 0 0 0 0 0 0 0 0 0 0 0 127 0" result="hardAlpha"/>
<feOffset/>
<feGaussianBlur stdDeviation="12.4"/>
<feComposite in2="hardAlpha" operator="out"/>
<feColorMatrix type="matrix" values="0 0 0 0 0.723357 0 0 0 0 0.723357 0 0 0 0 0.723357 0 0 0 0.28 0"/>
<feBlend mode="normal" in2="BackgroundImageFix" result="effect1_dropShadow_99_3260"/>
<feBlend mode="normal" in="SourceGraphic" in2="effect1_dropShadow_99_3260" result="shape"/>
</filter>
</defs>
</svg>
