<svg width="76" height="75" viewBox="0 0 76 75" fill="none" xmlns="http://www.w3.org/2000/svg">
<g clip-path="url(#clip0_97_2682)">
<path fill-rule="evenodd" clip-rule="evenodd" d="M37.9999 74.8476C32.9542 74.8476 28.0609 73.8567 23.4572 71.9055C19.0212 70.0305 15.0121 67.3323 11.5822 63.9025C8.15234 60.4726 5.46942 56.4787 3.57917 52.0427C1.6432 47.4391 0.652344 42.5458 0.652344 37.5C0.652344 32.4543 1.6432 27.561 3.57917 22.9573C5.46942 18.5214 8.15234 14.5122 11.5822 11.0823C15.0121 7.65247 19.006 4.96954 23.4572 3.0793C28.0609 1.14332 32.9542 0.152466 37.9999 0.152466C43.0456 0.152466 47.9389 1.14332 52.5426 3.0793C56.9786 4.96954 60.9725 7.65247 64.4023 11.0823C67.8322 14.5122 70.5304 18.5061 72.4054 22.9573C74.3566 27.561 75.3475 32.4543 75.3475 37.5C75.3475 42.5458 74.3566 47.4391 72.4054 52.0427C70.5304 56.4787 67.8322 60.4726 64.4023 63.9025C60.9725 67.3323 56.9786 70.0305 52.5426 71.9055C47.9389 73.8567 43.0456 74.8476 37.9999 74.8476ZM37.9999 1.12808C17.9542 1.12808 1.62795 17.4543 1.62795 37.5C1.62795 57.5458 17.9542 73.8567 37.9999 73.8567C58.0456 73.8567 74.3566 57.5458 74.3566 37.5C74.3566 17.4543 58.0456 1.12808 37.9999 1.12808Z" fill="white"/>
<path d="M28.868 33.5374H23.5921C23.1257 33.5374 22.6784 33.7083 22.3486 34.0125C22.0188 34.3166 21.8335 34.7292 21.8335 35.1593V49.7562C21.8335 50.6165 22.2041 51.4416 22.8637 52.0499C23.5233 52.6582 24.4179 53 25.3507 53H27.1094C28.0422 53 28.9368 52.6582 29.5964 52.0499C30.256 51.4416 30.6266 50.6165 30.6266 49.7562V35.1593C30.6266 34.7292 30.4413 34.3166 30.1115 34.0125C29.7817 33.7083 29.3344 33.5374 28.868 33.5374Z" fill="white"/>
<path d="M51.6492 33.5374H44.6956L47.4355 26.239C47.5254 25.5711 47.3592 24.8953 46.9657 24.3285C46.5721 23.7618 45.976 23.3399 45.2807 23.1358C44.5853 22.9317 43.8345 22.9584 43.1581 23.2111C42.4818 23.4639 41.9227 23.9268 41.5775 24.5198C39.5449 27.719 37.0434 30.6443 34.1438 33.213V48.7604H34.3443C38.0533 49.706 42.9633 51.3781 47.5094 51.3781C49.9714 51.3781 50.3091 50.525 50.8156 49.2421L54.9554 37.8889C55.1484 37.3989 55.2106 36.8732 55.1365 36.3564C55.0625 35.8395 54.8545 35.3467 54.5301 34.9197C54.2057 34.4928 53.7745 34.1442 53.273 33.9036C52.7715 33.663 52.2145 33.5374 51.6492 33.5374Z" fill="white"/>
</g>
<defs>
<clipPath id="clip0_97_2682">
<rect width="75" height="75" fill="white" transform="translate(0.5)"/>
</clipPath>
</defs>
</svg>
