<svg width="76" height="75" viewBox="0 0 76 75" fill="none" xmlns="http://www.w3.org/2000/svg">
<g clip-path="url(#clip0_97_2669)">
<path fill-rule="evenodd" clip-rule="evenodd" d="M37.6664 74.8476C32.6207 74.8476 27.7274 73.8567 23.1237 71.9055C18.6878 70.0305 14.6786 67.3323 11.2487 63.9025C7.81885 60.4726 5.13592 56.4787 3.24568 52.0427C1.3097 47.4391 0.318848 42.5458 0.318848 37.5C0.318848 32.4543 1.3097 27.561 3.24568 22.9573C5.13592 18.5214 7.81885 14.5122 11.2487 11.0823C14.6786 7.65247 18.6725 4.96954 23.1237 3.0793C27.7274 1.14332 32.6207 0.152466 37.6664 0.152466C42.7121 0.152466 47.6054 1.14332 52.2091 3.0793C56.6451 4.96954 60.639 7.65247 64.0689 11.0823C67.4987 14.5122 70.1969 18.5061 72.0719 22.9573C74.0231 27.561 75.014 32.4543 75.014 37.5C75.014 42.5458 74.0231 47.4391 72.0719 52.0427C70.1969 56.4787 67.4987 60.4726 64.0689 63.9025C60.639 67.3323 56.6451 70.0305 52.2091 71.9055C47.6054 73.8567 42.7121 74.8476 37.6664 74.8476ZM37.6664 1.12808C17.6207 1.12808 1.29446 17.4543 1.29446 37.5C1.29446 57.5458 17.6207 73.8567 37.6664 73.8567C57.7121 73.8567 74.0231 57.5458 74.0231 37.5C74.0231 17.4543 57.7121 1.12808 37.6664 1.12808Z" fill="white"/>
<path d="M54.1746 40.0557C50.5463 43.5235 44.2713 45.2583 37.9963 45.2583C31.7213 45.2583 25.4463 43.5235 21.8179 40.0557L21.3296 39.589V49.8141C21.3296 50.6591 21.6808 51.4694 22.3059 52.0669C22.931 52.6643 23.7789 53 24.6629 53H51.3296C52.2136 53 53.0615 52.6643 53.6866 52.0669C54.3117 51.4694 54.6629 50.6591 54.6629 49.8141V39.589L54.1746 40.0557Z" fill="white"/>
<path d="M51.3296 29.3718H46.3296V27.7788C46.3296 26.5114 45.8028 25.2959 44.8651 24.3997C43.9274 23.5035 42.6557 23 41.3296 23H34.6629C33.3368 23 32.0651 23.5035 31.1274 24.3997C30.1897 25.2959 29.6629 26.5114 29.6629 27.7788V29.3718H24.6629C23.7789 29.3718 22.931 29.7075 22.3059 30.3049C21.6808 30.9024 21.3296 31.7127 21.3296 32.5577V35.0841L24.1746 37.8033C30.2463 43.6016 45.7463 43.6016 51.8179 37.8033L54.6629 35.0841V32.5577C54.6629 31.7127 54.3117 30.9024 53.6866 30.3049C53.0615 29.7075 52.2136 29.3718 51.3296 29.3718ZM37.9963 38.9295C37.6666 38.9295 37.3444 38.8361 37.0703 38.661C36.7962 38.486 36.5826 38.2372 36.4565 37.9461C36.3303 37.6551 36.2973 37.3348 36.3616 37.0258C36.4259 36.7168 36.5847 36.4329 36.8177 36.2102C37.0508 35.9874 37.3478 35.8357 37.6711 35.7742C37.9944 35.7127 38.3295 35.7443 38.6341 35.8648C38.9386 35.9854 39.1989 36.1896 39.382 36.4515C39.5652 36.7135 39.6629 37.0215 39.6629 37.3365C39.6629 37.759 39.4873 38.1642 39.1748 38.4629C38.8622 38.7617 38.4383 38.9295 37.9963 38.9295ZM42.9963 29.3718H32.9963V27.7788C32.9963 27.3564 33.1719 26.9512 33.4844 26.6525C33.797 26.3537 34.2209 26.1859 34.6629 26.1859H41.3296C41.7716 26.1859 42.1955 26.3537 42.5081 26.6525C42.8207 26.9512 42.9963 27.3564 42.9963 27.7788V29.3718Z" fill="white"/>
</g>
<defs>
<clipPath id="clip0_97_2669">
<rect width="75" height="75" fill="white" transform="translate(0.166504)"/>
</clipPath>
</defs>
</svg>
