<svg width="76" height="75" viewBox="0 0 76 75" fill="none" xmlns="http://www.w3.org/2000/svg">
<g clip-path="url(#clip0_97_2645)">
<path fill-rule="evenodd" clip-rule="evenodd" d="M37.9999 74.8476C32.9542 74.8476 28.0609 73.8567 23.4572 71.9055C19.0212 70.0305 15.0121 67.3323 11.5822 63.9025C8.15234 60.4726 5.46942 56.4787 3.57917 52.0427C1.6432 47.4391 0.652344 42.5458 0.652344 37.5C0.652344 32.4543 1.6432 27.561 3.57917 22.9573C5.46942 18.5214 8.15234 14.5122 11.5822 11.0823C15.0121 7.65247 19.006 4.96954 23.4572 3.0793C28.0609 1.14332 32.9542 0.152466 37.9999 0.152466C43.0456 0.152466 47.9389 1.14332 52.5426 3.0793C56.9786 4.96954 60.9725 7.65247 64.4023 11.0823C67.8322 14.5122 70.5304 18.5061 72.4054 22.9573C74.3566 27.561 75.3475 32.4543 75.3475 37.5C75.3475 42.5458 74.3566 47.4391 72.4054 52.0427C70.5304 56.4787 67.8322 60.4726 64.4023 63.9025C60.9725 67.3323 56.9786 70.0305 52.5426 71.9055C47.9389 73.8567 43.0456 74.8476 37.9999 74.8476ZM37.9999 1.12808C17.9542 1.12808 1.62795 17.4543 1.62795 37.5C1.62795 57.5458 17.9542 73.8567 37.9999 73.8567C58.0456 73.8567 74.3566 57.5458 74.3566 37.5C74.3566 17.4543 58.0456 1.12808 37.9999 1.12808Z" fill="white"/>
<path d="M32.1668 37.1228C36.309 37.1228 39.6668 33.5883 39.6668 29.2281C39.6668 24.868 36.309 21.3334 32.1668 21.3334C28.0247 21.3334 24.6668 24.868 24.6668 29.2281C24.6668 33.5883 28.0247 37.1228 32.1668 37.1228Z" fill="white"/>
<path d="M34.6668 38.8772H29.6668C27.4575 38.88 25.3394 39.8051 23.7772 41.4496C22.215 43.094 21.3361 45.3236 21.3335 47.6492V52.9123C21.3335 53.3776 21.5091 53.8239 21.8217 54.1529C22.1342 54.4819 22.5581 54.6667 23.0002 54.6667H41.3335C41.7755 54.6667 42.1994 54.4819 42.512 54.1529C42.8246 53.8239 43.0002 53.3776 43.0002 52.9123V47.6492C42.9975 45.3236 42.1187 43.094 40.5565 41.4496C38.9942 39.8051 36.8762 38.88 34.6668 38.8772Z" fill="white"/>
<path d="M38.2818 33.7685C39.1807 32.4434 39.6649 30.8563 39.6668 29.2281C39.6633 28.65 39.5995 28.0741 39.4768 27.5106C38.7981 28.3662 38.3332 29.3869 38.1245 30.4798C37.9158 31.5727 37.9699 32.7032 38.2818 33.7685Z" fill="white"/>
<path d="M44.6668 24.8421C43.8686 24.8486 43.078 25.0073 42.3335 25.3106C43.019 27.2529 43.1837 29.3563 42.8095 31.3905C42.4353 33.4247 41.5366 35.3114 40.2118 36.8439C40.9594 37.2801 41.6597 37.8007 42.3002 38.3965C43.0543 38.7084 43.8566 38.8713 44.6668 38.8772C46.4349 38.8772 48.1306 38.1379 49.3809 36.8218C50.6311 35.5058 51.3335 33.7209 51.3335 31.8597C51.3335 29.9985 50.6311 28.2136 49.3809 26.8975C48.1306 25.5815 46.4349 24.8421 44.6668 24.8421Z" fill="white"/>
<path d="M46.3335 40.6316H44.2052C45.586 42.6834 46.3295 45.1348 46.3335 47.6492V52.9123C46.3281 53.5114 46.2244 54.1049 46.0268 54.6667H53.0002C53.4422 54.6667 53.8661 54.4819 54.1787 54.1529C54.4912 53.8239 54.6668 53.3776 54.6668 52.9123V49.4036C54.6642 47.0779 53.7854 44.8484 52.2231 43.2039C50.6609 41.5595 48.5428 40.6344 46.3335 40.6316Z" fill="white"/>
</g>
<defs>
<clipPath id="clip0_97_2645">
<rect width="75" height="75" fill="white" transform="translate(0.5)"/>
</clipPath>
</defs>
</svg>
