<svg width="110" height="110" viewBox="0 0 110 110" fill="none" xmlns="http://www.w3.org/2000/svg">
<g filter="url(#filter0_d_99_3318)">
<rect x="25" y="25" width="59.8" height="59.8" rx="29.9" fill="white" fill-opacity="0.8" shape-rendering="crispEdges"/>
<path d="M65.1081 40.3167H44.6914C43.5311 40.3167 42.4183 40.7776 41.5978 41.5981C40.7773 42.4185 40.3164 43.5313 40.3164 44.6917V59.275C40.3164 60.4353 40.7773 61.5481 41.5978 62.3686C42.4183 63.189 43.5311 63.65 44.6914 63.65H48.5414L47.6956 65.1083C47.4396 65.5517 47.3048 66.0547 47.3048 66.5667C47.3048 67.0786 47.4396 67.5816 47.6956 68.025C47.9538 68.4722 48.3261 68.8429 48.7745 69.0991C49.2229 69.3554 49.7312 69.4879 50.2477 69.4833H59.6685C60.18 69.4828 60.6823 69.3478 61.1251 69.0918C61.5679 68.8358 61.9357 68.4679 62.1914 68.025C62.4474 67.5816 62.5822 67.0786 62.5822 66.5667C62.5822 66.0547 62.4474 65.5517 62.1914 65.1083L61.331 63.65H65.1081C66.2684 63.65 67.3812 63.189 68.2017 62.3686C69.0221 61.5481 69.4831 60.4353 69.4831 59.275V44.6917C69.4831 43.5313 69.0221 42.4185 68.2017 41.5981C67.3812 40.7776 66.2684 40.3167 65.1081 40.3167ZM50.1893 66.5667L51.9831 63.65H57.8164L59.5664 66.5667H50.1893ZM66.5664 59.275C66.5664 59.6618 66.4128 60.0327 66.1393 60.3062C65.8658 60.5797 65.4948 60.7333 65.1081 60.7333H44.6914C44.3046 60.7333 43.9337 60.5797 43.6602 60.3062C43.3867 60.0327 43.2331 59.6618 43.2331 59.275V57.8167H66.5664V59.275ZM66.5664 54.9H43.2331V44.6917C43.2331 44.3049 43.3867 43.9339 43.6602 43.6605C43.9337 43.387 44.3046 43.2333 44.6914 43.2333H65.1081C65.4948 43.2333 65.8658 43.387 66.1393 43.6605C66.4128 43.9339 66.5664 44.3049 66.5664 44.6917V54.9Z" fill="#E47646"/>
</g>
<defs>
<filter id="filter0_d_99_3318" x="0.199999" y="0.199999" width="109.4" height="109.4" filterUnits="userSpaceOnUse" color-interpolation-filters="sRGB">
<feFlood flood-opacity="0" result="BackgroundImageFix"/>
<feColorMatrix in="SourceAlpha" type="matrix" values="0 0 0 0 0 0 0 0 0 0 0 0 0 0 0 0 0 0 127 0" result="hardAlpha"/>
<feOffset/>
<feGaussianBlur stdDeviation="12.4"/>
<feComposite in2="hardAlpha" operator="out"/>
<feColorMatrix type="matrix" values="0 0 0 0 0.723357 0 0 0 0 0.723357 0 0 0 0 0.723357 0 0 0 0.28 0"/>
<feBlend mode="normal" in2="BackgroundImageFix" result="effect1_dropShadow_99_3318"/>
<feBlend mode="normal" in="SourceGraphic" in2="effect1_dropShadow_99_3318" result="shape"/>
</filter>
</defs>
</svg>
