<svg width="76" height="75" viewBox="0 0 76 75" fill="none" xmlns="http://www.w3.org/2000/svg">
<g clip-path="url(#clip0_97_2656)">
<path fill-rule="evenodd" clip-rule="evenodd" d="M38.3334 74.8476C33.2877 74.8476 28.3944 73.8567 23.7907 71.9055C19.3547 70.0305 15.3456 67.3323 11.9157 63.9025C8.48584 60.4726 5.80291 56.4787 3.91267 52.0427C1.97669 47.4391 0.98584 42.5458 0.98584 37.5C0.98584 32.4543 1.97669 27.561 3.91267 22.9573C5.80291 18.5214 8.48584 14.5122 11.9157 11.0823C15.3456 7.65247 19.3395 4.96954 23.7907 3.0793C28.3944 1.14332 33.2877 0.152466 38.3334 0.152466C43.3791 0.152466 48.2724 1.14332 52.8761 3.0793C57.3121 4.96954 61.306 7.65247 64.7358 11.0823C68.1657 14.5122 70.8639 18.5061 72.7389 22.9573C74.6901 27.561 75.681 32.4543 75.681 37.5C75.681 42.5458 74.6901 47.4391 72.7389 52.0427C70.8639 56.4787 68.1657 60.4726 64.7358 63.9025C61.306 67.3323 57.3121 70.0305 52.8761 71.9055C48.2724 73.8567 43.3791 74.8476 38.3334 74.8476ZM38.3334 1.12808C18.2877 1.12808 1.96145 17.4543 1.96145 37.5C1.96145 57.5458 18.2877 73.8567 38.3334 73.8567C58.3791 73.8567 74.6901 57.5458 74.6901 37.5C74.6901 17.4543 58.3791 1.12808 38.3334 1.12808Z" fill="white"/>
<path d="M54.1533 34.465L52.6567 32.9667C52.34 32.6517 52.1667 32.2317 52.1667 31.7867V29.6667C52.1667 26.91 49.9233 24.6667 47.1667 24.6667H45.0467C44.6083 24.6667 44.1783 24.4884 43.8683 24.1784L42.37 22.68C40.42 20.73 37.25 20.73 35.3 22.68L33.7983 24.1784C33.4883 24.4884 33.0583 24.6667 32.62 24.6667H30.5C27.7433 24.6667 25.5 26.91 25.5 29.6667V31.7867C25.5 32.2317 25.3267 32.6517 25.0117 32.9667L23.5133 34.4634C22.5683 35.4084 22.0483 36.665 22.0483 38C22.0483 39.335 22.57 40.5917 23.5133 41.535L25.01 43.0334C25.3267 43.3484 25.5 43.7684 25.5 44.2134V46.3334C25.5 49.09 27.7433 51.3334 30.5 51.3334H32.62C33.0583 51.3334 33.4883 51.5117 33.7983 51.8217L35.2967 53.3217C36.2717 54.295 37.5517 54.7817 38.8317 54.7817C40.1117 54.7817 41.3917 54.295 42.3667 53.32L43.865 51.8217C44.1783 51.5117 44.6083 51.3334 45.0467 51.3334H47.1667C49.9233 51.3334 52.1667 49.09 52.1667 46.3334V44.2134C52.1667 43.7684 52.34 43.3484 52.6567 43.0334L54.1533 41.5367C55.0967 40.5917 55.6183 39.3367 55.6183 38C55.6183 36.6634 55.0983 35.4084 54.1533 34.465ZM46.425 36.0534L36.425 42.72C36.1433 42.9084 35.82 43 35.5 43C35.07 43 34.6433 42.8334 34.3217 42.5117L30.9883 39.1784C30.3367 38.5267 30.3367 37.4734 30.9883 36.8217C31.64 36.17 32.6933 36.17 33.345 36.8217L35.7117 39.1884L44.575 33.28C45.3433 32.7684 46.3767 32.975 46.8867 33.7417C47.3983 34.5084 47.1917 35.5434 46.425 36.0534Z" fill="white"/>
</g>
<defs>
<clipPath id="clip0_97_2656">
<rect width="75" height="75" fill="white" transform="translate(0.833496)"/>
</clipPath>
</defs>
</svg>
