<svg width="110" height="110" viewBox="0 0 110 110" fill="none" xmlns="http://www.w3.org/2000/svg">
<g filter="url(#filter0_d_97_2798)">
<rect x="25" y="25" width="59.52" height="59.52" rx="29.76" fill="white" fill-opacity="0.8" shape-rendering="crispEdges"/>
<path d="M53.1817 50.0255H59.4945C59.913 50.0255 60.3144 49.8592 60.6104 49.5632C60.9064 49.2673 61.0726 48.8659 61.0726 48.4473C61.0726 48.0287 60.9064 47.6273 60.6104 47.3314C60.3144 47.0354 59.913 46.8691 59.4945 46.8691H56.3381V45.2909C56.3381 44.8724 56.1718 44.471 55.8759 44.175C55.5799 43.879 55.1785 43.7128 54.7599 43.7128C54.3414 43.7128 53.9399 43.879 53.644 44.175C53.348 44.471 53.1817 44.8724 53.1817 45.2909V46.8691C51.926 46.8691 50.7218 47.3679 49.8339 48.2558C48.946 49.1437 48.4472 50.348 48.4472 51.6037C48.4472 52.8593 48.946 54.0636 49.8339 54.9515C50.7218 55.8394 51.926 56.3382 53.1817 56.3382H56.3381C56.7567 56.3382 57.1581 56.5045 57.454 56.8004C57.75 57.0964 57.9163 57.4978 57.9163 57.9164C57.9163 58.3349 57.75 58.7364 57.454 59.0323C57.1581 59.3283 56.7567 59.4946 56.3381 59.4946H50.0254C49.6068 59.4946 49.2054 59.6608 48.9094 59.9568C48.6135 60.2528 48.4472 60.6542 48.4472 61.0728C48.4472 61.4913 48.6135 61.8927 48.9094 62.1887C49.2054 62.4847 49.6068 62.6509 50.0254 62.6509H53.1817V64.2291C53.1817 64.6477 53.348 65.0491 53.644 65.3451C53.9399 65.641 54.3414 65.8073 54.7599 65.8073C55.1785 65.8073 55.5799 65.641 55.8759 65.3451C56.1718 65.0491 56.3381 64.6477 56.3381 64.2291V62.6509C57.5938 62.6509 58.798 62.1521 59.6859 61.2642C60.5738 60.3763 61.0726 59.1721 61.0726 57.9164C61.0726 56.6607 60.5738 55.4565 59.6859 54.5686C58.798 53.6807 57.5938 53.1818 56.3381 53.1818H53.1817C52.7632 53.1818 52.3618 53.0156 52.0658 52.7196C51.7698 52.4236 51.6035 52.0222 51.6035 51.6037C51.6035 51.1851 51.7698 50.7837 52.0658 50.4877C52.3618 50.1918 52.7632 50.0255 53.1817 50.0255ZM54.7599 37.4C51.3264 37.4 47.97 38.4182 45.1152 40.3257C42.2604 42.2333 40.0353 44.9445 38.7214 48.1166C37.4074 51.2888 37.0636 54.7793 37.7335 58.1468C38.4033 61.5143 40.0567 64.6076 42.4845 67.0354C44.9124 69.4632 48.0056 71.1166 51.3731 71.7865C54.7407 72.4563 58.2312 72.1125 61.4033 70.7986C64.5754 69.4846 67.2867 67.2596 69.1942 64.4047C71.1018 61.5499 72.1199 58.1935 72.1199 54.76C72.1199 50.1559 70.2909 45.7403 67.0353 42.4847C63.7797 39.229 59.3641 37.4 54.7599 37.4ZM54.7599 68.9637C51.9507 68.9637 49.2046 68.1306 46.8688 66.5699C44.533 65.0092 42.7125 62.7909 41.6375 60.1955C40.5624 57.6001 40.2811 54.7443 40.8292 51.989C41.3772 49.2338 42.73 46.703 44.7164 44.7165C46.7028 42.7301 49.2337 41.3774 51.9889 40.8293C54.7442 40.2813 57.6 40.5625 60.1954 41.6376C62.7908 42.7126 65.0091 44.5331 66.5698 46.8689C68.1305 49.2047 68.9635 51.9508 68.9635 54.76C68.9635 58.5271 67.4671 62.1398 64.8034 64.8035C62.1397 67.4672 58.5269 68.9637 54.7599 68.9637Z" fill="#E47646"/>
</g>
<defs>
<filter id="filter0_d_97_2798" x="0.199999" y="0.199999" width="109.12" height="109.12" filterUnits="userSpaceOnUse" color-interpolation-filters="sRGB">
<feFlood flood-opacity="0" result="BackgroundImageFix"/>
<feColorMatrix in="SourceAlpha" type="matrix" values="0 0 0 0 0 0 0 0 0 0 0 0 0 0 0 0 0 0 127 0" result="hardAlpha"/>
<feOffset/>
<feGaussianBlur stdDeviation="12.4"/>
<feComposite in2="hardAlpha" operator="out"/>
<feColorMatrix type="matrix" values="0 0 0 0 0.723357 0 0 0 0 0.723357 0 0 0 0 0.723357 0 0 0 0.28 0"/>
<feBlend mode="normal" in2="BackgroundImageFix" result="effect1_dropShadow_97_2798"/>
<feBlend mode="normal" in="SourceGraphic" in2="effect1_dropShadow_97_2798" result="shape"/>
</filter>
</defs>
</svg>
