<svg version="1.2" xmlns="http://www.w3.org/2000/svg" viewBox="0 0 492 492" width="492" height="492">
	<title>181521102_8063dd34-aeb0-4640-8b0d-1e7f7feb0ab5-svg</title>
	<style>
		.s0 { fill: #ffffff } 
	</style>
	<g id="Layer">
		<g id="Layer">
			<path id="Layer" fill-rule="evenodd" class="s0" d="m324.1 295.1h-155.9c-36.6 0-66.4-29.8-66.4-66.5 0-36.6 29.8-66.4 66.4-66.4h155.9c36.6 0 66.4 29.8 66.4 66.4 0.1 36.7-29.8 66.5-66.4 66.5zm-155.9-126.4c-33 0-59.9 26.9-59.9 59.9 0 33.1 26.9 59.9 59.9 59.9h155.9c33 0 59.9-26.8 59.9-59.9 0-33-26.9-59.9-59.9-59.9z"/>
		</g>
		<g id="Layer">
			<path id="Layer" class="s0" d="m246.2 330.8c-5.7 0-10.9-2.2-14.9-6.2l-30.5-30.5c-1.3-1.2-1.3-3.3 0-4.6 1.3-1.3 3.4-1.3 4.6 0l30.5 30.5c2.7 2.7 6.4 4.2 10.3 4.2 3.8 0 7.5-1.5 10.2-4.2l30.5-30.5c1.3-1.3 3.4-1.3 4.6 0 1.3 1.3 1.3 3.4 0 4.6l-30.5 30.5c-3.9 4-9.2 6.2-14.8 6.2z"/>
		</g>
		<g id="Layer">
			<path id="Layer" fill-rule="evenodd" class="s0" d="m180.3 260.5q-1.8 0-3.6-0.8l-11.5-5.4-11.6 5.4c-2.9 1.3-6.1 1-8.6-0.8-2.5-1.9-3.8-4.8-3.4-7.9l1.5-12.7-8.7-9.4c-2.1-2.3-2.8-5.4-1.8-8.4 0.9-3 3.3-5.1 6.4-5.7l12.5-2.5 6.2-11.1c1.6-2.7 4.3-4.4 7.5-4.4 3.1 0 5.9 1.6 7.4 4.4l6.2 11.1 12.5 2.5c3.1 0.6 5.5 2.7 6.5 5.7 0.9 3 0.2 6.1-1.9 8.4l-8.7 9.4 1.6 12.7c0.3 3.1-0.9 6-3.5 7.9-1.5 1-3.2 1.6-5 1.6zm-15.1-13.1q0.7 0 1.3 0.3l13 6q1 0.5 2-0.1 0.9-0.7 0.8-1.9l-1.7-14.2c-0.1-0.9 0.2-1.9 0.8-2.6l9.7-10.4q0.8-0.9 0.5-2-0.4-1.1-1.5-1.3l-14-2.8c-1-0.2-1.8-0.8-2.3-1.6l-6.9-12.5q-0.6-1-1.7-1-1.2 0-1.7 1l-7 12.5c-0.5 0.9-1.3 1.4-2.2 1.6l-14 2.8q-1.2 0.2-1.5 1.3-0.4 1.1 0.4 2l9.7 10.4c0.7 0.7 1 1.7 0.9 2.6l-1.7 14.2q-0.2 1.2 0.8 1.9 0.9 0.6 2 0.2l12.9-6q0.7-0.4 1.4-0.4z"/>
		</g>
		<g id="Layer">
			<path id="Layer" fill-rule="evenodd" class="s0" d="m261.4 260.5q-1.9 0-3.6-0.8l-11.6-5.4-11.6 5.4c-2.9 1.3-6 1-8.6-0.8-2.5-1.9-3.8-4.8-3.4-7.9l1.5-12.7-8.7-9.4c-2.1-2.3-2.8-5.4-1.8-8.4 0.9-3 3.3-5.1 6.4-5.7l12.5-2.5 6.2-11.1c1.6-2.7 4.3-4.4 7.5-4.4 3.1 0 5.9 1.6 7.4 4.4l6.2 11.1 12.5 2.5c3.1 0.6 5.5 2.7 6.5 5.7 0.9 3 0.2 6.1-1.9 8.4l-8.7 9.4 1.6 12.7c0.3 3.1-0.9 6-3.5 7.9-1.5 1-3.2 1.6-4.9 1.6zm-15.2-13.1q0.7 0 1.3 0.3l13 6q1.1 0.5 2-0.1 0.9-0.7 0.8-1.9l-1.7-14.2c-0.1-0.9 0.2-1.9 0.8-2.6l9.8-10.4q0.7-0.9 0.4-2-0.4-1.1-1.5-1.3l-14-2.8c-1-0.2-1.8-0.8-2.2-1.6l-7-12.5q-0.6-1-1.7-1-1.2 0-1.7 1l-7 12.5c-0.5 0.8-1.3 1.4-2.2 1.6l-14 2.8q-1.2 0.2-1.5 1.3-0.4 1.1 0.4 2l9.7 10.4c0.7 0.7 1 1.7 0.9 2.6l-1.7 14.2q-0.2 1.2 0.8 1.9 0.9 0.6 2 0.1l12.9-6q0.6-0.3 1.4-0.3z"/>
		</g>
		<g id="Layer">
			<path id="Layer" fill-rule="evenodd" class="s0" d="m342.4 260.5q-1.9 0-3.6-0.8l-11.6-5.4-11.6 5.4c-2.8 1.3-6 1-8.6-0.8-2.5-1.9-3.8-4.8-3.4-7.9l1.5-12.7-8.7-9.4c-2.1-2.3-2.8-5.4-1.8-8.4 0.9-3 3.3-5.1 6.4-5.7l12.5-2.5 6.2-11.1c1.5-2.7 4.3-4.4 7.5-4.4 3.1 0 5.9 1.6 7.4 4.4l6.2 11.1 12.5 2.5c3.1 0.6 5.5 2.7 6.5 5.7 0.9 3 0.2 6.1-1.9 8.4l-8.7 9.4 1.6 12.7c0.3 3.1-1 6-3.5 7.9-1.5 1-3.2 1.6-4.9 1.6zm-15.2-13.1q0.7 0 1.4 0.3l12.9 6q1.1 0.5 2-0.1 0.9-0.7 0.8-1.9l-1.7-14.2c-0.1-0.9 0.2-1.9 0.8-2.6l9.8-10.4q0.7-0.9 0.4-2-0.4-1.1-1.5-1.3l-14-2.8c-1-0.2-1.8-0.8-2.2-1.6l-7-12.5q-0.5-1-1.7-1-1.2 0-1.7 1l-7 12.5c-0.4 0.9-1.3 1.4-2.2 1.6l-14 2.8q-1.1 0.2-1.5 1.3-0.4 1.1 0.4 2l9.7 10.4c0.7 0.7 1 1.7 0.9 2.6l-1.7 14.2q-0.2 1.2 0.8 1.9 0.9 0.6 2 0.2l12.9-6q0.7-0.4 1.4-0.4z"/>
		</g>
		<g id="Layer">
			<path id="Layer" class="s0" d="m319.3 187.1h-146.2c-1.8 0-3.3-1.5-3.3-3.3 0-1.8 1.4-3.3 3.3-3.3h146.2c1.8 0 3.2 1.5 3.2 3.3 0 1.8-1.4 3.3-3.2 3.3z"/>
		</g>
		<g id="Layer">
			<path id="Layer" class="s0" d="m319.3 276.8l-146.2-0.1c-1.8 0-3.3-1.4-3.3-3.2 0-1.8 1.4-3.3 3.3-3.3h146.2c1.8 0 3.2 1.5 3.2 3.3 0 1.8-1.4 3.2-3.2 3.2z"/>
		</g>
	</g>
	<g id="Layer">
		<path id="Layer" fill-rule="evenodd" class="s0" d="m246 491c-33.1 0-65.2-6.5-95.4-19.3-29.1-12.3-55.3-29.9-77.8-52.5-22.5-22.4-40.2-48.6-52.5-77.8-12.8-30.2-19.3-62.3-19.3-95.4 0-33.1 6.5-65.2 19.3-95.4 12.3-29.1 30-55.3 52.5-77.8 22.5-22.5 48.7-40.2 77.8-52.5 30.2-12.8 62.3-19.3 95.4-19.3 33.1 0 65.2 6.5 95.4 19.3 29.1 12.3 55.3 30 77.8 52.5 22.5 22.5 40.2 48.7 52.5 77.8 12.8 30.2 19.3 62.3 19.3 95.4 0 33.1-6.5 65.2-19.3 95.4-12.3 29.1-30 55.3-52.5 77.8-22.5 22.6-48.6 40.2-77.8 52.5-30.2 12.8-62.3 19.3-95.4 19.3zm0-483.6c-131.5 0.1-238.6 107.1-238.6 238.6 0 131.5 107.1 238.6 238.6 238.6 131.5 0 238.6-107.1 238.6-238.6 0-131.5-107.1-238.5-238.6-238.5z"/>
	</g>
</svg>