<?xml version="1.0" encoding="utf-8"?>
<!-- Generator: Adobe Illustrator 27.5.0, SVG Export Plug-In . SVG Version: 6.00 Build 0)  -->
<svg version="1.1" xmlns="http://www.w3.org/2000/svg" xmlns:xlink="http://www.w3.org/1999/xlink" x="0px" y="0px"
	 viewBox="0 0 3710 3710" style="enable-background:new 0 0 3710 3710;" xml:space="preserve">
<g id="Background">
	<g>
		<g>
			<rect style="fill:#FFFFFF;" width="3710" height="3710"/>
		</g>
	</g>
</g>
<g id="Illustration">
	<g>
		<path style="fill:#F4F7FA;" d="M1642.891,455.242c-383.32,6.417-976.389,144.555-1147.097,499.544
			c-59.621,123.984-55.585,306.256-47.513,670.798c2.373,107.148,6.307,263.32,33.938,457.092
			c57.398,402.528,96.471,676.554,244.352,836.115c370.545,399.811,1709.042,388.258,2280.618-331.533
			c311.798-392.651,359.765-951.21,74.663-1412.831C2767.961,666.192,2156.066,446.651,1642.891,455.242z"/>
		<g>
			<g>
				<g>
					<defs>
						<path id="SVGID_1_" d="M1913.941,3179.192c58.838-65.856,116.382-133.255,172.581-202.144
							c1.865,0.117-92.281-169.224-221.97-191.028c-254.01-39.929-268.075-254.22-304.59-357.686
							c-46.868-149.617-164.301-256.002-278.033-164.142c-128.093,99.342-315.691-96.759-443.217-311.121
							c-55.749-109.919-230.878-153.615-337.305-108.203c-110.414,44.057-152.124,177.221-33.096,389.725
							c128.242,254.033,384.194,258.214,525.949,320.955c139.288,61.483,75.981,258.061,254.764,266.345
							c153.874,11.518,312.36-20.139,353.832,120.982C1642.28,3083.715,1718.776,3161.933,1913.941,3179.192z"/>
					</defs>
					
						<linearGradient id="SVGID_00000097467996660112752200000012095373008804697984_" gradientUnits="userSpaceOnUse" x1="1370.5" y1="2107.9153" x2="1092.4673" y2="2898.114">
						<stop  offset="0" style="stop-color:#AA80F9"/>
						<stop  offset="0.9964" style="stop-color:#6165D7"/>
					</linearGradient>
					
						<use xlink:href="#SVGID_1_"  style="overflow:visible;fill:url(#SVGID_00000097467996660112752200000012095373008804697984_);"/>
					<clipPath id="SVGID_00000147906516094802563130000002194777067602144949_">
						<use xlink:href="#SVGID_1_"  style="overflow:visible;"/>
					</clipPath>
					<g style="clip-path:url(#SVGID_00000147906516094802563130000002194777067602144949_);">
						<path style="fill:#BEB8F2;" d="M2013.345,3110.93c-1.011-1.358-308.829-266.187-656.42-484.024
							c-53.607-37.421-108.889-74.196-162.347-109.761c-297.718-198.057-578.925-385.131-707.959-746.38l-4.819,1.869
							c129.638,362.933,411.549,550.475,710.013,749.03c53.435,35.549,108.692,72.308,162.358,109.766
							c349.47,219.019,653.542,481.156,655.242,482.946L2013.345,3110.93z"/>
						<path style="fill:#BEB8F2;" d="M920.136,2332.395l0.832-5.289c-140.407-24.08-324.028-71.61-422.673-97.143
							c-79.838-20.665-79.995-20.504-81.778-18.456l1.895,1.809l0.453,2.588c3.405-0.098,36.409,8.444,78.191,19.259
							C595.773,2260.715,779.521,2308.279,920.136,2332.395z"/>
						<path style="fill:#BEB8F2;" d="M807.866,2231.752c-60.079-110.959-71.018-207.923-69.615-269.727
							c1.528-67.322,17.89-111.345,21.115-115.19l-1.503-1.369l-0.272-3.36c-1.537,0.135-2.449,1.388-3.599,3.654
							c-16.443,32.452-56.251,193.511,49.394,388.625L807.866,2231.752z"/>
						<path style="fill:#BEB8F2;" d="M1573.968,2778.367l3.608-3.822c-173.229-177.714-185.955-467.747-183.385-584.196
							c0.139-6.255,0.175-8.28,0.041-9.211l-5.084,0.801l2.542-0.4l-2.544,0.382c0.075,0.665-0.006,4.206-0.095,8.305
							c-1.854,83.981,4.664,165.199,19.37,241.396C1436.675,2577.997,1492.372,2694.658,1573.968,2778.367z"/>
						<path style="fill:#BEB8F2;" d="M1114.41,2770.775l-1.72-1.944l0.873,2.495l-2.949-0.908l-0.009-3.204
							c0.003-0.007,0.011-0.016,0.021-0.026c2.492-2.596,178.057-133.121,361.111-65.267l-1.723,5.051
							C1288.789,2639.795,1115.974,2769.398,1114.41,2770.775z M1112.68,2768.804l-0.88-2.512L1112.68,2768.804z"/>
						<path style="fill:#BEB8F2;" d="M1962.331,3068.264c-32.005-38.685-70.496-118.072-72.128-276.577
							c-0.092-8.994-0.092-8.994-1.07-9.95l-3.514,3.914l1.757-1.957l-2.473,0.646c0.09,0.623,0.122,3.766,0.161,7.404
							c1.648,160.126,40.808,240.659,73.371,280.02L1962.331,3068.264z"/>
						<path style="fill:#BEB8F2;" d="M1883.849,3010.736l2.96-4.381c-74.356-54.615-209.464-27.216-283.38-6.022
							c-2.344,0.672-3.85,1.108-4.417,1.228l1.024,5.252c0.607-0.128,2.233-0.59,4.757-1.313
							C1677.836,2984.558,1811.218,2957.391,1883.849,3010.736z"/>
					</g>
				</g>
			</g>
		</g>
		<g>
			<path style="fill:#BFC8D6;" d="M2852.717,1770.657l12.509-27.554c4.689-10.329,1.907-22.731-6.228-27.729l-32.39-19.9
				c8.772-24.861,14.912-51.148,18.009-78.345l36.155-2.536c9.318-0.654,16.849-10.395,16.849-21.761v-30.226
				c0-11.366-7.531-20.149-16.849-19.616l-35.207,2.013c-2.426-27.415-8.018-53.552-16.339-77.94l29.772-22.082
				c0.953-0.707,1.817-1.523,2.62-2.398l3.812,9.904l48.902-60.135l-63.843-5.447c-2.802-3.627-6.568-5.808-10.556-6.282
				c-3.558-0.422-7.285,0.502-10.637,2.938l-29.408,21.372c-13.689-21.968-30.028-41.559-48.537-58.168l2.215-4.626l44.95,9.182
				l5.708-74.415l-68.263-11.265c-7.851-3.026-16.727,0.806-21.046,9.714l-16.966,34.99c-21.802-10.838-3.735-22.251-28.514-25.555
				l25.917-38.165c0-11.892-75.911-19.817-86.167-19.817h-27.45c-10.39,0-18.839,9.773-18.839,21.829v40.866
				c-25.639,3.917-50.36,12.078-73.603,23.893l46.886-34.449c0,0-82.585-15.645-91.98-9.437l-25.131,16.605
				c-9.505,6.28-12.768,20.023-7.271,30.662l19.009,36.783c-20.805,18.528-29.66,29.218-45.406,53.678l-44.156-9.968
				c-9.753-5.993-22.271-1.927-27.94,9.116l-15.127,29.468c-5.708,11.119-2.319,24.957,7.549,30.872l35.601,21.34
				c-9.87,27.418-16.538,56.596-19.439,86.88l-42.711,2.442c-11.497,0.657-20.849,11.474-20.849,24.158v33.731
				c0,11.501,7.698,20.46,17.703,21.434l48.534,7.781c4.019,25.236,10.755,49.18,19.855,71.451l-38.694,28.12
				c-9.869,7.172-13.257,21.441-7.549,31.833l15.127,27.543c5.669,10.321,95.629,16.599,95.629,16.599l-28.563-40.061
				c15.63,20.986,33.807,39.175,53.974,54.028l-22.548,46.503c-5.497,11.338-2.234,24.666,7.271,29.736l25.132,13.405
				c1.588,0.847,3.251,1.382,4.942,1.672l-0.1,0.47l78.402,9.661l7.67-59.174c9.121,1.4,18.388,2.257,27.783,2.512v50.621
				c0,9,4.711,16.123,11.42,18.608l-0.343,1.479l77.675,9.697l1.554-95.976c14.216-5.399,27.918-12.094,41.005-19.949l20.707,40.07
				c2.572,4.977,6.764,7.929,11.389,8.669l75.066,10.175l-25.711-70.754l-10.375,3.185l-17.107-33.547
				c17.987-17.862,33.997-38.255,47.616-60.578l33.502,20.082C2837.519,1785.503,2847.998,1781.05,2852.717,1770.657z
				 M2595.492,1744.73c-73.494,6.546-134.45-57.939-134.45-144.183c0-86.244,60.956-158.387,134.45-161.075
				c71.682-2.622,128.508,62.125,128.508,144.556C2724,1666.46,2667.175,1738.345,2595.492,1744.73z M2909.379,1579.129
				l50.855-24.071l-50.855-6.171V1579.129z M2846.956,1784.579l58.177,7.847l8.492-19.836l-48.195-29.296L2846.956,1784.579z"/>
			<path style="fill:#D8DEE8;" d="M2955.736,1554.168l-35.008,2.022c-2.411-27.336-7.972-53.396-16.246-77.711l29.603-22.032
				c8.089-6.021,10.855-18.742,6.193-28.444l-12.438-25.882c-4.692-9.763-15.112-12.869-23.287-6.906l-29.24,21.324
				c-13.611-21.899-29.857-41.427-48.261-57.981l16.824-35.242c4.827-10.112,1.964-22.912-6.411-28.623l-22.394-15.271
				c-8.467-5.773-19.33-2.23-24.249,7.945l-16.869,34.898c-21.677-10.797-45.105-18.159-69.821-21.443v-40.297
				c0-11.888-8.24-21.521-18.436-21.517l-27.293,0.012c-10.33,0.005-18.731,9.754-18.731,21.775v40.749
				c-25.492,3.918-50.071,12.066-73.18,23.857l-18.233-35.85c-5.358-10.536-17.26-14.083-26.601-7.889l-24.987,16.568
				c-9.45,6.266-12.695,19.972-7.229,30.576l18.899,36.669c-20.685,18.483-39.179,40.268-54.846,64.679l-34.198-21.057
				c-9.697-5.971-22.143-1.912-27.779,9.101l-15.039,29.389c-5.675,11.089-2.306,24.886,7.505,30.78l35.395,21.263
				c-9.813,27.343-16.443,56.439-19.327,86.637l-42.464,2.453c-11.43,0.661-20.728,11.45-20.728,24.097v33.633
				c0,12.647,9.298,22.241,20.728,21.433l43.592-3.084c3.68,29.128,10.947,56.646,21.274,81.991l-38.47,28.054
				c-9.811,7.155-13.18,21.384-7.505,31.744l15.039,27.457c5.636,10.289,18.081,12.749,27.779,5.531l38.901-28.952
				c15.54,20.919,33.612,39.048,53.662,53.851l-22.418,46.377c-5.466,11.307-2.221,24.595,7.229,29.647l24.986,13.357
				c9.342,4.993,21.244-0.084,26.602-11.308l22.225-46.554c21.942,7.935,45.16,12.442,69.189,13.087v50.475
				c0,12.021,8.401,20.69,18.731,19.367l27.293-3.495c10.197-1.305,18.436-11.998,18.436-23.886v-49.916
				c23.308-6.053,45.471-15.589,66.1-28.016l20.589,39.948c4.919,9.543,15.782,11.69,24.249,4.829l22.393-18.148
				c8.375-6.787,11.238-19.956,6.411-29.447l-19.98-39.285c17.884-17.818,33.804-38.159,47.346-60.424l33.311,20.012
				c8.176,4.912,18.595,0.467,23.287-9.899l12.438-27.481c4.663-10.302,1.896-22.667-6.193-27.648l-32.206-19.83
				c8.722-24.794,14.827-51.009,17.906-78.129l35.95-2.543c9.265-0.656,16.754-10.373,16.754-21.706v-30.14
				C2972.49,1562.388,2965.001,1553.633,2955.736,1554.168z M2672.082,1755.45c-73.072,6.556-133.677-57.718-133.677-143.714
				c0-85.995,60.605-157.957,133.677-160.669c71.272-2.645,127.773,61.891,127.773,144.088
				C2799.855,1677.352,2743.354,1749.055,2672.082,1755.45z"/>
		</g>
		<g>
			<path style="fill:#BFC8D6;" d="M2205.885,1398.765l16.736-36.865c6.274-13.819,2.552-30.412-8.332-37.099l-43.335-26.624
				c11.737-33.262,19.95-68.431,24.094-104.818l48.372-3.392c12.467-0.875,22.543-13.908,22.543-29.114v-40.439
				c0-15.206-10.076-26.958-22.543-26.244l-47.104,2.693c-3.245-36.678-10.727-71.647-21.86-104.276l39.832-29.543
				c1.275-0.946,2.431-2.037,3.505-3.209l5.099,13.25l65.427-80.454l-85.416-7.288c-3.749-4.852-8.787-7.771-14.123-8.404
				c-4.761-0.565-9.747,0.672-14.231,3.931l-39.344,28.594c-18.314-29.391-40.175-55.602-64.938-77.824l2.963-6.189l60.138,12.285
				l7.637-99.561l-91.33-15.072c-10.503-4.049-22.379,1.078-28.158,12.996l-22.698,46.813c-29.169-14.5-4.997-29.77-38.149-34.189
				l34.674-51.062c0-15.91-101.562-26.513-115.283-26.513h-36.726c-13.9,0-25.205,13.076-25.205,29.205v54.675
				c-34.303,5.241-67.377,16.159-98.474,31.966l62.729-46.09c0,0-110.491-20.931-123.061-12.626l-33.623,22.216
				c-12.717,8.402-17.083,26.79-9.728,41.022l25.432,49.213c-27.835,24.789-39.682,39.091-60.749,71.816l-59.076-13.337
				c-13.049-8.017-29.797-2.578-37.381,12.196l-20.239,39.426c-7.636,14.876-3.103,33.39,10.1,41.304l47.631,28.552
				c-13.206,36.683-22.127,75.72-26.008,116.238l-57.144,3.267c-15.382,0.879-27.894,15.351-27.894,32.321v45.129
				c0,15.387,10.299,27.373,23.685,28.677l64.934,10.41c5.376,33.763,14.389,65.798,26.564,95.595l-51.768,37.622
				c-13.203,9.595-17.737,28.686-10.1,42.59l20.239,36.85c7.584,13.809,127.943,22.208,127.943,22.208l-38.214-53.598
				c20.912,28.077,45.231,52.412,72.213,72.285l-30.167,62.216c-7.355,15.169-2.988,33,9.728,39.784l33.624,17.935
				c2.124,1.133,4.35,1.849,6.612,2.236l-0.134,0.629l104.894,12.925l10.262-79.169c12.203,1.873,24.602,3.02,37.171,3.361v67.726
				c0,12.041,6.303,21.571,15.279,24.896l-0.458,1.979l103.922,12.974l2.08-128.407c19.019-7.224,37.352-16.181,54.861-26.69
				l27.705,53.61c3.441,6.659,9.049,10.608,15.238,11.599l100.432,13.613l-34.398-94.662l-13.881,4.261l-22.887-44.883
				c24.064-23.898,45.485-51.181,63.706-81.048l44.822,26.868C2185.552,1418.629,2199.572,1412.671,2205.885,1398.765z
				 M1861.743,1364.078c-98.328,8.758-179.882-77.517-179.882-192.903c0-115.386,81.554-211.907,179.882-215.504
				c95.904-3.507,171.931,83.117,171.931,193.403C2033.674,1259.36,1957.647,1355.536,1861.743,1364.078z M2281.694,1142.519
				l68.039-32.205l-68.039-8.255V1142.519z M2198.177,1417.392l77.835,10.499l11.362-26.539l-64.48-39.195L2198.177,1417.392z"/>
			<path style="fill:#D8DEE8;" d="M2343.715,1109.124l-46.837,2.705c-3.226-36.572-10.666-71.439-21.736-103.97l39.606-29.477
				c10.823-8.055,14.523-25.074,8.285-38.055l-16.642-34.628c-6.277-13.062-20.218-17.217-31.156-9.24l-39.121,28.53
				c-18.211-29.299-39.946-55.426-64.569-77.573l22.509-47.151c6.458-13.528,2.627-30.655-8.577-38.295l-29.96-20.43
				c-11.328-7.724-25.862-2.984-32.443,10.63l-22.569,46.69c-29.003-14.445-60.347-24.296-93.413-28.689v-53.914
				c0-15.905-11.024-28.794-24.666-28.788l-36.516,0.017c-13.821,0.007-25.06,13.049-25.06,29.133v54.518
				c-34.106,5.242-66.99,16.143-97.909,31.919l-24.394-47.964c-7.169-14.096-23.092-18.842-35.59-10.555l-33.43,22.167
				c-12.643,8.384-16.984,26.72-9.672,40.908l25.285,49.06c-27.674,24.729-52.418,53.875-73.379,86.535l-45.754-28.173
				c-12.974-7.988-29.625-2.558-37.165,12.177l-20.121,39.32c-7.592,14.836-3.085,33.295,10.041,41.18l47.356,28.448
				c-13.13,36.582-21.999,75.51-25.858,115.912l-56.813,3.282c-15.293,0.884-27.732,15.319-27.732,32.239v44.998
				c0,16.92,12.439,29.757,27.732,28.675l58.321-4.126c4.923,38.971,14.646,75.787,28.462,109.696l-51.469,37.534
				c-13.126,9.572-17.633,28.61-10.041,42.47l20.121,36.735c7.54,13.766,24.191,17.057,37.165,7.401l52.045-38.734
				c20.791,27.988,44.969,52.243,71.795,72.048l-29.993,62.048c-7.313,15.128-2.971,32.906,9.672,39.665l33.43,17.871
				c12.498,6.681,28.422-0.112,35.591-15.129l29.734-62.285c29.356,10.617,60.419,16.646,92.568,17.509v67.531
				c0,16.083,11.24,27.682,25.06,25.912l36.516-4.676c13.642-1.747,24.666-16.052,24.666-31.957v-66.783
				c31.184-8.099,60.836-20.856,88.436-37.482l27.546,53.446c6.581,12.768,21.115,15.64,32.443,6.46l29.96-24.28
				c11.204-9.08,15.035-26.699,8.577-39.397l-26.731-52.559c23.927-23.839,45.227-51.053,63.344-80.842l44.567,26.774
				c10.939,6.571,24.879,0.625,31.156-13.244l16.642-36.767c6.238-13.783,2.538-30.326-8.285-36.99l-43.088-26.531
				c11.67-33.172,19.837-68.245,23.958-104.53l48.098-3.403c12.396-0.877,22.415-13.878,22.415-29.041v-40.325
				C2366.13,1120.121,2356.111,1108.408,2343.715,1109.124z M1964.212,1378.42c-97.764,8.772-178.848-77.222-178.848-192.276
				c0-115.053,81.084-211.332,178.848-214.96c95.355-3.539,170.948,82.805,170.948,192.776S2059.568,1369.864,1964.212,1378.42z"/>
		</g>
		<g>
			
				<linearGradient id="SVGID_00000139259253790370985800000008154038992795237546_" gradientUnits="userSpaceOnUse" x1="3907.896" y1="2648.7896" x2="58.548" y2="1567.4023">
				<stop  offset="0" style="stop-color:#311944"/>
				<stop  offset="1" style="stop-color:#893976"/>
			</linearGradient>
			<path style="fill:url(#SVGID_00000139259253790370985800000008154038992795237546_);" d="M2337.131,1987.613
				c1.03,466.178-246.762,846.614-688.055,859.127c-6.822,0.193-119.443-0.019-126.305-0.002
				c-450.804,1.098-817.101-381.765-818.146-855.149c-1.045-473.384,363.556-858.027,814.361-859.125
				c10.542-0.026,109.496,0.952,119.941,1.342C2075.179,1150.115,2336.109,1525.299,2337.131,1987.613z"/>
			
				<linearGradient id="SVGID_00000121256088715175297180000010018608855529734559_" gradientUnits="userSpaceOnUse" x1="2010.7407" y1="1490.5815" x2="378.0967" y2="3943.3826">
				<stop  offset="0" style="stop-color:#FFC444"/>
				<stop  offset="0.9964" style="stop-color:#F36F56"/>
			</linearGradient>
			
				<ellipse style="fill:url(#SVGID_00000121256088715175297180000010018608855529734559_);" cx="1673.48" cy="1997.265" rx="816.255" ry="857.139"/>
			
				<linearGradient id="SVGID_00000131364967121384580220000012757457920139005104_" gradientUnits="userSpaceOnUse" x1="2089.124" y1="1416.0115" x2="1598.6381" y2="2101.9265">
				<stop  offset="0" style="stop-color:#FFC444"/>
				<stop  offset="0.9964" style="stop-color:#F36F56"/>
			</linearGradient>
			
				<ellipse style="opacity:0.3;fill:url(#SVGID_00000131364967121384580220000012757457920139005104_);" cx="1673.48" cy="1997.265" rx="795.691" ry="835.545"/>
			
				<linearGradient id="SVGID_00000143619633162284472360000013500090221594931337_" gradientUnits="userSpaceOnUse" x1="1163.0481" y1="631.6614" x2="1902.2102" y2="2609.2083">
				<stop  offset="0" style="stop-color:#FFC444"/>
				<stop  offset="0.9964" style="stop-color:#F36F56"/>
			</linearGradient>
			
				<ellipse style="fill:url(#SVGID_00000143619633162284472360000013500090221594931337_);" cx="1673.48" cy="1997.265" rx="771.67" ry="810.321"/>
			
				<linearGradient id="SVGID_00000007426137759647674620000003718013172240547737_" gradientUnits="userSpaceOnUse" x1="717.7488" y1="4528.7256" x2="2189.6492" y2="561.6035">
				<stop  offset="0.0036" style="stop-color:#EBEFF2"/>
				<stop  offset="1" style="stop-color:#FFFFFF"/>
			</linearGradient>
			
				<ellipse style="fill:url(#SVGID_00000007426137759647674620000003718013172240547737_);" cx="1656.983" cy="1997.265" rx="755.174" ry="792.998"/>
			<g>
				
					<linearGradient id="SVGID_00000127010232638246922860000010455748134105546673_" gradientUnits="userSpaceOnUse" x1="2201.9473" y1="1406.558" x2="1326.3893" y2="3167.625">
					<stop  offset="0" style="stop-color:#FFC444"/>
					<stop  offset="0.9964" style="stop-color:#F36F56"/>
				</linearGradient>
				<path style="fill:url(#SVGID_00000127010232638246922860000010455748134105546673_);" d="M1736.715,1974.555l575.248,223.068
					c18.729-63.02,28.827-130.04,28.827-199.539c0-357.852-267.564-650.078-604.075-668.121V1974.555z"/>
			</g>
			<g style="opacity:0.54;">
				<path style="fill:#D8DEE8;" d="M1467.372,1979.273c-59.722-193.416,156.198-332.995,122.155-558.436
					c-15.022-99.479-73.479-180.986-145.367-246.376c-339.865,104.271-587.795,434.323-586.932,824.792
					c1.045,473.384,367.342,856.247,818.146,855.149c110.534-0.269,215.861-23.646,311.911-65.686
					c-13.918-273.577-97.837-428.114-187.078-521.217C1662.664,2124.004,1512.911,2126.757,1467.372,1979.273z"/>
			</g>
			
				<linearGradient id="SVGID_00000147209671850342953800000005358436012702616209_" gradientUnits="userSpaceOnUse" x1="1239.8418" y1="1236.001" x2="2180.2429" y2="2989.092">
				<stop  offset="0" style="stop-color:#FF9085"/>
				<stop  offset="1" style="stop-color:#FB6FBB"/>
			</linearGradient>
			
				<ellipse style="fill:url(#SVGID_00000147209671850342953800000005358436012702616209_);" cx="1654.861" cy="2009.678" rx="48.015" ry="50.42"/>
			
				<linearGradient id="SVGID_00000119799056091239394720000006101536040699916704_" gradientUnits="userSpaceOnUse" x1="1323.1531" y1="1191.3102" x2="2263.5547" y2="2944.4023">
				<stop  offset="0" style="stop-color:#FF9085"/>
				<stop  offset="1" style="stop-color:#FB6FBB"/>
			</linearGradient>
			<path style="fill:url(#SVGID_00000119799056091239394720000006101536040699916704_);" d="M1654.861,1607.879
				c-16.758,0-30.343,14.265-30.343,31.863v339.874c0,17.598,13.585,31.863,30.343,31.863c16.758,0,30.343-14.265,30.343-31.863
				v-339.874C1685.204,1622.144,1671.619,1607.879,1654.861,1607.879z"/>
			
				<linearGradient id="SVGID_00000057109422098587153330000015346544011535418787_" gradientUnits="userSpaceOnUse" x1="343.664" y1="1.4498" x2="2491.783" y2="4005.9629">
				<stop  offset="0" style="stop-color:#FF9085"/>
				<stop  offset="1" style="stop-color:#FB6FBB"/>
			</linearGradient>
			<path style="fill:url(#SVGID_00000057109422098587153330000015346544011535418787_);" d="M1662.7,2004.919l-543.643-159.828
				c-9.582-2.926-20.111,2.387-23.516,11.867c-3.405,9.479,1.603,19.535,11.185,22.461l543.643,159.828
				c9.582,2.925,20.11-2.388,23.516-11.867C1677.291,2017.901,1672.283,2007.845,1662.7,2004.919z"/>
		</g>
		<g>
			<defs>
				
					<rect id="SVGID_00000128443494662816023390000004190223616442949795_" x="356.806" y="2117.122" width="1630.904" height="1053.757"/>
			</defs>
			<clipPath id="SVGID_00000033368283660830380660000002326396593009511842_">
				<use xlink:href="#SVGID_00000128443494662816023390000004190223616442949795_"  style="overflow:visible;"/>
			</clipPath>
			<g style="clip-path:url(#SVGID_00000033368283660830380660000002326396593009511842_);">
				<g>
					<g>
						<defs>
							<path id="SVGID_00000164476530329852348410000007732160633937885066_" d="M1934.973,3169.95
								c11.461-13.057,24.886-51.565,24.247-63.046c-4.254-76.406-2.927-219.976-59.857-277.45
								c-9.723-9.815-64.449,21.301-79.297,17.506c-39.707,11.37-52.776,17.777-95.835,10.042
								c-127.12-22.836-115.085-286.427-319.186-195.691c-149.501,66.463-212.946,193.97-360.491,0.939
								c-147.545-193.031-583.65-397.563-664.046-101.544c-46.14,169.887,201.973,226.077,245.698,390.132
								c41.55,155.894,166.107,204.703,338.596,168.375c172.488-36.329,154.989,67.874,212.224,200.398
								c68.75,159.191,278.483,13.5,369.573-62.022C1619.95,3196.772,1847.762,3091.403,1934.973,3169.95z"/>
						</defs>
						
							<linearGradient id="SVGID_00000062188143744965264040000007876779210807318967_" gradientUnits="userSpaceOnUse" x1="1095.1288" y1="2359.189" x2="1413.6765" y2="4395.6245">
							<stop  offset="0.0036" style="stop-color:#E38DDD"/>
							<stop  offset="1" style="stop-color:#9571F6"/>
						</linearGradient>
						
							<use xlink:href="#SVGID_00000164476530329852348410000007732160633937885066_"  style="overflow:visible;fill:url(#SVGID_00000062188143744965264040000007876779210807318967_);"/>
						<clipPath id="SVGID_00000166638650729505483800000000429760649976601989_">
							<use xlink:href="#SVGID_00000164476530329852348410000007732160633937885066_"  style="overflow:visible;"/>
						</clipPath>
						<g style="clip-path:url(#SVGID_00000166638650729505483800000000429760649976601989_);">
							<g>
								<path style="fill:#FCFDFE;" d="M1932.272,2974.824l-0.98-3.561c-548.686,150.877-1127.43-40.132-1548.139-510.948
									l-2.757,2.462c199.387,223.133,443.776,389.482,706.748,481.063C1363.609,3040.123,1655.849,3050.836,1932.272,2974.824z"/>
								<path style="fill:#FCFDFE;" d="M1198.01,3389.054c78.947-134.137,263.743-298.571,411.943-366.548l-1.541-3.357
									c-148.782,68.245-334.314,233.342-413.585,368.03L1198.01,3389.054z"/>
								<path style="fill:#FCFDFE;" d="M1824.224,3003.209l0.044-3.695c-84.744-1.057-165.699-44.915-240.614-130.357
									c-54.932-62.649-105.397-145.781-149.997-247.093l-3.381,1.49c44.752,101.654,95.42,185.108,150.599,248.038
									C1656.51,2957.857,1738.384,3002.139,1824.224,3003.209z"/>
								<path style="fill:#FCFDFE;" d="M1050.323,2929.392l0.236-3.688c-159.636-10.207-303.834,76.407-396.694,150.865l2.313,2.884
									C748.527,3005.403,891.87,2919.259,1050.323,2929.392z"/>
								<path style="fill:#FCFDFE;" d="M724.15,2762.971l2.589-2.636c-128.538-126.301-155.562-313.518-160.231-413.874
									l-3.691,0.171C567.512,2447.53,594.712,2635.785,724.15,2762.971z"/>
							</g>
						</g>
					</g>
				</g>
			</g>
		</g>
		<g>
			<g>
				
					<linearGradient id="SVGID_00000134222422669939681700000013776796580584235959_" gradientUnits="userSpaceOnUse" x1="3185.8538" y1="3252.9238" x2="2780.8672" y2="1882.6652">
					<stop  offset="0" style="stop-color:#311944"/>
					<stop  offset="1" style="stop-color:#893976"/>
				</linearGradient>
				<path style="fill:url(#SVGID_00000134222422669939681700000013776796580584235959_);" d="M3108.719,1873.489l-67.68-456.915
					l-151.294,15.218c-12.765-2.371-37.035,10.907-42.773,24.302l-198.674,462.947c-6.152,14.36,3.289,30.839,17.585,30.745
					l56.729-2.383V3026.5c0,19.226,13.966,33.028,31.136,30.835l135.996,30.229c16.267-2.102,168.557-84.145,168.557-102.687
					V1903.164l34.388-0.18C3105.729,1902.916,3114.298,1887.126,3108.719,1873.489z"/>
				
					<linearGradient id="SVGID_00000054233322414599804160000000267272028057437339_" gradientUnits="userSpaceOnUse" x1="2848.5161" y1="2890.5222" x2="2795.3379" y2="2467.406">
					<stop  offset="0" style="stop-color:#311944"/>
					<stop  offset="1" style="stop-color:#893976"/>
				</linearGradient>
				<path style="opacity:0.3;fill:url(#SVGID_00000054233322414599804160000000267272028057437339_);" d="M2872.671,1942.542
					l-150.059,4.859V3026.5c0,19.226,13.966,33.028,31.137,30.835l135.996,30.229c6.695-0.865,36.528-15.323,69.262-33.304
					L2872.671,1942.542z"/>
				
					<linearGradient id="SVGID_00000115476140859852665090000016872524613756330117_" gradientUnits="userSpaceOnUse" x1="3029.7717" y1="2120.6497" x2="2879.28" y2="4892.2334">
					<stop  offset="0" style="stop-color:#FF9085"/>
					<stop  offset="1" style="stop-color:#FB6FBB"/>
				</linearGradient>
				<path style="fill:url(#SVGID_00000115476140859852665090000016872524613756330117_);" d="M3255.129,1910.799l-196.616-482.55
					c-6.63-16.273-26.553-17.292-33.222-1.642l-206.919,485.59c-6.085,14.281,3.253,30.674,17.396,30.583l36.902-0.238v1116.236
					c0,19.134,13.833,32.856,30.841,30.657l272.797-35.276c15.971-2.066,28.877-18.695,28.877-37.15V1940.395l34.065-0.22
					C3252.168,1940.091,3260.656,1924.366,3255.129,1910.799z"/>
			</g>
			<g>
				
					<linearGradient id="SVGID_00000111876028585013804510000008876879053508242823_" gradientUnits="userSpaceOnUse" x1="2760.7642" y1="3417.7439" x2="2355.9639" y2="2048.1152">
					<stop  offset="0" style="stop-color:#311944"/>
					<stop  offset="1" style="stop-color:#893976"/>
				</linearGradient>
				<path style="fill:url(#SVGID_00000111876028585013804510000008876879053508242823_);" d="M2453.704,3146.796l-142.083-33.01
					c-17.881,2.283-32.424-11.362-32.424-30.485v-881.464c0-19.122,14.543-35.052,32.424-35.578l304.659-8.961
					c16.733-0.492,158.429,7.53,158.429,7.53l-128.175,872.859C2646.534,3056.1,2453.704,3146.796,2453.704,3146.796z"/>
				
					<linearGradient id="SVGID_00000104700945026905543370000012911620035414853533_" gradientUnits="userSpaceOnUse" x1="2644.7449" y1="2098.9312" x2="2494.3945" y2="4867.9087">
					<stop  offset="0" style="stop-color:#FF9085"/>
					<stop  offset="1" style="stop-color:#FB6FBB"/>
				</linearGradient>
				<path style="fill:url(#SVGID_00000104700945026905543370000012911620035414853533_);" d="M2767.351,3107.043l-301.74,39.02
					c-17.709,2.29-32.112-11.275-32.112-30.305v-907.32c0-19.031,14.403-34.886,32.112-35.413l301.74-8.983
					c16.573-0.493,29.966,13.963,29.966,32.287v873.66C2797.317,3088.314,2783.924,3104.9,2767.351,3107.043z"/>
			</g>
			<g>
				
					<linearGradient id="SVGID_00000159446294393635964340000001901790203391850153_" gradientUnits="userSpaceOnUse" x1="2295.8772" y1="3597.1438" x2="1888.0061" y2="2217.1252">
					<stop  offset="0" style="stop-color:#311944"/>
					<stop  offset="1" style="stop-color:#893976"/>
				</linearGradient>
				<path style="fill:url(#SVGID_00000159446294393635964340000001901790203391850153_);" d="M1977.621,3208.61l-149.837-33.047
					c-19.681,2.513-35.692-11.708-35.692-31.773l4.528-617.65c0-20.062,16.006-37.28,35.682-38.454l334.707-19.966
					c18.354-1.095,172.331,20.113,172.331,20.113l-143.564,605.828C2195.777,3112.945,1996.192,3206.209,1977.621,3208.61z"/>
				
					<linearGradient id="SVGID_00000003808168798638833740000005809429966185721744_" gradientUnits="userSpaceOnUse" x1="2192.2424" y1="2073.1763" x2="2041.985" y2="4840.4438">
					<stop  offset="0" style="stop-color:#FF9085"/>
					<stop  offset="1" style="stop-color:#FB6FBB"/>
				</linearGradient>
				<path style="fill:url(#SVGID_00000003808168798638833740000005809429966185721744_);" d="M2318.013,3165.149l-331.544,42.874
					c-19.489,2.52-35.343-11.616-35.343-31.582v-637.336c0-19.966,15.854-37.109,35.343-38.285l331.544-20.007
					c18.182-1.097,32.872,13.573,32.872,32.763v612.574C2350.885,3145.341,2336.195,3162.798,2318.013,3165.149z"/>
			</g>
			<g>
				
					<linearGradient id="SVGID_00000065779387595448130370000016056375791709439377_" gradientUnits="userSpaceOnUse" x1="1765.5548" y1="3788.2417" x2="1360.7399" y2="2418.5635">
					<stop  offset="0" style="stop-color:#311944"/>
					<stop  offset="1" style="stop-color:#893976"/>
				</linearGradient>
				<path style="fill:url(#SVGID_00000065779387595448130370000016056375791709439377_);" d="M1434.226,3271.625l-140.237-27.908
					c-21.768,2.779-39.479-12.068-39.479-33.172V2889.6c0-21.104,17.711-39.807,39.479-41.767l369.645-33.278
					c20.234-1.822,160.292,14.575,160.292,14.575l-123.713,326.068C1700.213,3175.441,1454.746,3268.976,1434.226,3271.625z"/>
				
					<linearGradient id="SVGID_00000037664829969656464320000015658764338961269132_" gradientUnits="userSpaceOnUse" x1="1693.7955" y1="2045.9102" x2="1543.7585" y2="4809.1196">
					<stop  offset="0" style="stop-color:#FF9085"/>
					<stop  offset="1" style="stop-color:#FB6FBB"/>
				</linearGradient>
				<path style="fill:url(#SVGID_00000037664829969656464320000015658764338961269132_);" d="M1823.926,3229.042l-365.993,47.329
					c-21.552,2.787-39.087-11.969-39.087-32.968v-339.419c0-20.999,17.535-39.617,39.087-41.576l365.993-33.277
					c20.035-1.822,36.221,13.036,36.221,33.178v325.578C1860.147,3208.029,1843.961,3226.451,1823.926,3229.042z"/>
			</g>
			
				<linearGradient id="SVGID_00000033345616596377889940000004249666855396919462_" gradientUnits="userSpaceOnUse" x1="1291.5333" y1="4224.9639" x2="789.9894" y2="2528.0068">
				<stop  offset="0" style="stop-color:#311944"/>
				<stop  offset="1" style="stop-color:#893976"/>
			</linearGradient>
			<path style="fill:url(#SVGID_00000033345616596377889940000004249666855396919462_);" d="M1112.301,3006.372l-410.228,42.353
				c-17.513,1.808-32.622,12.836-39.664,27.22c-2.69,5.495-4.24,11.462-4.24,17.614v176.361c0,22.258,18.838,40.49,43.904,49.372
				l144.958,28.81c22.772-2.94,305.783-103.627,305.783-124.928l67.984-81.779l68.812-116.52
				C1289.61,3024.875,1134.712,3004.058,1112.301,3006.372z"/>
			
				<linearGradient id="SVGID_00000171713422531021207450000011764908744799348647_" gradientUnits="userSpaceOnUse" x1="1136.7882" y1="2015.8185" x2="986.9996" y2="4774.4531">
				<stop  offset="0" style="stop-color:#FF9085"/>
				<stop  offset="1" style="stop-color:#FB6FBB"/>
			</linearGradient>
			<path style="fill:url(#SVGID_00000171713422531021207450000011764908744799348647_);" d="M1278.054,3299.631l-406.105,52.515
				c-23.961,3.099-43.46-12.332-43.46-34.477v-204.569c0-22.145,19.499-42.131,43.46-44.632l406.105-42.382
				c22.188-2.316,40.109,12.995,40.109,34.19v195.791C1318.163,3277.263,1300.242,3296.761,1278.054,3299.631z"/>
		</g>
	</g>
</g>
</svg>
