<svg version="1.2" xmlns="http://www.w3.org/2000/svg" viewBox="0 0 492 492" width="492" height="492">
	<title>198049411_86611c31-97be-4d4f-9cc1-511122a402d4-svg</title>
	<style>
		.s0 { fill: #dfdfdf } 
		.s1 { fill: #ffffff } 
	</style>
	<path id="Layer" class="s0" d="m246 486c-132.7 0-240-107.3-240-240 0-132.7 107.3-240 240-240 132.7 0 240 107.3 240 240 0 132.7-107.3 240-240 240z"/>
	<g id="Layer">
		<g id="Layer">
			<g id="Layer">
				<path id="Layer" fill-rule="evenodd" class="s1" d="m277.7 400.6c-0.7 0-1.5-0.2-2.1-0.7-0.9-0.6-1.4-1.5-1.5-2.6-1.7-14-13.7-24.6-27.9-24.6-14.2 0-26.2 10.6-27.9 24.6-0.1 1-0.7 2-1.5 2.6-0.9 0.6-1.9 0.8-2.9 0.6-15.6-3.6-30.4-9.7-44-18.2-0.9-0.6-1.5-1.5-1.7-2.5-0.2-1 0.1-2.1 0.7-2.9 8.7-11.2 7.7-27.1-2.3-37.1-10-10-26-11-37.1-2.3-0.8 0.6-1.9 0.9-2.9 0.7-1-0.2-1.9-0.8-2.5-1.7-8.5-13.6-14.7-28.4-18.2-44-0.2-1 0-2.1 0.6-2.9 0.6-0.9 1.5-1.4 2.6-1.5 14-1.7 24.6-13.7 24.6-27.9 0-2 1.7-3.7 3.7-3.7h218c2 0 3.7 1.7 3.7 3.7 0 14.2 10.6 26.2 24.6 27.9 1 0.1 2 0.7 2.6 1.5 0.6 0.9 0.8 1.9 0.6 2.9-3.6 15.6-9.7 30.4-18.2 44-0.6 0.9-1.5 1.5-2.5 1.7-1 0.2-2.1-0.1-2.9-0.7-11.2-8.7-27.1-7.7-37.1 2.3-10 10-11 26-2.3 37.1 0.6 0.8 0.9 1.9 0.7 2.9-0.2 1-0.8 1.9-1.7 2.5-13.6 8.5-28.4 14.7-44 18.2-0.6 0-0.9 0.1-1.2 0.1zm-31.5-35.3c16.5 0 30.7 11.4 34.5 27.1 12.2-3.2 23.8-8 34.7-14.4-8.4-13.8-6.4-31.8 5.3-43.5 11.7-11.7 29.7-13.6 43.5-5.3 6.4-10.9 11.2-22.5 14.4-34.7-14.5-3.5-25.3-15.9-26.9-30.8h-211c-1.5 14.9-12.4 27.3-26.9 30.8 3.2 12.2 8 23.8 14.4 34.7 13.8-8.4 31.8-6.4 43.5 5.3 11.7 11.7 13.6 29.7 5.3 43.5 10.9 6.4 22.5 11.2 34.7 14.4 3.8-15.7 18-27.1 34.5-27.1z"/>
			</g>
			<g id="Layer">
				<path id="Layer" fill-rule="evenodd" class="s1" d="m246.2 331c-39.1 0-71-31.8-71-71 0-2 1.7-3.7 3.7-3.7h134.6c2 0 3.7 1.7 3.7 3.7-0.1 39.2-31.9 71-71 71zm-63.5-67.3c1.9 33.4 29.7 59.9 63.5 59.9 33.8 0 61.6-26.6 63.5-59.9z"/>
			</g>
		</g>
		<g id="Layer">
			<path id="Layer" fill-rule="evenodd" class="s1" d="m333.4 263.7h-18.4c-2 0-3.7-1.7-3.7-3.7v-116.2c0-2 1.7-3.7 3.7-3.7h18.4c2 0 3.7 1.7 3.7 3.7v116.2c0 2.1-1.7 3.7-3.7 3.7zm-14.7-7.4h11v-108.8h-11z"/>
		</g>
		<g id="Layer">
			<path id="Layer" fill-rule="evenodd" class="s1" d="m294.4 263.7h-18.4c-2 0-3.7-1.7-3.7-3.7v-101c0-2 1.7-3.7 3.7-3.7h18.4c2 0 3.7 1.7 3.7 3.7v101c0 2.1-1.7 3.7-3.7 3.7zm-14.7-7.4h11v-93.6h-11z"/>
		</g>
		<g id="Layer">
			<path id="Layer" fill-rule="evenodd" class="s1" d="m255.4 263.7h-18.4c-2 0-3.7-1.7-3.7-3.7v-82.6c0-2 1.7-3.7 3.7-3.7h18.4c2 0 3.7 1.7 3.7 3.7v82.6c-0.1 2.1-1.7 3.7-3.7 3.7zm-14.7-7.4h11v-75.2h-11z"/>
		</g>
		<g id="Layer">
			<path id="Layer" fill-rule="evenodd" class="s1" d="m216.3 263.7h-18.4c-2 0-3.7-1.7-3.7-3.7v-65.5c0-2 1.7-3.7 3.7-3.7h18.4c2 0 3.7 1.7 3.7 3.7v65.5c0 2.1-1.6 3.7-3.7 3.7zm-14.7-7.4h11v-58.1h-11z"/>
		</g>
		<g id="Layer">
			<path id="Layer" fill-rule="evenodd" class="s1" d="m177.3 263.7h-18.4c-2 0-3.7-1.7-3.7-3.7v-54.1c0-2 1.7-3.7 3.7-3.7h18.4c2 0 3.7 1.7 3.7 3.7v54.1c0 2.1-1.7 3.7-3.7 3.7zm-14.7-7.4h11v-46.7h-11z"/>
		</g>
		<g id="Layer">
			<path id="Layer" class="s1" d="m164.3 190c-1.4 0-2.8-0.8-3.4-2.2-0.8-1.9 0-4 1.9-4.9l148.9-65.9c1.9-0.8 4 0 4.9 1.9 0.8 1.9 0 4-1.9 4.9l-148.9 65.9q-0.8 0.3-1.5 0.3z"/>
		</g>
		<g id="Layer">
			<path id="Layer" class="s1" d="m302 143.4c-0.6 0-1.3-0.2-1.8-0.5-1.8-1-2.4-3.3-1.4-5l7.9-13.8h-15.9c-2 0-3.7-1.7-3.7-3.7 0-2 1.7-3.7 3.7-3.7h22.3c1.3 0 2.5 0.7 3.2 1.8 0.7 1.1 0.7 2.5 0 3.7l-11.1 19.3c-0.7 1.2-1.9 1.9-3.2 1.9z"/>
		</g>
	</g>
</svg>