<svg width="110" height="110" viewBox="0 0 110 110" fill="none" xmlns="http://www.w3.org/2000/svg">
<g filter="url(#filter0_d_99_3255)">
<rect x="25.667" y="25" width="59.52" height="59.52" rx="29.76" fill="white" fill-opacity="0.8" shape-rendering="crispEdges"/>
<path d="M68.8816 51.9823C68.4751 51.4942 67.9664 51.1014 67.3915 50.8314C66.8166 50.5614 66.1894 50.421 65.5543 50.4199H58.9575L59.7676 48.3511C60.1046 47.4454 60.2168 46.4714 60.0946 45.5127C59.9725 44.554 59.6196 43.6392 59.0662 42.8469C58.5129 42.0546 57.7756 41.4083 56.9176 40.9635C56.0596 40.5187 55.1065 40.2887 54.1401 40.2932C53.8618 40.2938 53.5896 40.3746 53.3561 40.526C53.1226 40.6774 52.9377 40.8929 52.8236 41.1467L48.7006 50.4199H45.3009C44.1499 50.4199 43.046 50.8771 42.2321 51.691C41.4182 52.5049 40.9609 53.6088 40.9609 54.7599V64.8865C40.9609 66.0376 41.4182 67.1415 42.2321 67.9554C43.046 68.7693 44.1499 69.2265 45.3009 69.2265H63.717C64.7323 69.2262 65.7153 68.8699 66.4951 68.2197C67.2748 67.5695 67.8019 66.6664 67.9847 65.6677L69.8219 55.5411C69.9356 54.9152 69.9102 54.272 69.7477 53.657C69.5853 53.0421 69.2896 52.4703 68.8816 51.9823ZM48.1943 66.3332H45.3009C44.9173 66.3332 44.5493 66.1808 44.278 65.9095C44.0067 65.6382 43.8543 65.2702 43.8543 64.8865V54.7599C43.8543 54.3762 44.0067 54.0082 44.278 53.7369C44.5493 53.4656 44.9173 53.3132 45.3009 53.3132H48.1943V66.3332ZM67.0009 55.0203L65.1637 65.1469C65.102 65.484 64.9228 65.7882 64.6579 66.0054C64.393 66.2226 64.0596 66.3388 63.717 66.3332H51.0876V52.1703L55.0225 43.3167C55.4276 43.4348 55.8037 43.6356 56.1273 43.9064C56.4508 44.1772 56.7147 44.5121 56.9023 44.89C57.0899 45.2679 57.1971 45.6806 57.2172 46.102C57.2373 46.5234 57.1698 46.9445 57.0189 47.3385L56.2522 49.4072C56.0888 49.8445 56.0337 50.3148 56.0914 50.778C56.1492 51.2412 56.3182 51.6835 56.584 52.0673C56.8497 52.451 57.2044 52.7647 57.6177 52.9817C58.031 53.1987 58.4907 53.3124 58.9575 53.3132H65.5543C65.7668 53.3129 65.9768 53.3594 66.1693 53.4494C66.3619 53.5394 66.5322 53.6707 66.6682 53.834C66.8076 53.9951 66.9096 54.1849 66.9672 54.39C67.0247 54.595 67.0362 54.8102 67.0009 55.0203Z" fill="#E47646"/>
</g>
<defs>
<filter id="filter0_d_99_3255" x="0.866993" y="0.200001" width="109.12" height="109.12" filterUnits="userSpaceOnUse" color-interpolation-filters="sRGB">
<feFlood flood-opacity="0" result="BackgroundImageFix"/>
<feColorMatrix in="SourceAlpha" type="matrix" values="0 0 0 0 0 0 0 0 0 0 0 0 0 0 0 0 0 0 127 0" result="hardAlpha"/>
<feOffset/>
<feGaussianBlur stdDeviation="12.4"/>
<feComposite in2="hardAlpha" operator="out"/>
<feColorMatrix type="matrix" values="0 0 0 0 0.723357 0 0 0 0 0.723357 0 0 0 0 0.723357 0 0 0 0.28 0"/>
<feBlend mode="normal" in2="BackgroundImageFix" result="effect1_dropShadow_99_3255"/>
<feBlend mode="normal" in="SourceGraphic" in2="effect1_dropShadow_99_3255" result="shape"/>
</filter>
</defs>
</svg>
